{
.appVersion = "1286";
DisplayStrings = (
A,
"/Delta",
"ยบ",
"/OE"
);
classes = (
{
automatic = 1;

glyphs = (
{
glyphname = A;
lastChange = "2020-06-19 11:48:22 +0000";
layers = (
{
anchors = (
{
name = bottom;
position = "{317, 0}";
},
{
name = ogonek;
position = "{608, 0}";
},
{
name = top;
position = "{322, 671}";
}
);
background = {
anchors = (
{
name = bottom;
position = "{317, 0}";
},
{
name = ogonek;
position = "{608, 0}";
},
{
name = top;
position = "{322, 671}";
}
);
paths = (
{
closed = 1;
nodes = (
"185 0 LINE",
"186 37 LINE",
"119 51 LINE",
"183 230 LINE",
"195 264 LINE",
"327 622 LINE",
"303 595 LINE",
"433 265 LINE",
"446 232 LINE",
"515 51 LINE",
"448 37 LINE",
"449 0 LINE",
"646 0 LINE",
"647 37 LINE",
"591 51 LINE",
"349 691 LINE",
"296 658 LINE",
"61 51 LINE",
"5 37 LINE",
"7 0 LINE"
);
},
{
closed = 1;
nodes = (
"227 221 OFFCURVE",
"282 222 OFFCURVE",
"322 222 CURVE SMOOTH",
"363 222 OFFCURVE",
"422 221 OFFCURVE",
"486 219 CURVE",
"486 272 LINE",
"458 271 OFFCURVE",
"400 269 OFFCURVE",
"322 269 CURVE SMOOTH",
"243 269 OFFCURVE",
"185 271 OFFCURVE",
"157 272 CURVE",
"157 219 LINE"
);
}
);
};
color = -1;
layerId = "1F9E295B-DEDB-4635-AE01-A776835412CD";
paths = (
{
closed = 1;
nodes = (
"185 0 LINE",
"187 37 LINE",
"119 51 LINE",
"183 230 LINE",
"195 264 LINE",
"327 622 LINE",
"303 595 LINE",
"433 265 LINE",
"446 232 LINE",
"515 51 LINE",
"447 37 LINE",
"449 0 LINE",
"645 0 LINE",
"647 37 LINE",
"591 51 LINE",
"349 691 LINE",
"296 658 LINE",
"61 51 LINE",
"5 37 LINE",
"7 0 LINE"
);
},
{
closed = 1;
nodes = (
"227 221 OFFCURVE",
"282 222 OFFCURVE",
"322 222 CURVE SMOOTH",
"363 222 OFFCURVE",
"422 221 OFFCURVE",
"486 219 CURVE",
"486 272 LINE",
"458 271 OFFCURVE",
"400 269 OFFCURVE",
"322 269 CURVE SMOOTH",
"243 269 OFFCURVE",
"185 271 OFFCURVE",
"157 272 CURVE",
"157 219 LINE"
);
}
);
width = 653;
},
{
anchors = (
{
name = bottom;
position = "{309, 0}";
},
{
name = ogonek;
position = "{672, 0}";
},
{
name = top;
position = "{344, 671}";
}
);
background = {
anchors = (
{
name = bottom;
position = "{310, 0}";
},
{
name = ogonek;
position = "{673, 0}";
},
{
name = top;
position = "{345, 671}";
}
);
paths = (
{
closed = 1;
nodes = (
"240 0 LINE",
"245 65 LINE",
"169 87 LINE",
"217 232 LINE",
"230 266 LINE",
"311 480 LINE",
"271 505 LINE",
"379 261 LINE",
"392 218 LINE",
"448 87 LINE",
"373 65 LINE",
"377 0 LINE",
"731 0 LINE",
"735 65 LINE",
"674 87 LINE",
"402 691 LINE",
"289 629 LINE",
"58 87 LINE",
"-2 65 LINE",
"2 0 LINE"
);
},
{
closed = 1;
nodes = (
"208 184 OFFCURVE",
"235 186 OFFCURVE",
"303 186 CURVE SMOOTH",
"368 186 OFFCURVE",
"398 184 OFFCURVE",
"409 184 CURVE",
"409 272 LINE",
"382 271 OFFCURVE",
"353 266 OFFCURVE",
"303 266 CURVE SMOOTH",
"250 266 OFFCURVE",
"226 271 OFFCURVE",
"198 272 CURVE",
"198 183 LINE"
);
}
);
};
color = -1;
layerId = "722FC537-28B1-4F35-B842-D78FAAB5B143";
paths = (
{
closed = 1;
nodes = (
"240 0 LINE",
"243 65 LINE",
"168 87 LINE",
"218 232 LINE",
"229 266 LINE",
"309 480 LINE",
"270 505 LINE",
"378 261 LINE",
"391 218 LINE",
"447 87 LINE",
"371 65 LINE",
"377 0 LINE",
"730 0 LINE",
"734 65 LINE",
"673 87 LINE",
"401 691 LINE",
"288 629 LINE",
"57 87 LINE",
"-3 65 LINE",
"0 0 LINE"
);
},
{
closed = 1;
nodes = (
"197 184 OFFCURVE",
"227 186 OFFCURVE",
"302 186 CURVE SMOOTH",
"374 186 OFFCURVE",
"407 184 OFFCURVE",
"419 184 CURVE",
"419 272 LINE",
"389 271 OFFCURVE",
"358 266 OFFCURVE",
"302 266 CURVE SMOOTH",
"243 266 OFFCURVE",
"217 271 OFFCURVE",
"185 272 CURVE",
"185 183 LINE"
);
}
);
width = 723;
},
{
anchors = (
{
name = bottom;
position = "{307, 0}";
},
{
name = ogonek;
position = "{638, 0}";
},
{
name = top;
position = "{329, 671}";
}
);
color = -1;
layerId = "76B56D5A-2442-4808-93A9-707A1715678A";
paths = (
{
closed = 1;
nodes = (
"209 0 LINE",
"213 53 LINE",
"141 70 LINE",
"197 231 LINE",
"208 265 LINE",
"311 545 LINE",
"280 546 LINE",
"398 263 LINE",
"410 225 LINE",
"474 70 LINE",
"402 53 LINE",
"406 0 LINE",
"686 0 LINE",
"689 53 LINE",
"631 70 LINE",
"373 691 LINE",
"287 642 LINE",
"54 70 LINE",
"-5 53 LINE",
"-1 0 LINE"
);
},
{
closed = 1;
nodes = (
"210 201 OFFCURVE",
"251 203 OFFCURVE",
"306 203 CURVE SMOOTH",
"361 203 OFFCURVE",
"403 201 OFFCURVE",
"440 201 CURVE",
"440 272 LINE",
"413 271 OFFCURVE",
"370 267 OFFCURVE",
"306 267 CURVE SMOOTH",
"241 267 OFFCURVE",
"201 271 OFFCURVE",
"173 272 CURVE",
"173 200 LINE"
);
}
);
width = 681;
}
);
leftKerningGroup = A;
note = A;
rightKerningGroup = A;
unicode = 0041;
},
{
glyphname = Aogonek;
lastChange = "2020-06-19 11:48:22 +0000";
layers = (
{
anchors = (
{
name = bottom;
position = "{317, 0}";
},
{
name = top;
position = "{322, 671}";
}
);
background = {
anchors = (
{
name = bottom;
position = "{888, 0}";
},
{
name = top;
position = "{894, 671}";
}
);
paths = (
{
closed = 1;
nodes = (
"1282 -255 OFFCURVE",
"1321 -233 OFFCURVE",
"1350 -198 CURVE",
"1327 -174 LINE",
"1305 -197 OFFCURVE",
"1280 -214 OFFCURVE",
"1248 -214 CURVE SMOOTH",
"1207 -214 OFFCURVE",
"1178 -187 OFFCURVE",
"1178 -144 CURVE SMOOTH",
"1178 -82 OFFCURVE",
"1240 -25 OFFCURVE",
"1331 0 CURVE",
"1331 0 LINE",
"1333 37 LINE",
"1277 51 LINE",
"1034 691 LINE",
"982 658 LINE",
"746 51 LINE",
"690 37 LINE",
"693 0 LINE",
"872 0 LINE",
"873 37 LINE",
"805 51 LINE",
"869 230 LINE",
"881 264 LINE",
"1015 618 LINE",
"989 597 LINE",
"1119 265 LINE",
"1131 232 LINE",
"1201 51 LINE",
"1133 37 LINE",
"1134 0 LINE",
"1302 0 LINE",
"1295 19 LINE",
"1176 -25 OFFCURVE",
"1113 -86 OFFCURVE",
"1113 -157 CURVE SMOOTH",
"1113 -211 OFFCURVE",
"1157 -255 OFFCURVE",
"1234 -255 CURVE SMOOTH"
);
},
{
closed = 1;
nodes = (
"913 221 OFFCURVE",
"968 222 OFFCURVE",
"1008 222 CURVE SMOOTH",
"1049 222 OFFCURVE",
"1107 221 OFFCURVE",
"1171 219 CURVE",
"1171 272 LINE",
"1144 271 OFFCURVE",
"1086 269 OFFCURVE",
"1008 269 CURVE SMOOTH",
"929 269 OFFCURVE",
"871 271 OFFCURVE",
"842 272 CURVE",
"842 219 LINE"
);
},
{
closed = 1;
nodes = (
"184 0 LINE",
"186 37 LINE",
"119 51 LINE",
"183 230 LINE",
"195 264 LINE",
"327 622 LINE",
"303 595 LINE",
"433 265 LINE",
"446 232 LINE",
"515 51 LINE",
"448 37 LINE",
"450 0 LINE",
"645 0 LINE",
"647 37 LINE",
"591 51 LINE",
"349 691 LINE",
"296 658 LINE",
"61 51 LINE",
"5 37 LINE",
"7 0 LINE"
);
},
{
closed = 1;
nodes = (
"227 221 OFFCURVE",
"282 222 OFFCURVE",
"322 222 CURVE SMOOTH",
"363 222 OFFCURVE",
"422 221 OFFCURVE",
"486 219 CURVE",
"486 272 LINE",
"458 271 OFFCURVE",
"400 269 OFFCURVE",
"322 269 CURVE SMOOTH",
"243 269 OFFCURVE",
"185 271 OFFCURVE",
"157 272 CURVE",
"157 219 LINE"
);
}
);
};
color = -1;
layerId = "1F9E295B-DEDB-4635-AE01-A776835412CD";
paths = (
{
closed = 1;
nodes = (
"597 -255 OFFCURVE",
"635 -233 OFFCURVE",
"664 -198 CURVE",
"641 -174 LINE",
"619 -197 OFFCURVE",
"594 -214 OFFCURVE",
"562 -214 CURVE SMOOTH",
"521 -214 OFFCURVE",
"493 -187 OFFCURVE",
"493 -144 CURVE SMOOTH",
"493 -82 OFFCURVE",
"554 -25 OFFCURVE",
"645 0 CURVE",
"647 37 LINE",
"591 51 LINE",
"349 691 LINE",
"296 658 LINE",
"61 51 LINE",
"5 37 LINE",
"7 0 LINE",
"185 0 LINE",
"187 37 LINE",
"119 51 LINE",
"183 230 LINE",
"195 264 LINE",
"327 622 LINE",
"303 595 LINE",
"433 265 LINE",
"446 232 LINE",
"515 51 LINE",
"447 37 LINE",
"449 0 LINE",
"616 0 LINE",
"609 19 LINE",
"490 -25 OFFCURVE",
"427 -86 OFFCURVE",
"427 -157 CURVE SMOOTH",
"427 -211 OFFCURVE",
"471 -255 OFFCURVE",
"549 -255 CURVE SMOOTH"
);
},
{
closed = 1;
nodes = (
"227 221 OFFCURVE",
"282 222 OFFCURVE",
"322 222 CURVE SMOOTH",
"363 222 OFFCURVE",
"422 221 OFFCURVE",
"486 219 CURVE",
"486 272 LINE",
"458 271 OFFCURVE",
"400 269 OFFCURVE",
"322 269 CURVE SMOOTH",
"243 269 OFFCURVE",
"185 271 OFFCURVE",
"157 272 CURVE",
"157 219 LINE"
);
}
);
width = 653;
},
{
anchors = (
{
name = bottom;
position = "{309, 0}";
},
{
name = top;
position = "{344, 671}";
}
);
background = {
anchors = (
{
name = bottom;
position = "{310, 0}";
},
{
name = top;
position = "{345, 671}";
}
);
paths = (
{
closed = 1;
nodes = (
"662 -255 OFFCURVE",
"712 -235 OFFCURVE",
"745 -198 CURVE",
"709 -145 LINE",
"680 -173 OFFCURVE",
"655 -184 OFFCURVE",
"632 -184 CURVE SMOOTH",
"598 -184 OFFCURVE",
"576 -159 OFFCURVE",
"576 -123 CURVE SMOOTH",
"576 -69 OFFCURVE",
"638 -18 OFFCURVE",
"731 0 CURVE",
"735 65 LINE",
"674 87 LINE",
"402 691 LINE",
"289 629 LINE",
"58 87 LINE",
"-2 65 LINE",
"2 0 LINE",
"237 0 LINE",
"241 65 LINE",
"169 87 LINE",
"217 232 LINE",
"230 266 LINE",
"314 495 LINE",
"271 502 LINE",
"379 261 LINE",
"392 218 LINE",
"448 87 LINE",
"377 65 LINE",
"381 0 LINE",
"627 0 LINE",
"614 10 LINE",
"528 -5 OFFCURVE",
"448 -70 OFFCURVE",
"448 -133 CURVE SMOOTH",
"448 -202 OFFCURVE",
"520 -255 OFFCURVE",
"607 -255 CURVE SMOOTH"
);
},
{
closed = 1;
nodes = (
"208 184 OFFCURVE",
"235 186 OFFCURVE",
"303 186 CURVE SMOOTH",
"368 186 OFFCURVE",
"398 184 OFFCURVE",
"409 184 CURVE",
"409 272 LINE",
"382 271 OFFCURVE",
"353 266 OFFCURVE",
"303 266 CURVE SMOOTH",
"250 266 OFFCURVE",
"226 271 OFFCURVE",
"198 272 CURVE",
"198 183 LINE"
);
}
);
};
color = -1;
layerId = "722FC537-28B1-4F35-B842-D78FAAB5B143";
paths = (
{
closed = 1;
nodes = (
"661 -255 OFFCURVE",
"711 -235 OFFCURVE",
"744 -198 CURVE",
"707 -145 LINE",
"679 -173 OFFCURVE",
"654 -184 OFFCURVE",
"631 -184 CURVE SMOOTH",
"597 -184 OFFCURVE",
"575 -159 OFFCURVE",
"575 -123 CURVE SMOOTH",
"575 -69 OFFCURVE",
"637 -18 OFFCURVE",
"730 0 CURVE",
"734 65 LINE",
"673 87 LINE",
"401 691 LINE",
"288 629 LINE",
"57 87 LINE",
"-3 65 LINE",
"0 0 LINE",
"240 0 LINE",
"243 65 LINE",
"168 87 LINE",
"218 232 LINE",
"229 266 LINE",
"313 495 LINE",
"270 502 LINE",
"378 261 LINE",
"391 218 LINE",
"447 87 LINE",
"371 65 LINE",
"377 0 LINE",
"626 0 LINE",
"613 10 LINE",
"527 -5 OFFCURVE",
"447 -70 OFFCURVE",
"447 -133 CURVE SMOOTH",
"447 -202 OFFCURVE",
"519 -255 OFFCURVE",
"606 -255 CURVE SMOOTH"
);
},
{
closed = 1;
nodes = (
"197 184 OFFCURVE",
"227 186 OFFCURVE",
"302 186 CURVE SMOOTH",
"374 186 OFFCURVE",
"407 184 OFFCURVE",
"419 184 CURVE",
"419 272 LINE",
"389 271 OFFCURVE",
"358 266 OFFCURVE",
"302 266 CURVE SMOOTH",
"243 266 OFFCURVE",
"217 271 OFFCURVE",
"185 272 CURVE",
"185 183 LINE"
);
}
);
width = 723;
},
{
anchors = (
{
name = bottom;
position = "{307, 0}";
},
{
name = top;
position = "{329, 671}";
}
);
color = -1;
layerId = "76B56D5A-2442-4808-93A9-707A1715678A";
paths = (
{
closed = 1;
nodes = (
"626 -255 OFFCURVE",
"671 -234 OFFCURVE",
"702 -198 CURVE",
"673 -158 LINE",
"646 -183 OFFCURVE",
"621 -198 OFFCURVE",
"594 -198 CURVE SMOOTH",
"557 -198 OFFCURVE",
"533 -171 OFFCURVE",
"533 -133 CURVE SMOOTH",
"533 -75 OFFCURVE",
"594 -22 OFFCURVE",
"686 0 CURVE",
"689 53 LINE",
"631 70 LINE",
"373 691 LINE",
"287 642 LINE",
"54 70 LINE",
"-5 53 LINE",
"-1 0 LINE",
"209 0 LINE",
"213 53 LINE",
"141 70 LINE",
"197 231 LINE",
"208 265 LINE",
"311 546 LINE",
"280 545 LINE",
"398 263 LINE",
"410 225 LINE",
"474 70 LINE",
"402 53 LINE",
"406 0 LINE",
"617 0 LINE",
"606 15 LINE",
"506 -14 OFFCURVE",
"433 -77 OFFCURVE",
"433 -143 CURVE SMOOTH",
"433 -207 OFFCURVE",
"491 -255 OFFCURVE",
"575 -255 CURVE SMOOTH"
);
},
{
closed = 1;
nodes = (
"210 201 OFFCURVE",
"251 203 OFFCURVE",
"306 203 CURVE SMOOTH",
"361 203 OFFCURVE",
"403 201 OFFCURVE",
"440 201 CURVE",
"440 272 LINE",
"413 271 OFFCURVE",
"370 267 OFFCURVE",
"306 267 CURVE SMOOTH",
"241 267 OFFCURVE",
"201 271 OFFCURVE",
"173 272 CURVE",
"173 200 LINE"
);
}
);
width = 681;
}
);
leftKerningGroup = A;
leftMetricsKey = A;
widthMetricsKey = A;
note = Aogonek;
rightKerningGroup = A;
unicode = 0104;
},
{
glyphname = AE;
lastChange = "2020-06-19 11:48:22 +0000";
layers = (
{
anchors = (
{
name = bottom;
position = "{464, 0}";
},
{
name = top;
position = "{464, 671}";
}
);
background = {
anchors = (
{
name = bottom;
position = "{464, 0}";
},
{
name = top;
position = "{464, 671}";
}
);
paths = (
{
closed = 1;
nodes = (
"863 153 LINE",
"818 162 LINE",
"762 56 LINE",
"750 53 OFFCURVE",
"724 51 OFFCURVE",
"678 51 CURVE SMOOTH",
"559 51 LINE SMOOTH",
"516 51 OFFCURVE",
"512 51 OFFCURVE",
"499 53 CURVE",
"498 69 OFFCURVE",
"497 140 OFFCURVE",
"497 153 CURVE SMOOTH",
"497 495 LINE SMOOTH",
"497 523 OFFCURVE",
"498 610 OFFCURVE",
"499 620 CURVE",
"528 621 OFFCURVE",
"546 622 OFFCURVE",
"566 622 CURVE SMOOTH",
"706 622 LINE SMOOTH",
"723 622 OFFCURVE",
"738 621 OFFCURVE",
"744 619 CURVE",
"780 526 LINE",
"825 533 LINE",
"806 675 LINE",
"769 670 OFFCURVE",
"758 671 OFFCURVE",
"720 671 CURVE SMOOTH",
"339 671 LINE",
"337 634 LINE",
"437 619 LINE",
"424 657 LINE",
"46 51 LINE",
"-10 37 LINE",
"-8 0 LINE",
"183 0 LINE",
"184 37 LINE",
"115 51 LINE",
"458 630 LINE",
"428 604 LINE",
"428 164 LINE SMOOTH",
"428 88 OFFCURVE",
"427 65 OFFCURVE",
"426 51 CURVE",
"357 37 LINE",
"359 0 LINE",
"737 0 LINE SMOOTH",
"758 0 OFFCURVE",
"765 0 OFFCURVE",
"822 -5 CURVE"
);
},
{
closed = 1;
nodes = (
"236 218 OFFCURVE",
"279 218 OFFCURVE",
"340 218 CURVE SMOOTH",
"439 218 OFFCURVE",
"460 218 OFFCURVE",
"464 215 CURVE",
"464 270 LINE",
"447 268 OFFCURVE",
"403 267 OFFCURVE",
"340 267 CURVE SMOOTH",
"282 267 OFFCURVE",
"229 267 OFFCURVE",
"208 270 CURVE",
"198 216 LINE"
);
},
{
closed = 1;
nodes = (
"743 237 LINE",
"743 454 LINE",
"704 454 LINE",
"687 374 LINE",
"679 371 OFFCURVE",
"664 370 OFFCURVE",
"640 370 CURVE SMOOTH",
"551 370 LINE SMOOTH",
"533 370 OFFCURVE",
"516 371 OFFCURVE",
"483 372 CURVE",
"483 319 LINE",
"516 320 OFFCURVE",
"533 321 OFFCURVE",
"551 321 CURVE SMOOTH",
"640 321 LINE SMOOTH",
"664 321 OFFCURVE",
"679 320 OFFCURVE",
"687 317 CURVE",
"704 237 LINE"
);
}
);
};
color = -1;
layerId = "1F9E295B-DEDB-4635-AE01-A776835412CD";
paths = (
{
closed = 1;
nodes = (
"863 153 LINE",
"818 162 LINE",
"761 56 LINE",
"750 53 OFFCURVE",
"723 51 OFFCURVE",
"679 51 CURVE SMOOTH",
"560 51 LINE SMOOTH",
"515 51 OFFCURVE",
"512 51 OFFCURVE",
"499 54 CURVE",
"498 69 OFFCURVE",
"497 141 OFFCURVE",
"497 153 CURVE SMOOTH",
"497 495 LINE SMOOTH",
"497 523 OFFCURVE",
"498 610 OFFCURVE",
"499 621 CURVE",
"528 621 OFFCURVE",
"546 622 OFFCURVE",
"566 622 CURVE SMOOTH",
"706 622 LINE SMOOTH",
"722 622 OFFCURVE",
"738 621 OFFCURVE",
"744 619 CURVE",
"781 526 LINE",
"825 533 LINE",
"806 675 LINE",
"769 671 OFFCURVE",
"758 671 OFFCURVE",
"720 671 CURVE SMOOTH",
"339 671 LINE",
"337 634 LINE",
"438 619 LINE",
"424 657 LINE",
"46 51 LINE",
"-10 37 LINE",
"-8 0 LINE",
"182 0 LINE",
"184 37 LINE",
"115 51 LINE",
"459 630 LINE",
"429 603 LINE",
"429 163 LINE SMOOTH",
"429 88 OFFCURVE",
"427 66 OFFCURVE",
"426 51 CURVE",
"358 37 LINE",
"360 0 LINE",
"737 0 LINE SMOOTH",
"758 0 OFFCURVE",
"765 0 OFFCURVE",
"822 -6 CURVE"
);
},
{
closed = 1;
nodes = (
"235 218 OFFCURVE",
"279 217 OFFCURVE",
"339 217 CURVE SMOOTH",
"439 217 OFFCURVE",
"461 218 OFFCURVE",
"464 215 CURVE",
"464 270 LINE",
"447 267 OFFCURVE",
"403 266 OFFCURVE",
"339 266 CURVE SMOOTH",
"282 266 OFFCURVE",
"229 267 OFFCURVE",
"208 270 CURVE",
"199 216 LINE"
);
},
{
closed = 1;
nodes = (
"743 238 LINE",
"743 455 LINE",
"704 455 LINE",
"687 374 LINE",
"679 370 OFFCURVE",
"664 370 OFFCURVE",
"640 370 CURVE SMOOTH",
"551 370 LINE SMOOTH",
"534 370 OFFCURVE",
"515 370 OFFCURVE",
"483 371 CURVE",
"483 319 LINE",
"515 320 OFFCURVE",
"534 321 OFFCURVE",
"551 321 CURVE SMOOTH",
"640 321 LINE SMOOTH",
"664 321 OFFCURVE",
"679 320 OFFCURVE",
"687 317 CURVE",
"704 238 LINE"
);
}
);
width = 905;
},
{
anchors = (
{
name = bottom;
position = "{514, 0}";
},
{
name = top;
position = "{514, 671}";
}
);
background = {
anchors = (
{
name = bottom;
position = "{515, 0}";
},
{
name = top;
position = "{515, 671}";
}
);
paths = (
{
closed = 1;
nodes = (
"969 190 LINE",
"896 203 LINE",
"830 86 LINE",
"809 81 OFFCURVE",
"814 81 OFFCURVE",
"752 81 CURVE SMOOTH",
"728 81 LINE SMOOTH",
"691 81 OFFCURVE",
"653 83 OFFCURVE",
"611 86 CURVE",
"609 98 OFFCURVE",
"609 96 OFFCURVE",
"609 248 CURVE SMOOTH",
"609 446 LINE SMOOTH",
"609 591 OFFCURVE",
"609 577 OFFCURVE",
"611 592 CURVE",
"624 595 OFFCURVE",
"658 597 OFFCURVE",
"690 597 CURVE SMOOTH",
"737 597 LINE SMOOTH",
"757 597 OFFCURVE",
"769 595 OFFCURVE",
"795 591 CURVE",
"842 486 LINE",
"917 496 LINE",
"881 678 LINE",
"840 678 OFFCURVE",
"722 671 OFFCURVE",
"670 671 CURVE SMOOTH",
"317 671 LINE",
"313 605 LINE",
"424 584 LINE",
"414 632 LINE",
"35 87 LINE",
"-30 66 LINE",
"-26 0 LINE",
"205 0 LINE",
"209 66 LINE",
"137 87 LINE",
"464 569 LINE",
"421 562 LINE",
"421 238 LINE SMOOTH",
"421 183 OFFCURVE",
"421 126 OFFCURVE",
"418 87 CURVE",
"346 65 LINE",
"351 0 LINE",
"723 0 LINE SMOOTH",
"783 0 OFFCURVE",
"880 -7 OFFCURVE",
"913 -8 CURVE"
);
},
{
closed = 1;
nodes = (
"195 174 OFFCURVE",
"233 176 OFFCURVE",
"294 176 CURVE SMOOTH",
"310 176 OFFCURVE",
"352 174 OFFCURVE",
"429 174 CURVE",
"429 261 LINE",
"383 256 OFFCURVE",
"344 255 OFFCURVE",
"294 255 CURVE SMOOTH",
"227 255 OFFCURVE",
"232 258 OFFCURVE",
"200 261 CURVE",
"171 171 LINE"
);
},
{
closed = 1;
nodes = (
"830 224 LINE",
"830 462 LINE",
"755 462 LINE",
"746 387 LINE",
"736 390 OFFCURVE",
"706 386 OFFCURVE",
"674 386 CURVE SMOOTH",
"642 386 LINE SMOOTH",
"611 386 OFFCURVE",
"584 390 OFFCURVE",
"579 391 CURVE",
"579 298 LINE",
"584 299 OFFCURVE",
"611 302 OFFCURVE",
"642 302 CURVE SMOOTH",
"674 302 LINE SMOOTH",
"706 302 OFFCURVE",
"736 299 OFFCURVE",
"746 301 CURVE",
"755 224 LINE"
);
}
);
};
color = -1;
layerId = "722FC537-28B1-4F35-B842-D78FAAB5B143";
paths = (
{
closed = 1;
nodes = (
"968 190 LINE",
"895 203 LINE",
"829 86 LINE",
"808 81 OFFCURVE",
"813 81 OFFCURVE",
"751 81 CURVE SMOOTH",
"727 81 LINE SMOOTH",
"690 81 OFFCURVE",
"651 83 OFFCURVE",
"610 86 CURVE",
"608 110 OFFCURVE",
"608 96 OFFCURVE",
"608 248 CURVE SMOOTH",
"608 446 LINE SMOOTH",
"608 557 OFFCURVE",
"609 577 OFFCURVE",
"610 592 CURVE",
"623 595 OFFCURVE",
"657 597 OFFCURVE",
"689 597 CURVE SMOOTH",
"736 597 LINE SMOOTH",
"755 597 OFFCURVE",
"768 595 OFFCURVE",
"794 591 CURVE",
"841 486 LINE",
"915 496 LINE",
"880 678 LINE",
"839 678 OFFCURVE",
"721 671 OFFCURVE",
"669 671 CURVE SMOOTH",
"315 671 LINE",
"312 605 LINE",
"423 584 LINE",
"413 632 LINE",
"34 87 LINE",
"-31 66 LINE",
"-27 0 LINE",
"206 0 LINE",
"209 66 LINE",
"136 87 LINE",
"463 569 LINE",
"419 562 LINE",
"419 238 LINE SMOOTH",
"419 183 OFFCURVE",
"419 126 OFFCURVE",
"417 87 CURVE",
"344 65 LINE",
"347 0 LINE",
"722 0 LINE SMOOTH",
"782 0 OFFCURVE",
"879 -7 OFFCURVE",
"912 -8 CURVE"
);
},
{
closed = 1;
nodes = (
"197 174 OFFCURVE",
"238 176 OFFCURVE",
"304 176 CURVE SMOOTH",
"321 176 OFFCURVE",
"378 176 OFFCURVE",
"450 174 CURVE",
"450 261 LINE",
"400 256 OFFCURVE",
"358 255 OFFCURVE",
"304 255 CURVE SMOOTH",
"231 255 OFFCURVE",
"237 258 OFFCURVE",
"201 261 CURVE",
"170 171 LINE"
);
},
{
closed = 1;
nodes = (
"829 224 LINE",
"829 462 LINE",
"754 462 LINE",
"745 389 LINE",
"735 387 OFFCURVE",
"705 386 OFFCURVE",
"673 386 CURVE SMOOTH",
"641 386 LINE SMOOTH",
"610 386 OFFCURVE",
"583 390 OFFCURVE",
"578 391 CURVE",
"578 298 LINE",
"583 299 OFFCURVE",
"610 302 OFFCURVE",
"641 302 CURVE SMOOTH",
"673 302 LINE SMOOTH",
"705 302 OFFCURVE",
"735 301 OFFCURVE",
"745 301 CURVE",
"754 224 LINE"
);
}
);
width = 979;
},
{
anchors = (
{
name = bottom;
position = "{486, 0}";
},
{
name = top;
position = "{486, 671}";
}
);
color = -1;
layerId = "76B56D5A-2442-4808-93A9-707A1715678A";
paths = (
{
closed = 1;
nodes = (
"914 173 LINE",
"854 184 LINE",
"793 72 LINE",
"776 69 OFFCURVE",
"766 67 OFFCURVE",
"712 67 CURVE SMOOTH",
"645 67 LINE SMOOTH",
"603 67 OFFCURVE",
"582 69 OFFCURVE",
"553 71 CURVE",
"552 86 OFFCURVE",
"551 115 OFFCURVE",
"551 205 CURVE SMOOTH",
"551 467 LINE SMOOTH",
"551 557 OFFCURVE",
"552 592 OFFCURVE",
"553 605 CURVE",
"575 607 OFFCURVE",
"600 608 OFFCURVE",
"627 608 CURVE SMOOTH",
"717 608 LINE SMOOTH",
"735 608 OFFCURVE",
"749 607 OFFCURVE",
"766 603 CURVE",
"807 505 LINE",
"869 513 LINE",
"841 677 LINE",
"802 674 OFFCURVE",
"733 671 OFFCURVE",
"687 671 CURVE SMOOTH",
"321 671 LINE",
"318 618 LINE",
"425 601 LINE",
"413 643 LINE",
"34 70 LINE",
"-26 53 LINE",
"-23 0 LINE",
"190 0 LINE",
"193 53 LINE",
"121 70 LINE",
"455 598 LINE",
"418 582 LINE",
"418 205 LINE SMOOTH",
"418 139 OFFCURVE",
"417 97 OFFCURVE",
"416 70 CURVE",
"344 53 LINE",
"347 0 LINE",
"725 0 LINE SMOOTH",
"765 0 OFFCURVE",
"821 -3 OFFCURVE",
"865 -7 CURVE"
);
},
{
closed = 1;
nodes = (
"208 193 OFFCURVE",
"249 195 OFFCURVE",
"310 195 CURVE SMOOTH",
"365 195 OFFCURVE",
"398 194 OFFCURVE",
"441 193 CURVE",
"441 265 LINE",
"407 262 OFFCURVE",
"367 261 OFFCURVE",
"310 261 CURVE SMOOTH",
"248 261 OFFCURVE",
"225 263 OFFCURVE",
"198 265 CURVE",
"177 191 LINE"
);
},
{
closed = 1;
nodes = (
"783 231 LINE",
"783 458 LINE",
"726 458 LINE",
"713 382 LINE",
"703 381 OFFCURVE",
"681 379 OFFCURVE",
"653 379 CURVE SMOOTH",
"594 379 LINE SMOOTH",
"569 379 OFFCURVE",
"547 381 OFFCURVE",
"530 382 CURVE",
"530 307 LINE",
"547 309 OFFCURVE",
"569 311 OFFCURVE",
"594 311 CURVE SMOOTH",
"653 311 LINE SMOOTH",
"681 311 OFFCURVE",
"703 309 OFFCURVE",
"713 307 CURVE",
"726 231 LINE"
);
}
);
width = 939;
}
);
leftKerningGroup = AE;
note = AE;
rightKerningGroup = E;
rightMetricsKey = "=E+1";
unicode = 00C6;
},
{
glyphname = B;
lastChange = "2020-06-19 11:48:22 +0000";
layers = (
{
anchors = (
{
name = bottom;
position = "{304, 0}";
},
{
name = top;
position = "{304, 671}";
}
);
background = {
anchors = (
{
name = bottom;
position = "{305, 0}";
},
{
name = top;
position = "{305, 671}";
}
);
paths = (
{
closed = 1;
nodes = (
"56 37 LINE",
"58 0 LINE",
"285 0 LINE SMOOTH",
"454 0 OFFCURVE",
"564 75 OFFCURVE",
"564 192 CURVE SMOOTH",
"564 297 OFFCURVE",
"484 357 OFFCURVE",
"337 361 CURVE",
"360 353 LINE",
"459 362 OFFCURVE",
"529 426 OFFCURVE",
"529 510 CURVE SMOOTH",
"529 612 OFFCURVE",
"449 671 OFFCURVE",
"307 671 CURVE SMOOTH",
"58 671 LINE",
"56 632 LINE",
"124 624 LINE",
"130 615 OFFCURVE",
"134 556 OFFCURVE",
"134 453 CURVE SMOOTH",
"134 216 LINE SMOOTH",
"134 125 OFFCURVE",
"130 64 OFFCURVE",
"124 51 CURVE"
);
},
{
closed = 1;
nodes = (
"202 474 LINE SMOOTH",
"202 546 OFFCURVE",
"203 617 OFFCURVE",
"205 627 CURVE",
"298 627 LINE SMOOTH",
"396 627 OFFCURVE",
"455 584 OFFCURVE",
"455 500 CURVE SMOOTH",
"455 416 OFFCURVE",
"390 368 OFFCURVE",
"281 368 CURVE SMOOTH",
"245 368 OFFCURVE",
"219 370 OFFCURVE",
"185 371 CURVE",
"185 321 LINE",
"199 323 OFFCURVE",
"211 323 OFFCURVE",
"286 323 CURVE SMOOTH",
"419 323 OFFCURVE",
"489 275 OFFCURVE",
"489 182 CURVE SMOOTH",
"489 88 OFFCURVE",
"425 46 OFFCURVE",
"289 46 CURVE SMOOTH",
"271 46 OFFCURVE",
"225 51 OFFCURVE",
"206 53 CURVE",
"203 65 OFFCURVE",
"202 132 OFFCURVE",
"202 202 CURVE SMOOTH"
);
}
);
};
color = -1;
layerId = "1F9E295B-DEDB-4635-AE01-A776835412CD";
paths = (
{
closed = 1;
nodes = (
"58 37 LINE",
"61 0 LINE",
"286 0 LINE SMOOTH",
"454 0 OFFCURVE",
"563 75 OFFCURVE",
"563 192 CURVE SMOOTH",
"563 297 OFFCURVE",
"485 358 OFFCURVE",
"337 361 CURVE",
"360 353 LINE",
"459 362 OFFCURVE",
"529 426 OFFCURVE",
"529 510 CURVE SMOOTH",
"529 613 OFFCURVE",
"449 671 OFFCURVE",
"307 671 CURVE SMOOTH",
"61 671 LINE",
"58 632 LINE",
"127 624 LINE",
"130 615 OFFCURVE",
"134 555 OFFCURVE",
"134 454 CURVE SMOOTH",
"134 216 LINE SMOOTH",
"134 125 OFFCURVE",
"130 64 OFFCURVE",
"127 51 CURVE"
);
},
{
closed = 1;
nodes = (
"202 474 LINE SMOOTH",
"202 546 OFFCURVE",
"203 617 OFFCURVE",
"205 627 CURVE",
"297 627 LINE SMOOTH",
"397 627 OFFCURVE",
"455 584 OFFCURVE",
"455 501 CURVE SMOOTH",
"455 416 OFFCURVE",
"391 368 OFFCURVE",
"281 368 CURVE SMOOTH",
"246 368 OFFCURVE",
"218 369 OFFCURVE",
"185 371 CURVE",
"185 320 LINE",
"199 322 OFFCURVE",
"211 322 OFFCURVE",
"286 322 CURVE SMOOTH",
"419 322 OFFCURVE",
"489 274 OFFCURVE",
"489 182 CURVE SMOOTH",
"489 88 OFFCURVE",
"425 46 OFFCURVE",
"289 46 CURVE SMOOTH",
"271 46 OFFCURVE",
"225 50 OFFCURVE",
"206 54 CURVE",
"203 65 OFFCURVE",
"202 131 OFFCURVE",
"202 202 CURVE SMOOTH"
);
}
);
width = 619;
},
{
anchors = (
{
name = bottom;
position = "{371, 0}";
},
{
name = top;
position = "{371, 671}";
}
);
background = {
anchors = (
{
name = bottom;
position = "{373, 0}";
},
{
name = top;
position = "{373, 671}";
}
);
paths = (
{
closed = 1;
nodes = (
"37 65 LINE",
"40 0 LINE",
"373 0 LINE SMOOTH",
"569 0 OFFCURVE",
"679 71 OFFCURVE",
"679 199 CURVE SMOOTH",
"679 297 OFFCURVE",
"597 360 OFFCURVE",
"457 368 CURVE",
"438 358 LINE",
"560 365 OFFCURVE",
"645 426 OFFCURVE",
"645 510 CURVE SMOOTH",
"645 619 OFFCURVE",
"566 671 OFFCURVE",
"399 671 CURVE SMOOTH",
"40 671 LINE",
"37 607 LINE",
"111 583 LINE",
"115 575 OFFCURVE",
"119 495 OFFCURVE",
"119 405 CURVE SMOOTH",
"119 267 LINE SMOOTH",
"119 174 OFFCURVE",
"115 94 OFFCURVE",
"111 87 CURVE"
);
},
{
closed = 1;
nodes = (
"309 465 LINE SMOOTH",
"309 533 OFFCURVE",
"310 584 OFFCURVE",
"311 599 CURVE",
"331 599 LINE SMOOTH",
"409 599 OFFCURVE",
"440 555 OFFCURVE",
"440 491 CURVE SMOOTH",
"440 421 OFFCURVE",
"408 382 OFFCURVE",
"343 382 CURVE SMOOTH",
"323 382 OFFCURVE",
"313 382 OFFCURVE",
"302 383 CURVE",
"302 297 LINE",
"328 299 OFFCURVE",
"350 299 OFFCURVE",
"352 299 CURVE SMOOTH",
"437 299 OFFCURVE",
"474 263 OFFCURVE",
"474 179 CURVE SMOOTH",
"474 117 OFFCURVE",
"435 75 OFFCURVE",
"381 75 CURVE SMOOTH",
"351 75 OFFCURVE",
"326 79 OFFCURVE",
"312 86 CURVE",
"310 105 OFFCURVE",
"309 145 OFFCURVE",
"309 202 CURVE SMOOTH"
);
}
);
};
color = -1;
layerId = "722FC537-28B1-4F35-B842-D78FAAB5B143";
paths = (
{
closed = 1;
nodes = (
"35 65 LINE",
"39 0 LINE",
"371 0 LINE SMOOTH",
"568 0 OFFCURVE",
"678 71 OFFCURVE",
"678 199 CURVE SMOOTH",
"678 297 OFFCURVE",
"595 360 OFFCURVE",
"450 368 CURVE",
"431 358 LINE",
"559 365 OFFCURVE",
"643 426 OFFCURVE",
"643 510 CURVE SMOOTH",
"643 619 OFFCURVE",
"565 671 OFFCURVE",
"398 671 CURVE SMOOTH",
"39 671 LINE",
"35 607 LINE",
"110 583 LINE",
"114 575 OFFCURVE",
"118 495 OFFCURVE",
"118 405 CURVE SMOOTH",
"118 267 LINE SMOOTH",
"118 174 OFFCURVE",
"114 94 OFFCURVE",
"110 87 CURVE"
);
},
{
closed = 1;
nodes = (
"307 465 LINE SMOOTH",
"307 533 OFFCURVE",
"309 584 OFFCURVE",
"310 599 CURVE",
"330 599 LINE SMOOTH",
"408 599 OFFCURVE",
"439 555 OFFCURVE",
"439 491 CURVE SMOOTH",
"439 421 OFFCURVE",
"407 382 OFFCURVE",
"334 382 CURVE SMOOTH",
"322 382 OFFCURVE",
"312 382 OFFCURVE",
"289 384 CURVE",
"289 296 LINE",
"310 298 OFFCURVE",
"327 299 OFFCURVE",
"339 299 CURVE SMOOTH",
"435 299 OFFCURVE",
"473 263 OFFCURVE",
"473 179 CURVE SMOOTH",
"473 117 OFFCURVE",
"433 75 OFFCURVE",
"371 75 CURVE SMOOTH",
"349 75 OFFCURVE",
"325 79 OFFCURVE",
"311 86 CURVE",
"309 105 OFFCURVE",
"307 145 OFFCURVE",
"307 202 CURVE SMOOTH"
);
}
);
width = 727;
},
{
anchors = (
{
name = bottom;
position = "{337, 0}";
},
{
name = top;
position = "{337, 671}";
}
);
color = -1;
layerId = "76B56D5A-2442-4808-93A9-707A1715678A";
paths = (
{
closed = 1;
nodes = (
"41 53 LINE",
"45 0 LINE",
"327 0 LINE SMOOTH",
"511 0 OFFCURVE",
"621 73 OFFCURVE",
"621 195 CURVE SMOOTH",
"621 297 OFFCURVE",
"539 359 OFFCURVE",
"397 365 CURVE",
"397 355 LINE",
"510 363 OFFCURVE",
"586 426 OFFCURVE",
"586 510 CURVE SMOOTH",
"586 616 OFFCURVE",
"507 671 OFFCURVE",
"351 671 CURVE SMOOTH",
"45 671 LINE",
"41 618 LINE",
"113 602 LINE",
"118 594 OFFCURVE",
"121 523 OFFCURVE",
"121 426 CURVE SMOOTH",
"121 243 LINE SMOOTH",
"121 152 OFFCURVE",
"118 80 OFFCURVE",
"113 70 CURVE"
);
},
{
closed = 1;
nodes = (
"255 470 LINE SMOOTH",
"255 539 OFFCURVE",
"256 599 OFFCURVE",
"257 611 CURVE",
"311 611 LINE SMOOTH",
"399 611 OFFCURVE",
"442 568 OFFCURVE",
"442 496 CURVE SMOOTH",
"442 418 OFFCURVE",
"395 375 OFFCURVE",
"309 375 CURVE SMOOTH",
"282 375 OFFCURVE",
"265 376 OFFCURVE",
"242 377 CURVE",
"242 307 LINE",
"263 310 OFFCURVE",
"280 310 OFFCURVE",
"315 310 CURVE SMOOTH",
"424 310 OFFCURVE",
"477 269 OFFCURVE",
"477 181 CURVE SMOOTH",
"477 104 OFFCURVE",
"425 62 OFFCURVE",
"333 62 CURVE SMOOTH",
"310 62 OFFCURVE",
"275 66 OFFCURVE",
"258 71 CURVE",
"256 86 OFFCURVE",
"255 138 OFFCURVE",
"255 202 CURVE SMOOTH"
);
}
);
width = 669;
}
);
leftKerningGroup = H;
note = B;
rightKerningGroup = B;
unicode = 0042;
},
{
glyphname = C;
lastChange = "2020-06-19 11:48:22 +0000";
layers = (
{
anchors = (
{
name = bottom;
position = "{398, 0}";
},
{
name = top;
position = "{398, 671}";
}
);
background = {
anchors = (
{
name = bottom;
position = "{398, 0}";
},
{
name = top;
position = "{398, 671}";
}
);
paths = (
{
closed = 1;
nodes = (
"492 -10 OFFCURVE",
"559 10 OFFCURVE",
"615 36 CURVE",
"646 176 LINE",
"605 181 LINE",
"550 71 LINE",
"509 50 OFFCURVE",
"475 41 OFFCURVE",
"421 41 CURVE SMOOTH",
"273 41 OFFCURVE",
"154 146 OFFCURVE",
"154 350 CURVE SMOOTH",
"154 494 OFFCURVE",
"227 631 OFFCURVE",
"418 631 CURVE SMOOTH",
"464 631 OFFCURVE",
"525 620 OFFCURVE",
"555 598 CURVE",
"586 495 LINE",
"629 500 LINE",
"621 647 LINE",
"563 670 OFFCURVE",
"485 681 OFFCURVE",
"428 681 CURVE SMOOTH",
"187 681 OFFCURVE",
"64 509 OFFCURVE",
"64 333 CURVE SMOOTH",
"64 102 OFFCURVE",
"231 -10 OFFCURVE",
"418 -10 CURVE SMOOTH"
);
}
);
};
color = -1;
layerId = "1F9E295B-DEDB-4635-AE01-A776835412CD";
paths = (
{
closed = 1;
nodes = (
"493 -10 OFFCURVE",
"559 10 OFFCURVE",
"615 37 CURVE",
"646 176 LINE",
"606 181 LINE",
"550 71 LINE",
"509 50 OFFCURVE",
"475 41 OFFCURVE",
"422 41 CURVE SMOOTH",
"273 41 OFFCURVE",
"153 146 OFFCURVE",
"153 350 CURVE SMOOTH",
"153 494 OFFCURVE",
"227 631 OFFCURVE",
"418 631 CURVE SMOOTH",
"464 631 OFFCURVE",
"526 621 OFFCURVE",
"555 598 CURVE",
"586 495 LINE",
"629 499 LINE",
"621 647 LINE",
"562 670 OFFCURVE",
"486 681 OFFCURVE",
"429 681 CURVE SMOOTH",
"187 681 OFFCURVE",
"64 511 OFFCURVE",
"64 334 CURVE SMOOTH",
"64 102 OFFCURVE",
"231 -10 OFFCURVE",
"417 -10 CURVE SMOOTH"
);
}
);
width = 681;
},
{
anchors = (
{
name = bottom;
position = "{407, 0}";
},
{
name = top;
position = "{407, 671}";
}
);
background = {
anchors = (
{
name = bottom;
position = "{408, 0}";
},
{
name = top;
position = "{408, 671}";
}
);
paths = (
{
closed = 1;
nodes = (
"530 -10 OFFCURVE",
"630 22 OFFCURVE",
"672 53 CURVE",
"705 211 LINE",
"614 221 LINE",
"579 122 LINE",
"563 95 OFFCURVE",
"502 81 OFFCURVE",
"473 81 CURVE SMOOTH",
"363 81 OFFCURVE",
"277 187 OFFCURVE",
"277 353 CURVE SMOOTH",
"277 513 OFFCURVE",
"350 594 OFFCURVE",
"456 594 CURVE SMOOTH",
"490 594 OFFCURVE",
"512 587 OFFCURVE",
"542 577 CURVE",
"587 449 LINE",
"670 454 LINE",
"662 640 LINE",
"617 663 OFFCURVE",
"543 681 OFFCURVE",
"466 681 CURVE SMOOTH",
"239 681 OFFCURVE",
"50 561 OFFCURVE",
"50 320 CURVE SMOOTH",
"50 115 OFFCURVE",
"197 -10 OFFCURVE",
"435 -10 CURVE SMOOTH"
);
}
);
};
color = -1;
layerId = "722FC537-28B1-4F35-B842-D78FAAB5B143";
paths = (
{
closed = 1;
nodes = (
"529 -10 OFFCURVE",
"623 17 OFFCURVE",
"671 53 CURVE",
"704 211 LINE",
"613 221 LINE",
"575 113 LINE",
"549 91 OFFCURVE",
"512 81 OFFCURVE",
"470 81 CURVE SMOOTH",
"362 81 OFFCURVE",
"275 187 OFFCURVE",
"275 353 CURVE SMOOTH",
"275 513 OFFCURVE",
"349 594 OFFCURVE",
"455 594 CURVE SMOOTH",
"485 594 OFFCURVE",
"511 590 OFFCURVE",
"541 577 CURVE",
"586 449 LINE",
"669 454 LINE",
"661 640 LINE",
"616 663 OFFCURVE",
"539 681 OFFCURVE",
"465 681 CURVE SMOOTH",
"238 681 OFFCURVE",
"49 561 OFFCURVE",
"49 320 CURVE SMOOTH",
"49 115 OFFCURVE",
"195 -10 OFFCURVE",
"434 -10 CURVE SMOOTH"
);
}
);
width = 729;
},
{
anchors = (
{
name = bottom;
position = "{400, 0}";
},
{
name = top;
position = "{400, 671}";
}
);
color = -1;
layerId = "76B56D5A-2442-4808-93A9-707A1715678A";
paths = (
{
closed = 1;
nodes = (
"510 -10 OFFCURVE",
"593 16 OFFCURVE",
"641 46 CURVE",
"674 194 LINE",
"606 201 LINE",
"562 97 LINE",
"534 74 OFFCURVE",
"487 62 OFFCURVE",
"446 62 CURVE SMOOTH",
"318 62 OFFCURVE",
"216 168 OFFCURVE",
"216 352 CURVE SMOOTH",
"216 504 OFFCURVE",
"289 611 OFFCURVE",
"435 611 CURVE SMOOTH",
"474 611 OFFCURVE",
"515 602 OFFCURVE",
"545 586 CURVE",
"583 470 LINE",
"647 474 LINE",
"639 643 LINE",
"589 666 OFFCURVE",
"512 681 OFFCURVE",
"446 681 CURVE SMOOTH",
"211 681 OFFCURVE",
"54 537 OFFCURVE",
"54 327 CURVE SMOOTH",
"54 109 OFFCURVE",
"209 -10 OFFCURVE",
"424 -10 CURVE SMOOTH"
);
}
);
width = 702;
}
);
leftKerningGroup = O;
note = C;
rightKerningGroup = C;
unicode = 0043;
},
{
glyphname = D;
lastChange = "2020-06-19 11:48:22 +0000";
layers = (
{
anchors = (
{
name = bottom;
position = "{363, 0}";
},
{
name = center;
position = "{386, 336}";
},
{
name = stroke;
position = "{223, 336}";
},
{
name = top;
position = "{375, 671}";
}
);
background = {
anchors = (
{
name = bottom;
position = "{363, 0}";
},
{
name = center;
position = "{386, 336}";
},
{
name = stroke;
position = "{223, 336}";
},
{
name = top;
position = "{374, 671}";
}
);
paths = (
{
closed = 1;
nodes = (
"59 634 LINE",
"127 619 LINE",
"132 608 OFFCURVE",
"135 542 OFFCURVE",
"135 453 CURVE SMOOTH",
"135 216 LINE SMOOTH",
"135 138 OFFCURVE",
"132 67 OFFCURVE",
"127 51 CURVE",
"59 37 LINE",
"61 0 LINE",
"338 0 LINE SMOOTH",
"553 0 OFFCURVE",
"702 141 OFFCURVE",
"702 342 CURVE SMOOTH",
"702 550 OFFCURVE",
"562 671 OFFCURVE",
"322 671 CURVE SMOOTH",
"61 671 LINE"
);
},
{
closed = 1;
nodes = (
"244 622 OFFCURVE",
"276 625 OFFCURVE",
"307 625 CURVE SMOOTH",
"517 625 OFFCURVE",
"612 502 OFFCURVE",
"612 310 CURVE SMOOTH",
"612 146 OFFCURVE",
"518 51 OFFCURVE",
"343 51 CURVE SMOOTH",
"302 51 OFFCURVE",
"265 55 OFFCURVE",
"210 62 CURVE",
"207 94 OFFCURVE",
"205 143 OFFCURVE",
"205 216 CURVE SMOOTH",
"205 453 LINE SMOOTH",
"205 569 OFFCURVE",
"207 591 OFFCURVE",
"207 616 CURVE"
);
}
);
};
color = -1;
layerId = "1F9E295B-DEDB-4635-AE01-A776835412CD";
paths = (
{
closed = 1;
nodes = (
"62 634 LINE",
"129 619 LINE",
"131 608 OFFCURVE",
"135 542 OFFCURVE",
"135 454 CURVE SMOOTH",
"135 216 LINE SMOOTH",
"135 138 OFFCURVE",
"131 67 OFFCURVE",
"129 51 CURVE",
"62 37 LINE",
"64 0 LINE",
"336 0 LINE SMOOTH",
"551 0 OFFCURVE",
"699 141 OFFCURVE",
"699 343 CURVE SMOOTH",
"699 550 OFFCURVE",
"559 671 OFFCURVE",
"321 671 CURVE SMOOTH",
"64 671 LINE"
);
},
{
closed = 1;
nodes = (
"243 623 OFFCURVE",
"277 625 OFFCURVE",
"307 625 CURVE SMOOTH",
"518 625 OFFCURVE",
"614 502 OFFCURVE",
"614 310 CURVE SMOOTH",
"614 146 OFFCURVE",
"519 50 OFFCURVE",
"343 50 CURVE SMOOTH",
"302 50 OFFCURVE",
"265 54 OFFCURVE",
"209 61 CURVE",
"207 93 OFFCURVE",
"205 142 OFFCURVE",
"205 216 CURVE SMOOTH",
"205 454 LINE SMOOTH",
"205 568 OFFCURVE",
"206 591 OFFCURVE",
"207 616 CURVE"
);
}
);
width = 767;
},
{
anchors = (
{
name = bottom;
position = "{400, 0}";
},
{
name = center;
position = "{423, 336}";
},
{
name = stroke;
position = "{257, 336}";
},
{
name = top;
position = "{411, 671}";
}
);
background = {
anchors = (
{
name = bottom;
position = "{401, 0}";
},
{
name = center;
position = "{424, 336}";
},
{
name = stroke;
position = "{258, 336}";
},
{
name = top;
position = "{413, 671}";
}
);
paths = (
{
closed = 1;
nodes = (
"37 606 LINE",
"112 586 LINE",
"117 579 OFFCURVE",
"120 501 OFFCURVE",
"120 405 CURVE SMOOTH",
"120 267 LINE SMOOTH",
"120 168 OFFCURVE",
"117 93 OFFCURVE",
"112 87 CURVE",
"37 65 LINE",
"41 0 LINE",
"390 0 LINE SMOOTH",
"615 0 OFFCURVE",
"777 145 OFFCURVE",
"777 345 CURVE SMOOTH",
"777 550 OFFCURVE",
"630 671 OFFCURVE",
"381 671 CURVE SMOOTH",
"41 671 LINE"
);
},
{
closed = 1;
nodes = (
"334 590 OFFCURVE",
"354 590 OFFCURVE",
"374 590 CURVE SMOOTH",
"457 590 OFFCURVE",
"569 531 OFFCURVE",
"569 307 CURVE SMOOTH",
"569 149 OFFCURVE",
"514 87 OFFCURVE",
"405 87 CURVE SMOOTH",
"377 87 OFFCURVE",
"341 90 OFFCURVE",
"317 97 CURVE",
"313 129 OFFCURVE",
"311 213 OFFCURVE",
"311 267 CURVE SMOOTH",
"311 405 LINE SMOOTH",
"311 501 OFFCURVE",
"313 575 OFFCURVE",
"313 587 CURVE"
);
}
);
};
color = -1;
layerId = "722FC537-28B1-4F35-B842-D78FAAB5B143";
paths = (
{
closed = 1;
nodes = (
"37 606 LINE",
"111 586 LINE",
"115 579 OFFCURVE",
"119 501 OFFCURVE",
"119 405 CURVE SMOOTH",
"119 267 LINE SMOOTH",
"119 168 OFFCURVE",
"115 93 OFFCURVE",
"111 87 CURVE",
"37 65 LINE",
"40 0 LINE",
"389 0 LINE SMOOTH",
"614 0 OFFCURVE",
"776 145 OFFCURVE",
"776 345 CURVE SMOOTH",
"776 550 OFFCURVE",
"629 671 OFFCURVE",
"379 671 CURVE SMOOTH",
"40 671 LINE"
);
},
{
closed = 1;
nodes = (
"330 589 OFFCURVE",
"353 590 OFFCURVE",
"371 590 CURVE SMOOTH",
"456 590 OFFCURVE",
"568 531 OFFCURVE",
"568 307 CURVE SMOOTH",
"568 149 OFFCURVE",
"513 87 OFFCURVE",
"403 87 CURVE SMOOTH",
"376 87 OFFCURVE",
"339 90 OFFCURVE",
"315 97 CURVE",
"312 129 OFFCURVE",
"310 213 OFFCURVE",
"310 267 CURVE SMOOTH",
"310 405 LINE SMOOTH",
"310 501 OFFCURVE",
"311 573 OFFCURVE",
"312 585 CURVE"
);
}
);
width = 831;
},
{
anchors = (
{
name = bottom;
position = "{379, 0}";
},
{
name = center;
position = "{402, 336}";
},
{
name = stroke;
position = "{237, 336}";
},
{
name = top;
position = "{391, 671}";
}
);
color = -1;
layerId = "76B56D5A-2442-4808-93A9-707A1715678A";
paths = (
{
closed = 1;
nodes = (
"42 618 LINE",
"114 601 LINE",
"119 592 OFFCURVE",
"122 520 OFFCURVE",
"122 426 CURVE SMOOTH",
"122 243 LINE SMOOTH",
"122 154 OFFCURVE",
"119 81 OFFCURVE",
"114 70 CURVE",
"42 53 LINE",
"46 0 LINE",
"361 0 LINE SMOOTH",
"581 0 OFFCURVE",
"738 143 OFFCURVE",
"738 344 CURVE SMOOTH",
"738 550 OFFCURVE",
"594 671 OFFCURVE",
"349 671 CURVE SMOOTH",
"46 671 LINE"
);
},
{
closed = 1;
nodes = (
"287 605 OFFCURVE",
"313 607 OFFCURVE",
"337 607 CURVE SMOOTH",
"480 607 OFFCURVE",
"584 518 OFFCURVE",
"584 309 CURVE SMOOTH",
"584 147 OFFCURVE",
"511 70 OFFCURVE",
"370 70 CURVE SMOOTH",
"338 70 OFFCURVE",
"302 73 OFFCURVE",
"263 80 CURVE",
"259 112 OFFCURVE",
"257 181 OFFCURVE",
"257 243 CURVE SMOOTH",
"257 426 LINE SMOOTH",
"257 533 OFFCURVE",
"259 582 OFFCURVE",
"259 600 CURVE"
);
}
);
width = 797;
}
);
leftKerningGroup = H;
note = D;
rightKerningGroup = O;
unicode = 0044;
},
{
glyphname = E;
lastChange = "2020-06-19 11:48:22 +0000";
layers = (
{
anchors = (
{
name = bottom;
position = "{314, 0}";
},
{
name = ogonek;
position = "{541, 0}";
},
{
name = top;
position = "{314, 671}";
},
{
name = topleft;
position = "{29, 671}";
}
);
background = {
anchors = (
{
name = bottom;
position = "{315, 0}";
},
{
name = ogonek;
position = "{541, 0}";
},
{
name = top;
position = "{315, 671}";
},
{
name = topleft;
position = "{29, 671}";
}
);
paths = (
{
closed = 1;
nodes = (
"582 153 LINE",
"538 162 LINE",
"480 56 LINE",
"470 53 OFFCURVE",
"444 51 OFFCURVE",
"399 51 CURVE SMOOTH",
"264 51 LINE SMOOTH",
"243 51 OFFCURVE",
"223 53 OFFCURVE",
"204 54 CURVE",
"203 65 OFFCURVE",
"202 121 OFFCURVE",
"202 153 CURVE SMOOTH",
"202 495 LINE SMOOTH",
"202 538 OFFCURVE",
"203 612 OFFCURVE",
"204 618 CURVE",
"227 621 OFFCURVE",
"244 622 OFFCURVE",
"272 622 CURVE SMOOTH",
"423 622 LINE SMOOTH",
"440 622 OFFCURVE",
"455 621 OFFCURVE",
"462 619 CURVE",
"499 526 LINE",
"544 533 LINE",
"524 675 LINE",
"476 670 OFFCURVE",
"463 671 OFFCURVE",
"439 671 CURVE SMOOTH",
"61 671 LINE",
"59 634 LINE",
"128 619 LINE",
"132 610 OFFCURVE",
"134 559 OFFCURVE",
"134 453 CURVE SMOOTH",
"134 216 LINE SMOOTH",
"134 111 OFFCURVE",
"132 62 OFFCURVE",
"128 51 CURVE",
"59 37 LINE",
"61 0 LINE",
"456 0 LINE",
"477 0 OFFCURVE",
"490 0 OFFCURVE",
"539 -5 CURVE"
);
},
{
closed = 1;
nodes = (
"461 237 LINE",
"461 454 LINE",
"421 454 LINE",
"406 374 LINE",
"397 371 OFFCURVE",
"382 370 OFFCURVE",
"359 370 CURVE SMOOTH",
"260 370 LINE SMOOTH",
"242 370 OFFCURVE",
"220 371 OFFCURVE",
"189 372 CURVE",
"189 319 LINE",
"220 320 OFFCURVE",
"242 321 OFFCURVE",
"260 321 CURVE SMOOTH",
"359 321 LINE SMOOTH",
"382 321 OFFCURVE",
"397 320 OFFCURVE",
"406 317 CURVE",
"421 237 LINE"
);
}
);
};
color = -1;
layerId = "1F9E295B-DEDB-4635-AE01-A776835412CD";
paths = (
{
closed = 1;
nodes = (
"582 153 LINE",
"538 162 LINE",
"480 56 LINE",
"471 53 OFFCURVE",
"445 51 OFFCURVE",
"399 51 CURVE SMOOTH",
"264 51 LINE SMOOTH",
"242 51 OFFCURVE",
"223 53 OFFCURVE",
"205 55 CURVE",
"203 65 OFFCURVE",
"202 121 OFFCURVE",
"202 153 CURVE SMOOTH",
"202 495 LINE SMOOTH",
"202 537 OFFCURVE",
"203 611 OFFCURVE",
"205 618 CURVE",
"226 621 OFFCURVE",
"243 622 OFFCURVE",
"272 622 CURVE SMOOTH",
"423 622 LINE SMOOTH",
"440 622 OFFCURVE",
"455 621 OFFCURVE",
"463 619 CURVE",
"499 526 LINE",
"544 533 LINE",
"525 675 LINE",
"477 671 OFFCURVE",
"464 671 OFFCURVE",
"439 671 CURVE SMOOTH",
"64 671 LINE",
"62 634 LINE",
"130 619 LINE",
"133 610 OFFCURVE",
"134 559 OFFCURVE",
"134 454 CURVE SMOOTH",
"134 216 LINE SMOOTH",
"134 112 OFFCURVE",
"133 63 OFFCURVE",
"130 51 CURVE",
"62 37 LINE",
"64 0 LINE",
"456 0 LINE",
"477 0 OFFCURVE",
"490 0 OFFCURVE",
"538 -6 CURVE"
);
},
{
closed = 1;
nodes = (
"462 237 LINE",
"462 455 LINE",
"421 455 LINE",
"406 374 LINE",
"398 370 OFFCURVE",
"382 370 OFFCURVE",
"359 370 CURVE SMOOTH",
"259 370 LINE SMOOTH",
"242 370 OFFCURVE",
"219 370 OFFCURVE",
"189 371 CURVE",
"189 318 LINE",
"219 319 OFFCURVE",
"242 320 OFFCURVE",
"259 320 CURVE SMOOTH",
"359 320 LINE SMOOTH",
"382 320 OFFCURVE",
"398 319 OFFCURVE",
"406 315 CURVE",
"421 237 LINE"
);
}
);
width = 623;
},
{
anchors = (
{
name = bottom;
position = "{347, 0}";
},
{
name = ogonek;
position = "{624, 0}";
},
{
name = top;
position = "{347, 671}";
},
{
name = topleft;
position = "{38, 671}";
}
);
background = {
anchors = (
{
name = bottom;
position = "{349, 0}";
},
{
name = ogonek;
position = "{625, 0}";
},
{
name = top;
position = "{349, 671}";
},
{
name = topleft;
position = "{39, 671}";
}
);
paths = (
{
closed = 1;
nodes = (
"678 190 LINE",
"605 203 LINE",
"539 86 LINE",
"518 81 OFFCURVE",
"522 81 OFFCURVE",
"458 81 CURVE SMOOTH",
"429 81 LINE SMOOTH",
"371 81 OFFCURVE",
"343 82 OFFCURVE",
"312 87 CURVE",
"310 111 OFFCURVE",
"309 157 OFFCURVE",
"309 248 CURVE SMOOTH",
"309 446 LINE SMOOTH",
"309 535 OFFCURVE",
"310 570 OFFCURVE",
"312 593 CURVE",
"326 595 OFFCURVE",
"359 597 OFFCURVE",
"389 597 CURVE SMOOTH",
"448 597 LINE SMOOTH",
"466 597 OFFCURVE",
"480 595 OFFCURVE",
"505 591 CURVE",
"551 486 LINE",
"626 496 LINE",
"591 678 LINE",
"554 678 OFFCURVE",
"437 671 OFFCURVE",
"379 671 CURVE SMOOTH",
"39 671 LINE",
"35 606 LINE",
"110 584 LINE",
"114 577 OFFCURVE",
"119 494 OFFCURVE",
"119 405 CURVE SMOOTH",
"119 267 LINE SMOOTH",
"119 179 OFFCURVE",
"114 95 OFFCURVE",
"110 87 CURVE",
"35 65 LINE",
"39 0 LINE",
"433 0 LINE",
"491 0 OFFCURVE",
"586 -7 OFFCURVE",
"623 -8 CURVE"
);
},
{
closed = 1;
nodes = (
"539 224 LINE",
"539 462 LINE",
"466 462 LINE",
"456 387 LINE",
"445 390 OFFCURVE",
"416 386 OFFCURVE",
"384 386 CURVE SMOOTH",
"339 386 LINE SMOOTH",
"309 386 OFFCURVE",
"283 390 OFFCURVE",
"279 391 CURVE",
"279 298 LINE",
"283 299 OFFCURVE",
"309 302 OFFCURVE",
"339 302 CURVE SMOOTH",
"384 302 LINE SMOOTH",
"416 302 OFFCURVE",
"445 299 OFFCURVE",
"456 301 CURVE",
"466 224 LINE"
);
}
);
};
color = -1;
layerId = "722FC537-28B1-4F35-B842-D78FAAB5B143";
paths = (
{
closed = 1;
nodes = (
"677 190 LINE",
"603 203 LINE",
"538 86 LINE",
"517 81 OFFCURVE",
"521 81 OFFCURVE",
"457 81 CURVE SMOOTH",
"427 81 LINE SMOOTH",
"370 81 OFFCURVE",
"342 82 OFFCURVE",
"311 87 CURVE",
"309 111 OFFCURVE",
"307 157 OFFCURVE",
"307 248 CURVE SMOOTH",
"307 446 LINE SMOOTH",
"307 535 OFFCURVE",
"309 570 OFFCURVE",
"311 593 CURVE",
"325 595 OFFCURVE",
"358 597 OFFCURVE",
"387 597 CURVE SMOOTH",
"447 597 LINE SMOOTH",
"465 597 OFFCURVE",
"479 595 OFFCURVE",
"504 591 CURVE",
"550 486 LINE",
"625 496 LINE",
"590 678 LINE",
"542 673 OFFCURVE",
"435 671 OFFCURVE",
"378 671 CURVE SMOOTH",
"38 671 LINE",
"34 606 LINE",
"109 584 LINE",
"113 577 OFFCURVE",
"118 494 OFFCURVE",
"118 405 CURVE SMOOTH",
"118 267 LINE SMOOTH",
"118 179 OFFCURVE",
"113 95 OFFCURVE",
"109 87 CURVE",
"34 65 LINE",
"38 0 LINE",
"432 0 LINE",
"490 0 OFFCURVE",
"574 -5 OFFCURVE",
"622 -8 CURVE"
);
},
{
closed = 1;
nodes = (
"538 224 LINE",
"538 462 LINE",
"465 462 LINE",
"455 387 LINE",
"443 387 OFFCURVE",
"415 386 OFFCURVE",
"383 386 CURVE SMOOTH",
"338 386 LINE SMOOTH",
"307 386 OFFCURVE",
"282 390 OFFCURVE",
"278 391 CURVE",
"278 298 LINE",
"282 299 OFFCURVE",
"307 302 OFFCURVE",
"338 302 CURVE SMOOTH",
"383 302 LINE SMOOTH",
"415 302 OFFCURVE",
"443 301 OFFCURVE",
"455 301 CURVE",
"465 224 LINE"
);
}
);
width = 687;
},
{
anchors = (
{
name = bottom;
position = "{328, 0}";
},
{
name = ogonek;
position = "{582, 0}";
},
{
name = top;
position = "{328, 671}";
},
{
name = topleft;
position = "{30, 671}";
}
);
color = -1;
layerId = "76B56D5A-2442-4808-93A9-707A1715678A";
paths = (
{
closed = 1;
nodes = (
"630 173 LINE",
"569 184 LINE",
"507 72 LINE",
"491 69 OFFCURVE",
"481 67 OFFCURVE",
"426 67 CURVE SMOOTH",
"349 67 LINE SMOOTH",
"307 67 OFFCURVE",
"282 69 OFFCURVE",
"257 72 CURVE",
"256 90 OFFCURVE",
"255 139 OFFCURVE",
"255 205 CURVE SMOOTH",
"255 467 LINE SMOOTH",
"255 536 OFFCURVE",
"256 590 OFFCURVE",
"257 605 CURVE",
"275 607 OFFCURVE",
"301 608 OFFCURVE",
"330 608 CURVE SMOOTH",
"431 608 LINE SMOOTH",
"449 608 OFFCURVE",
"463 607 OFFCURVE",
"481 603 CURVE",
"522 505 LINE",
"583 513 LINE",
"555 677 LINE",
"513 673 OFFCURVE",
"443 671 OFFCURVE",
"402 671 CURVE SMOOTH",
"45 671 LINE",
"41 618 LINE",
"113 601 LINE",
"118 592 OFFCURVE",
"121 525 OFFCURVE",
"121 426 CURVE SMOOTH",
"121 243 LINE SMOOTH",
"121 147 OFFCURVE",
"118 80 OFFCURVE",
"113 70 CURVE",
"41 53 LINE",
"45 0 LINE",
"438 0 LINE",
"480 0 OFFCURVE",
"538 -2 OFFCURVE",
"579 -7 CURVE"
);
},
{
closed = 1;
nodes = (
"498 231 LINE",
"498 458 LINE",
"440 458 LINE",
"429 381 LINE",
"418 381 OFFCURVE",
"395 379 OFFCURVE",
"367 379 CURVE SMOOTH",
"298 379 LINE SMOOTH",
"273 379 OFFCURVE",
"249 381 OFFCURVE",
"232 382 CURVE",
"232 307 LINE",
"249 309 OFFCURVE",
"273 311 OFFCURVE",
"298 311 CURVE SMOOTH",
"367 311 LINE SMOOTH",
"395 311 OFFCURVE",
"418 309 OFFCURVE",
"429 307 CURVE",
"440 231 LINE"
);
}
);
width = 654;
}
);
leftKerningGroup = H;
note = E;
rightKerningGroup = E;
unicode = 0045;
},
{
glyphname = Eogonek;
lastChange = "2020-06-19 11:48:22 +0000";
layers = (
{
anchors = (
{
name = bottom;
position = "{314, 0}";
},
{
name = top;
position = "{314, 671}";
},
{
name = topleft;
position = "{29, 671}";
}
);
background = {
anchors = (
{
name = bottom;
position = "{315, 0}";
},
{
name = top;
position = "{315, 671}";
},
{
name = topleft;
position = "{29, 671}";
}
);
paths = (
{
closed = 1;
nodes = (
"527 -255 OFFCURVE",
"568 -234 OFFCURVE",
"599 -198 CURVE",
"577 -173 LINE",
"549 -201 OFFCURVE",
"524 -214 OFFCURVE",
"497 -214 CURVE SMOOTH",
"456 -214 OFFCURVE",
"428 -187 OFFCURVE",
"428 -144 CURVE SMOOTH",
"428 -92 OFFCURVE",
"466 -44 OFFCURVE",
"541 0 CURVE",
"582 153 LINE",
"538 162 LINE",
"480 56 LINE",
"470 53 OFFCURVE",
"444 51 OFFCURVE",
"399 51 CURVE SMOOTH",
"264 51 LINE SMOOTH",
"243 51 OFFCURVE",
"223 53 OFFCURVE",
"204 54 CURVE",
"203 65 OFFCURVE",
"202 121 OFFCURVE",
"202 153 CURVE SMOOTH",
"202 495 LINE SMOOTH",
"202 538 OFFCURVE",
"203 612 OFFCURVE",
"204 618 CURVE",
"227 621 OFFCURVE",
"244 622 OFFCURVE",
"272 622 CURVE SMOOTH",
"423 622 LINE SMOOTH",
"440 622 OFFCURVE",
"455 621 OFFCURVE",
"462 619 CURVE",
"499 526 LINE",
"544 533 LINE",
"524 675 LINE",
"476 670 OFFCURVE",
"463 671 OFFCURVE",
"439 671 CURVE SMOOTH",
"61 671 LINE",
"59 634 LINE",
"128 619 LINE",
"132 610 OFFCURVE",
"134 559 OFFCURVE",
"134 453 CURVE SMOOTH",
"134 216 LINE SMOOTH",
"134 111 OFFCURVE",
"132 62 OFFCURVE",
"128 51 CURVE",
"59 37 LINE",
"61 0 LINE",
"480 0 LINE",
"407 -44 OFFCURVE",
"362 -98 OFFCURVE",
"362 -156 CURVE SMOOTH",
"362 -215 OFFCURVE",
"411 -255 OFFCURVE",
"484 -255 CURVE SMOOTH"
);
},
{
closed = 1;
nodes = (
"461 237 LINE",
"461 454 LINE",
"421 454 LINE",
"406 374 LINE",
"397 371 OFFCURVE",
"382 370 OFFCURVE",
"359 370 CURVE SMOOTH",
"260 370 LINE SMOOTH",
"242 370 OFFCURVE",
"220 371 OFFCURVE",
"189 372 CURVE",
"189 319 LINE",
"220 320 OFFCURVE",
"242 321 OFFCURVE",
"260 321 CURVE SMOOTH",
"359 321 LINE SMOOTH",
"382 321 OFFCURVE",
"397 320 OFFCURVE",
"406 317 CURVE",
"421 237 LINE"
);
}
);
};
color = -1;
layerId = "1F9E295B-DEDB-4635-AE01-A776835412CD";
paths = (
{
closed = 1;
nodes = (
"527 -255 OFFCURVE",
"568 -234 OFFCURVE",
"599 -198 CURVE",
"577 -174 LINE",
"550 -201 OFFCURVE",
"525 -214 OFFCURVE",
"497 -214 CURVE SMOOTH",
"456 -214 OFFCURVE",
"429 -187 OFFCURVE",
"429 -144 CURVE SMOOTH",
"429 -93 OFFCURVE",
"466 -43 OFFCURVE",
"541 0 CURVE",
"582 153 LINE",
"538 162 LINE",
"480 56 LINE",
"471 53 OFFCURVE",
"445 51 OFFCURVE",
"399 51 CURVE SMOOTH",
"264 51 LINE SMOOTH",
"242 51 OFFCURVE",
"223 53 OFFCURVE",
"205 55 CURVE",
"203 65 OFFCURVE",
"202 121 OFFCURVE",
"202 153 CURVE SMOOTH",
"202 495 LINE SMOOTH",
"202 537 OFFCURVE",
"203 611 OFFCURVE",
"205 618 CURVE",
"226 621 OFFCURVE",
"243 622 OFFCURVE",
"272 622 CURVE SMOOTH",
"423 622 LINE SMOOTH",
"440 622 OFFCURVE",
"455 621 OFFCURVE",
"463 619 CURVE",
"499 526 LINE",
"544 533 LINE",
"525 675 LINE",
"477 671 OFFCURVE",
"464 671 OFFCURVE",
"439 671 CURVE SMOOTH",
"64 671 LINE",
"62 634 LINE",
"130 619 LINE",
"133 610 OFFCURVE",
"134 559 OFFCURVE",
"134 454 CURVE SMOOTH",
"134 216 LINE SMOOTH",
"134 112 OFFCURVE",
"133 63 OFFCURVE",
"130 51 CURVE",
"62 37 LINE",
"64 0 LINE",
"480 0 LINE",
"408 -43 OFFCURVE",
"362 -98 OFFCURVE",
"362 -157 CURVE SMOOTH",
"362 -215 OFFCURVE",
"411 -255 OFFCURVE",
"485 -255 CURVE SMOOTH"
);
},
{
closed = 1;
nodes = (
"462 237 LINE",
"462 455 LINE",
"421 455 LINE",
"406 374 LINE",
"398 370 OFFCURVE",
"382 370 OFFCURVE",
"359 370 CURVE SMOOTH",
"259 370 LINE SMOOTH",
"242 370 OFFCURVE",
"219 370 OFFCURVE",
"189 371 CURVE",
"189 318 LINE",
"219 319 OFFCURVE",
"242 320 OFFCURVE",
"259 320 CURVE SMOOTH",
"359 320 LINE SMOOTH",
"382 320 OFFCURVE",
"398 319 OFFCURVE",
"406 315 CURVE",
"421 237 LINE"
);
}
);
width = 623;
},
{
anchors = (
{
name = bottom;
position = "{347, 0}";
},
{
name = top;
position = "{347, 671}";
},
{
name = topleft;
position = "{38, 671}";
}
);
background = {
anchors = (
{
name = bottom;
position = "{349, 0}";
},
{
name = top;
position = "{349, 671}";
},
{
name = topleft;
position = "{39, 671}";
}
);
paths = (
{
closed = 1;
nodes = (
"618 -255 OFFCURVE",
"664 -237 OFFCURVE",
"699 -198 CURVE",
"664 -145 LINE",
"637 -171 OFFCURVE",
"611 -184 OFFCURVE",
"587 -184 CURVE SMOOTH",
"552 -184 OFFCURVE",
"531 -159 OFFCURVE",
"531 -123 CURVE SMOOTH",
"531 -83 OFFCURVE",
"562 -41 OFFCURVE",
"625 0 CURVE",
"678 190 LINE",
"605 203 LINE",
"539 86 LINE",
"518 81 OFFCURVE",
"522 81 OFFCURVE",
"458 81 CURVE SMOOTH",
"429 81 LINE SMOOTH",
"371 81 OFFCURVE",
"343 82 OFFCURVE",
"312 87 CURVE",
"310 111 OFFCURVE",
"309 157 OFFCURVE",
"309 248 CURVE SMOOTH",
"309 446 LINE SMOOTH",
"309 535 OFFCURVE",
"310 570 OFFCURVE",
"312 593 CURVE",
"326 595 OFFCURVE",
"359 597 OFFCURVE",
"389 597 CURVE SMOOTH",
"448 597 LINE SMOOTH",
"466 597 OFFCURVE",
"480 595 OFFCURVE",
"505 591 CURVE",
"551 486 LINE",
"626 496 LINE",
"591 678 LINE",
"554 678 OFFCURVE",
"437 671 OFFCURVE",
"379 671 CURVE SMOOTH",
"39 671 LINE",
"35 606 LINE",
"110 584 LINE",
"114 577 OFFCURVE",
"119 494 OFFCURVE",
"119 405 CURVE SMOOTH",
"119 267 LINE SMOOTH",
"119 179 OFFCURVE",
"114 95 OFFCURVE",
"110 87 CURVE",
"35 65 LINE",
"39 0 LINE",
"530 0 LINE",
"446 -37 OFFCURVE",
"403 -85 OFFCURVE",
"403 -133 CURVE SMOOTH",
"403 -201 OFFCURVE",
"473 -255 OFFCURVE",
"562 -255 CURVE SMOOTH"
);
},
{
closed = 1;
nodes = (
"539 224 LINE",
"539 462 LINE",
"466 462 LINE",
"456 387 LINE",
"445 390 OFFCURVE",
"416 386 OFFCURVE",
"384 386 CURVE SMOOTH",
"339 386 LINE SMOOTH",
"309 386 OFFCURVE",
"283 390 OFFCURVE",
"279 391 CURVE",
"279 298 LINE",
"283 299 OFFCURVE",
"309 302 OFFCURVE",
"339 302 CURVE SMOOTH",
"384 302 LINE SMOOTH",
"416 302 OFFCURVE",
"445 299 OFFCURVE",
"456 301 CURVE",
"466 224 LINE"
);
}
);
};
color = -1;
layerId = "722FC537-28B1-4F35-B842-D78FAAB5B143";
paths = (
{
closed = 1;
nodes = (
"617 -255 OFFCURVE",
"663 -237 OFFCURVE",
"698 -198 CURVE",
"663 -145 LINE",
"635 -171 OFFCURVE",
"610 -184 OFFCURVE",
"586 -184 CURVE SMOOTH",
"551 -184 OFFCURVE",
"530 -159 OFFCURVE",
"530 -123 CURVE SMOOTH",
"530 -83 OFFCURVE",
"561 -41 OFFCURVE",
"624 0 CURVE",
"677 190 LINE",
"603 203 LINE",
"538 86 LINE",
"517 81 OFFCURVE",
"521 81 OFFCURVE",
"457 81 CURVE SMOOTH",
"427 81 LINE SMOOTH",
"370 81 OFFCURVE",
"342 82 OFFCURVE",
"311 87 CURVE",
"309 111 OFFCURVE",
"307 157 OFFCURVE",
"307 248 CURVE SMOOTH",
"307 446 LINE SMOOTH",
"307 535 OFFCURVE",
"309 570 OFFCURVE",
"311 593 CURVE",
"325 595 OFFCURVE",
"358 597 OFFCURVE",
"387 597 CURVE SMOOTH",
"447 597 LINE SMOOTH",
"465 597 OFFCURVE",
"479 595 OFFCURVE",
"504 591 CURVE",
"550 486 LINE",
"625 496 LINE",
"590 678 LINE",
"553 675 OFFCURVE",
"435 671 OFFCURVE",
"378 671 CURVE SMOOTH",
"38 671 LINE",
"34 606 LINE",
"109 584 LINE",
"113 577 OFFCURVE",
"118 494 OFFCURVE",
"118 405 CURVE SMOOTH",
"118 267 LINE SMOOTH",
"118 179 OFFCURVE",
"113 95 OFFCURVE",
"109 87 CURVE",
"34 65 LINE",
"38 0 LINE",
"529 0 LINE",
"445 -37 OFFCURVE",
"402 -85 OFFCURVE",
"402 -133 CURVE SMOOTH",
"402 -201 OFFCURVE",
"472 -255 OFFCURVE",
"561 -255 CURVE SMOOTH"
);
},
{
closed = 1;
nodes = (
"538 224 LINE",
"538 462 LINE",
"465 462 LINE",
"455 387 LINE",
"443 387 OFFCURVE",
"415 386 OFFCURVE",
"383 386 CURVE SMOOTH",
"338 386 LINE SMOOTH",
"307 386 OFFCURVE",
"282 390 OFFCURVE",
"278 391 CURVE",
"278 298 LINE",
"282 299 OFFCURVE",
"307 302 OFFCURVE",
"338 302 CURVE SMOOTH",
"383 302 LINE SMOOTH",
"415 302 OFFCURVE",
"443 301 OFFCURVE",
"455 301 CURVE",
"465 224 LINE"
);
}
);
width = 687;
},
{
anchors = (
{
name = bottom;
position = "{328, 0}";
},
{
name = top;
position = "{328, 671}";
},
{
name = topleft;
position = "{30, 671}";
}
);
color = -1;
layerId = "76B56D5A-2442-4808-93A9-707A1715678A";
paths = (
{
closed = 1;
nodes = (
"570 -255 OFFCURVE",
"616 -235 OFFCURVE",
"649 -198 CURVE",
"618 -158 LINE",
"591 -185 OFFCURVE",
"566 -198 OFFCURVE",
"541 -198 CURVE SMOOTH",
"504 -198 OFFCURVE",
"479 -171 OFFCURVE",
"479 -133 CURVE SMOOTH",
"479 -88 OFFCURVE",
"514 -42 OFFCURVE",
"582 0 CURVE",
"630 173 LINE",
"569 184 LINE",
"507 72 LINE",
"491 69 OFFCURVE",
"481 67 OFFCURVE",
"426 67 CURVE SMOOTH",
"349 67 LINE SMOOTH",
"307 67 OFFCURVE",
"282 69 OFFCURVE",
"257 72 CURVE",
"256 90 OFFCURVE",
"255 139 OFFCURVE",
"255 205 CURVE SMOOTH",
"255 467 LINE SMOOTH",
"255 536 OFFCURVE",
"256 590 OFFCURVE",
"257 605 CURVE",
"275 607 OFFCURVE",
"301 608 OFFCURVE",
"330 608 CURVE SMOOTH",
"431 608 LINE SMOOTH",
"449 608 OFFCURVE",
"463 607 OFFCURVE",
"481 603 CURVE",
"522 505 LINE",
"583 513 LINE",
"555 677 LINE",
"513 673 OFFCURVE",
"443 671 OFFCURVE",
"402 671 CURVE SMOOTH",
"45 671 LINE",
"41 618 LINE",
"113 601 LINE",
"118 592 OFFCURVE",
"121 525 OFFCURVE",
"121 426 CURVE SMOOTH",
"121 243 LINE SMOOTH",
"121 147 OFFCURVE",
"118 80 OFFCURVE",
"113 70 CURVE",
"41 53 LINE",
"45 0 LINE",
"503 0 LINE",
"424 -40 OFFCURVE",
"379 -91 OFFCURVE",
"379 -143 CURVE SMOOTH",
"379 -208 OFFCURVE",
"439 -255 OFFCURVE",
"521 -255 CURVE SMOOTH"
);
},
{
closed = 1;
nodes = (
"498 231 LINE",
"498 458 LINE",
"440 458 LINE",
"429 381 LINE",
"418 381 OFFCURVE",
"395 379 OFFCURVE",
"367 379 CURVE SMOOTH",
"298 379 LINE SMOOTH",
"273 379 OFFCURVE",
"249 381 OFFCURVE",
"232 382 CURVE",
"232 307 LINE",
"249 309 OFFCURVE",
"273 311 OFFCURVE",
"298 311 CURVE SMOOTH",
"367 311 LINE SMOOTH",
"395 311 OFFCURVE",
"418 309 OFFCURVE",
"429 307 CURVE",
"440 231 LINE"
);
}
);
width = 654;
}
);
leftKerningGroup = H;
leftMetricsKey = E;
widthMetricsKey = E;
note = Eogonek;
rightKerningGroup = E;
unicode = 0118;
},
{
glyphname = F;
lastChange = "2020-06-19 11:48:22 +0000";
layers = (
{
anchors = (
{
name = bottom;
position = "{171, 0}";
},
{
name = top;
position = "{297, 671}";
}
);
background = {
anchors = (
{
name = bottom;
position = "{171, 0}";
},
{
name = top;
position = "{297, 671}";
}
);
paths = (
{
closed = 1;
nodes = (
"302 0 LINE",
"304 39 LINE",
"211 51 LINE",
"205 61 OFFCURVE",
"203 95 OFFCURVE",
"203 234 CURVE",
"202 464 LINE",
"202 518 OFFCURVE",
"204 608 OFFCURVE",
"205 619 CURVE",
"221 620 OFFCURVE",
"254 622 OFFCURVE",
"275 622 CURVE SMOOTH",
"421 622 LINE SMOOTH",
"438 622 OFFCURVE",
"453 621 OFFCURVE",
"461 619 CURVE",
"497 526 LINE",
"542 533 LINE",
"523 675 LINE",
"474 670 OFFCURVE",
"462 671 OFFCURVE",
"438 671 CURVE SMOOTH",
"61 671 LINE",
"59 634 LINE",
"127 618 LINE",
"133 610 OFFCURVE",
"135 574 OFFCURVE",
"135 484 CURVE",
"134 207 LINE",
"134 98 OFFCURVE",
"132 61 OFFCURVE",
"126 51 CURVE",
"62 37 LINE",
"64 0 LINE"
);
},
{
closed = 1;
nodes = (
"459 231 LINE",
"459 451 LINE",
"419 451 LINE",
"403 372 LINE",
"395 367 OFFCURVE",
"383 366 OFFCURVE",
"352 366 CURVE SMOOTH",
"243 366 LINE SMOOTH",
"225 366 OFFCURVE",
"206 368 OFFCURVE",
"187 369 CURVE",
"187 317 LINE",
"216 318 OFFCURVE",
"232 319 OFFCURVE",
"243 319 CURVE SMOOTH",
"352 319 LINE SMOOTH",
"390 319 OFFCURVE",
"400 318 OFFCURVE",
"403 314 CURVE",
"419 231 LINE"
);
}
);
};
color = -1;
layerId = "1F9E295B-DEDB-4635-AE01-A776835412CD";
paths = (
{
closed = 1;
nodes = (
"297 0 LINE",
"299 39 LINE",
"207 51 LINE",
"205 61 OFFCURVE",
"203 93 OFFCURVE",
"203 232 CURVE",
"202 475 LINE",
"202 530 OFFCURVE",
"202 608 OFFCURVE",
"203 619 CURVE",
"219 621 OFFCURVE",
"254 622 OFFCURVE",
"275 622 CURVE SMOOTH",
"422 622 LINE SMOOTH",
"438 622 OFFCURVE",
"454 621 OFFCURVE",
"461 619 CURVE",
"497 526 LINE",
"542 533 LINE",
"522 675 LINE",
"474 671 OFFCURVE",
"462 671 OFFCURVE",
"438 671 CURVE SMOOTH",
"65 671 LINE",
"63 634 LINE",
"131 619 LINE",
"134 611 OFFCURVE",
"135 574 OFFCURVE",
"135 483 CURVE",
"134 207 LINE",
"134 98 OFFCURVE",
"133 61 OFFCURVE",
"130 51 CURVE",
"67 37 LINE",
"70 0 LINE"
);
},
{
closed = 1;
nodes = (
"459 229 LINE",
"459 451 LINE",
"419 451 LINE",
"403 371 LINE",
"395 368 OFFCURVE",
"383 367 OFFCURVE",
"352 367 CURVE SMOOTH",
"242 367 LINE SMOOTH",
"225 367 OFFCURVE",
"206 368 OFFCURVE",
"186 369 CURVE",
"186 315 LINE",
"216 317 OFFCURVE",
"232 317 OFFCURVE",
"242 317 CURVE SMOOTH",
"352 317 LINE SMOOTH",
"378 317 OFFCURVE",
"398 315 OFFCURVE",
"403 312 CURVE",
"419 229 LINE"
);
}
);
width = 562;
},
{
anchors = (
{
name = bottom;
position = "{211, 0}";
},
{
name = top;
position = "{306, 671}";
}
);
background = {
anchors = (
{
name = bottom;
position = "{213, 0}";
},
{
name = top;
position = "{307, 671}";
}
);
paths = (
{
closed = 1;
nodes = (
"406 0 LINE",
"410 67 LINE",
"318 87 LINE",
"315 96 OFFCURVE",
"310 176 OFFCURVE",
"310 178 CURVE",
"309 457 LINE",
"309 591 OFFCURVE",
"307 573 OFFCURVE",
"309 590 CURVE",
"325 594 OFFCURVE",
"350 597 OFFCURVE",
"378 597 CURVE SMOOTH",
"439 597 LINE SMOOTH",
"457 597 OFFCURVE",
"471 595 OFFCURVE",
"496 591 CURVE",
"543 486 LINE",
"617 496 LINE",
"582 678 LINE",
"545 678 OFFCURVE",
"427 671 OFFCURVE",
"369 671 CURVE SMOOTH",
"41 671 LINE",
"37 606 LINE",
"112 585 LINE",
"115 577 OFFCURVE",
"120 488 OFFCURVE",
"120 393 CURVE",
"119 270 LINE",
"119 184 OFFCURVE",
"114 96 OFFCURVE",
"111 87 CURVE",
"40 65 LINE",
"45 0 LINE"
);
},
{
closed = 1;
nodes = (
"530 210 LINE",
"530 454 LINE",
"455 454 LINE",
"445 381 LINE",
"433 383 OFFCURVE",
"405 378 OFFCURVE",
"374 378 CURVE SMOOTH",
"327 378 LINE SMOOTH",
"296 378 OFFCURVE",
"270 382 OFFCURVE",
"255 383 CURVE",
"255 289 LINE",
"266 290 OFFCURVE",
"294 294 OFFCURVE",
"327 294 CURVE SMOOTH",
"374 294 LINE SMOOTH",
"391 294 OFFCURVE",
"419 293 OFFCURVE",
"445 290 CURVE",
"455 210 LINE"
);
}
);
};
color = -1;
layerId = "722FC537-28B1-4F35-B842-D78FAAB5B143";
paths = (
{
closed = 1;
nodes = (
"406 0 LINE",
"409 67 LINE",
"317 87 LINE",
"314 96 OFFCURVE",
"309 176 OFFCURVE",
"309 178 CURVE",
"307 457 LINE",
"307 591 OFFCURVE",
"306 573 OFFCURVE",
"307 590 CURVE",
"323 594 OFFCURVE",
"349 597 OFFCURVE",
"377 597 CURVE SMOOTH",
"438 597 LINE SMOOTH",
"456 597 OFFCURVE",
"470 595 OFFCURVE",
"495 591 CURVE",
"542 486 LINE",
"616 496 LINE",
"581 678 LINE",
"544 675 OFFCURVE",
"426 671 OFFCURVE",
"368 671 CURVE SMOOTH",
"40 671 LINE",
"37 606 LINE",
"111 585 LINE",
"114 577 OFFCURVE",
"119 488 OFFCURVE",
"119 393 CURVE",
"118 270 LINE",
"118 184 OFFCURVE",
"113 96 OFFCURVE",
"110 87 CURVE",
"39 65 LINE",
"42 0 LINE"
);
},
{
closed = 1;
nodes = (
"529 210 LINE",
"529 454 LINE",
"454 454 LINE",
"443 381 LINE",
"432 381 OFFCURVE",
"403 378 OFFCURVE",
"373 378 CURVE SMOOTH",
"326 378 LINE SMOOTH",
"295 378 OFFCURVE",
"269 382 OFFCURVE",
"254 383 CURVE",
"254 289 LINE",
"265 290 OFFCURVE",
"293 294 OFFCURVE",
"326 294 CURVE SMOOTH",
"373 294 LINE SMOOTH",
"390 294 OFFCURVE",
"418 293 OFFCURVE",
"443 290 CURVE",
"454 210 LINE"
);
}
);
width = 647;
},
{
anchors = (
{
name = bottom;
position = "{189, 0}";
},
{
name = top;
position = "{298, 671}";
}
);
color = -1;
layerId = "76B56D5A-2442-4808-93A9-707A1715678A";
paths = (
{
closed = 1;
nodes = (
"351 0 LINE",
"354 55 LINE",
"262 70 LINE",
"259 79 OFFCURVE",
"256 138 OFFCURVE",
"256 205 CURVE",
"255 461 LINE",
"255 558 OFFCURVE",
"255 590 OFFCURVE",
"256 603 CURVE",
"272 606 OFFCURVE",
"302 608 OFFCURVE",
"326 608 CURVE SMOOTH",
"426 608 LINE SMOOTH",
"443 608 OFFCURVE",
"458 607 OFFCURVE",
"474 603 CURVE",
"517 505 LINE",
"578 513 LINE",
"550 677 LINE",
"509 673 OFFCURVE",
"439 671 OFFCURVE",
"395 671 CURVE SMOOTH",
"48 671 LINE",
"45 618 LINE",
"117 600 LINE",
"119 592 OFFCURVE",
"122 528 OFFCURVE",
"122 434 CURVE",
"121 241 LINE",
"121 144 OFFCURVE",
"118 79 OFFCURVE",
"115 70 CURVE",
"48 53 LINE",
"51 0 LINE"
);
},
{
closed = 1;
nodes = (
"494 219 LINE",
"494 453 LINE",
"433 453 LINE",
"421 376 LINE",
"411 375 OFFCURVE",
"390 373 OFFCURVE",
"359 373 CURVE SMOOTH",
"283 373 LINE SMOOTH",
"259 373 OFFCURVE",
"235 375 OFFCURVE",
"219 376 CURVE",
"219 302 LINE",
"239 303 OFFCURVE",
"259 305 OFFCURVE",
"283 305 CURVE SMOOTH",
"359 305 LINE SMOOTH",
"385 305 OFFCURVE",
"406 304 OFFCURVE",
"421 301 CURVE",
"433 219 LINE"
);
}
);
width = 599;
}
);
leftKerningGroup = H;
note = F;
rightKerningGroup = F;
unicode = 0046;
},
{
glyphname = G;
lastChange = "2020-06-19 11:48:22 +0000";
layers = (
{
anchors = (
{
name = bottom;
position = "{403, 0}";
},
{
name = top;
position = "{403, 671}";
}
);
background = {
anchors = (
{
name = bottom;
position = "{403, 0}";
},
{
name = top;
position = "{403, 671}";
}
);
paths = (
{
closed = 1;
nodes = (
"500 -10 OFFCURVE",
"593 15 OFFCURVE",
"649 53 CURVE",
"647 86 OFFCURVE",
"645 119 OFFCURVE",
"645 188 CURVE SMOOTH",
"645 232 OFFCURVE",
"646 258 OFFCURVE",
"646 265 CURVE",
"693 276 LINE",
"691 313 LINE",
"499 313 LINE",
"497 274 LINE",
"573 264 LINE",
"575 245 OFFCURVE",
"577 204 OFFCURVE",
"577 146 CURVE SMOOTH",
"577 27 LINE",
"608 92 LINE",
"559 55 OFFCURVE",
"489 40 OFFCURVE",
"436 40 CURVE SMOOTH",
"273 40 OFFCURVE",
"153 146 OFFCURVE",
"153 350 CURVE SMOOTH",
"153 494 OFFCURVE",
"227 631 OFFCURVE",
"423 631 CURVE SMOOTH",
"472 631 OFFCURVE",
"534 620 OFFCURVE",
"561 598 CURVE",
"593 498 LINE",
"635 503 LINE",
"626 647 LINE",
"570 670 OFFCURVE",
"491 681 OFFCURVE",
"432 681 CURVE SMOOTH",
"188 681 OFFCURVE",
"63 509 OFFCURVE",
"63 333 CURVE SMOOTH",
"63 102 OFFCURVE",
"229 -10 OFFCURVE",
"431 -10 CURVE SMOOTH"
);
}
);
};
color = -1;
layerId = "1F9E295B-DEDB-4635-AE01-A776835412CD";
paths = (
{
closed = 1;
nodes = (
"501 -10 OFFCURVE",
"593 15 OFFCURVE",
"649 53 CURVE",
"647 86 OFFCURVE",
"646 119 OFFCURVE",
"646 187 CURVE SMOOTH",
"646 232 OFFCURVE",
"646 258 OFFCURVE",
"646 265 CURVE",
"694 277 LINE",
"691 313 LINE",
"499 313 LINE",
"497 274 LINE",
"573 264 LINE",
"575 245 OFFCURVE",
"577 203 OFFCURVE",
"577 146 CURVE SMOOTH",
"577 26 LINE",
"608 91 LINE",
"559 55 OFFCURVE",
"489 40 OFFCURVE",
"435 40 CURVE SMOOTH",
"273 40 OFFCURVE",
"152 146 OFFCURVE",
"152 350 CURVE SMOOTH",
"152 494 OFFCURVE",
"226 631 OFFCURVE",
"423 631 CURVE SMOOTH",
"472 631 OFFCURVE",
"534 621 OFFCURVE",
"561 598 CURVE",
"593 498 LINE",
"634 504 LINE",
"625 647 LINE",
"570 670 OFFCURVE",
"491 681 OFFCURVE",
"432 681 CURVE SMOOTH",
"189 681 OFFCURVE",
"63 510 OFFCURVE",
"63 334 CURVE SMOOTH",
"63 102 OFFCURVE",
"229 -10 OFFCURVE",
"431 -10 CURVE SMOOTH"
);
}
);
width = 736;
},
{
anchors = (
{
name = bottom;
position = "{403, 0}";
},
{
name = top;
position = "{403, 671}";
}
);
background = {
anchors = (
{
name = bottom;
position = "{405, 0}";
},
{
name = top;
position = "{405, 671}";
}
);
paths = (
{
closed = 1;
nodes = (
"513 -10 OFFCURVE",
"601 8 OFFCURVE",
"671 50 CURVE",
"669 114 OFFCURVE",
"667 143 OFFCURVE",
"667 142 CURVE SMOOTH",
"667 171 OFFCURVE",
"665 218 OFFCURVE",
"671 230 CURVE",
"731 253 LINE",
"727 318 LINE",
"398 318 LINE",
"393 250 LINE",
"477 229 LINE",
"479 208 OFFCURVE",
"482 167 OFFCURVE",
"482 146 CURVE SMOOTH",
"482 24 LINE",
"497 85 LINE",
"483 83 OFFCURVE",
"471 80 OFFCURVE",
"465 80 CURVE SMOOTH",
"358 80 OFFCURVE",
"270 187 OFFCURVE",
"270 353 CURVE SMOOTH",
"270 513 OFFCURVE",
"346 594 OFFCURVE",
"454 594 CURVE SMOOTH",
"471 594 OFFCURVE",
"499 592 OFFCURVE",
"537 577 CURVE",
"575 469 LINE",
"659 471 LINE",
"655 640 LINE",
"613 663 OFFCURVE",
"538 681 OFFCURVE",
"467 681 CURVE SMOOTH",
"235 681 OFFCURVE",
"48 561 OFFCURVE",
"48 314 CURVE SMOOTH",
"48 115 OFFCURVE",
"198 -10 OFFCURVE",
"425 -10 CURVE SMOOTH"
);
}
);
};
color = -1;
layerId = "722FC537-28B1-4F35-B842-D78FAAB5B143";
paths = (
{
closed = 1;
nodes = (
"512 -10 OFFCURVE",
"600 8 OFFCURVE",
"670 50 CURVE",
"667 91 OFFCURVE",
"666 127 OFFCURVE",
"666 142 CURVE SMOOTH",
"666 170 OFFCURVE",
"665 207 OFFCURVE",
"667 230 CURVE",
"728 253 LINE",
"725 318 LINE",
"395 318 LINE",
"392 250 LINE",
"475 229 LINE",
"478 208 OFFCURVE",
"481 167 OFFCURVE",
"481 146 CURVE SMOOTH",
"481 24 LINE",
"507 85 LINE",
"494 82 OFFCURVE",
"473 80 OFFCURVE",
"464 80 CURVE SMOOTH",
"357 80 OFFCURVE",
"269 187 OFFCURVE",
"269 353 CURVE SMOOTH",
"269 513 OFFCURVE",
"345 594 OFFCURVE",
"453 594 CURVE SMOOTH",
"479 594 OFFCURVE",
"507 591 OFFCURVE",
"536 577 CURVE",
"574 469 LINE",
"658 471 LINE",
"654 640 LINE",
"611 663 OFFCURVE",
"537 681 OFFCURVE",
"464 681 CURVE SMOOTH",
"234 681 OFFCURVE",
"47 561 OFFCURVE",
"47 314 CURVE SMOOTH",
"47 115 OFFCURVE",
"197 -10 OFFCURVE",
"424 -10 CURVE SMOOTH"
);
}
);
width = 768;
},
{
anchors = (
{
name = bottom;
position = "{400, 0}";
},
{
name = top;
position = "{400, 671}";
}
);
color = -1;
layerId = "76B56D5A-2442-4808-93A9-707A1715678A";
paths = (
{
closed = 1;
nodes = (
"504 -10 OFFCURVE",
"593 11 OFFCURVE",
"657 51 CURVE",
"655 99 OFFCURVE",
"654 131 OFFCURVE",
"654 162 CURVE SMOOTH",
"654 200 OFFCURVE",
"653 237 OFFCURVE",
"654 247 CURVE",
"709 263 LINE",
"705 315 LINE",
"441 315 LINE",
"438 261 LINE",
"518 246 LINE",
"520 225 OFFCURVE",
"522 184 OFFCURVE",
"522 146 CURVE SMOOTH",
"522 25 LINE",
"545 88 LINE",
"515 69 OFFCURVE",
"475 61 OFFCURVE",
"447 61 CURVE SMOOTH",
"315 61 OFFCURVE",
"213 168 OFFCURVE",
"213 352 CURVE SMOOTH",
"213 504 OFFCURVE",
"287 611 OFFCURVE",
"435 611 CURVE SMOOTH",
"469 611 OFFCURVE",
"513 605 OFFCURVE",
"544 586 CURVE",
"579 482 LINE",
"643 486 LINE",
"638 643 LINE",
"590 666 OFFCURVE",
"513 681 OFFCURVE",
"447 681 CURVE SMOOTH",
"210 681 OFFCURVE",
"51 537 OFFCURVE",
"51 323 CURVE SMOOTH",
"51 109 OFFCURVE",
"208 -10 OFFCURVE",
"424 -10 CURVE SMOOTH"
);
}
);
width = 747;
}
);
leftKerningGroup = O;
note = G;
rightKerningGroup = G;
unicode = 0047;
},
{
glyphname = H;
lastChange = "2020-06-19 11:48:22 +0000";
layers = (
{
anchors = (
{
name = bottom;
position = "{377, 0}";
},
{
name = center;
position = "{377, 496}";
},
{
name = top;
position = "{377, 671}";
},
{
name = topleft;
position = "{29, 671}";
}
);
background = {
anchors = (
{
name = bottom;
position = "{378, 0}";
},
{
name = center;
position = "{378, 496}";
},
{
name = top;
position = "{378, 671}";
},
{
name = topleft;
position = "{29, 671}";
}
);
paths = (
{
closed = 1;
nodes = (
"694 0 LINE",
"695 37 LINE",
"627 51 LINE",
"621 60 OFFCURVE",
"620 91 OFFCURVE",
"620 216 CURVE SMOOTH",
"620 453 LINE SMOOTH",
"620 580 OFFCURVE",
"621 612 OFFCURVE",
"627 619 CURVE",
"695 634 LINE",
"694 671 LINE",
"475 671 LINE",
"473 634 LINE",
"542 619 LINE",
"549 612 OFFCURVE",
"550 576 OFFCURVE",
"550 453 CURVE SMOOTH",
"550 216 LINE SMOOTH",
"550 96 OFFCURVE",
"549 60 OFFCURVE",
"542 51 CURVE",
"473 37 LINE",
"475 0 LINE"
);
},
{
closed = 1;
nodes = (
"279 0 LINE",
"281 37 LINE",
"211 51 LINE",
"205 60 OFFCURVE",
"203 96 OFFCURVE",
"203 216 CURVE SMOOTH",
"203 453 LINE SMOOTH",
"203 576 OFFCURVE",
"205 612 OFFCURVE",
"211 619 CURVE",
"281 634 LINE",
"279 671 LINE",
"61 671 LINE",
"59 634 LINE",
"128 619 LINE",
"132 609 OFFCURVE",
"134 561 OFFCURVE",
"134 453 CURVE SMOOTH",
"134 216 LINE SMOOTH",
"134 111 OFFCURVE",
"132 62 OFFCURVE",
"128 51 CURVE",
"59 37 LINE",
"61 0 LINE"
);
},
{
closed = 1;
nodes = (
"233 321 OFFCURVE",
"286 321 OFFCURVE",
"378 321 CURVE SMOOTH",
"470 321 OFFCURVE",
"518 321 OFFCURVE",
"555 317 CURVE",
"555 375 LINE",
"529 373 OFFCURVE",
"467 372 OFFCURVE",
"378 372 CURVE SMOOTH",
"288 372 OFFCURVE",
"225 373 OFFCURVE",
"199 375 CURVE",
"199 317 LINE"
);
}
);
};
color = -1;
layerId = "1F9E295B-DEDB-4635-AE01-A776835412CD";
paths = (
{
closed = 1;
nodes = (
"693 0 LINE",
"695 37 LINE",
"625 51 LINE",
"621 59 OFFCURVE",
"619 91 OFFCURVE",
"619 216 CURVE SMOOTH",
"619 454 LINE SMOOTH",
"619 581 OFFCURVE",
"621 611 OFFCURVE",
"625 619 CURVE",
"695 634 LINE",
"693 671 LINE",
"477 671 LINE",
"474 634 LINE",
"544 619 LINE",
"547 611 OFFCURVE",
"550 576 OFFCURVE",
"550 454 CURVE SMOOTH",
"550 216 LINE SMOOTH",
"550 96 OFFCURVE",
"547 59 OFFCURVE",
"544 51 CURVE",
"474 37 LINE",
"477 0 LINE"
);
},
{
closed = 1;
nodes = (
"277 0 LINE",
"279 37 LINE",
"209 51 LINE",
"206 59 OFFCURVE",
"203 96 OFFCURVE",
"203 216 CURVE SMOOTH",
"203 454 LINE SMOOTH",
"203 576 OFFCURVE",
"206 611 OFFCURVE",
"209 619 CURVE",
"279 634 LINE",
"277 671 LINE",
"63 671 LINE",
"61 634 LINE",
"130 619 LINE",
"133 609 OFFCURVE",
"134 560 OFFCURVE",
"134 454 CURVE SMOOTH",
"134 216 LINE SMOOTH",
"134 111 OFFCURVE",
"133 63 OFFCURVE",
"130 51 CURVE",
"61 37 LINE",
"63 0 LINE"
);
},
{
closed = 1;
nodes = (
"229 321 OFFCURVE",
"286 321 OFFCURVE",
"378 321 CURVE SMOOTH",
"469 321 OFFCURVE",
"521 321 OFFCURVE",
"558 317 CURVE",
"558 375 LINE",
"533 373 OFFCURVE",
"466 371 OFFCURVE",
"378 371 CURVE SMOOTH",
"288 371 OFFCURVE",
"221 373 OFFCURVE",
"194 375 CURVE",
"194 317 LINE"
);
}
);
width = 753;
},
{
anchors = (
{
name = bottom;
position = "{415, 0}";
},
{
name = center;
position = "{415, 496}";
},
{
name = top;
position = "{415, 671}";
},
{
name = topleft;
position = "{38, 671}";
}
);
background = {
anchors = (
{
name = bottom;
position = "{416, 0}";
},
{
name = center;
position = "{416, 496}";
},
{
name = top;
position = "{416, 671}";
},
{
name = topleft;
position = "{39, 671}";
}
);
paths = (
{
closed = 1;
nodes = (
"794 0 LINE",
"799 65 LINE",
"723 87 LINE",
"720 99 OFFCURVE",
"714 208 OFFCURVE",
"714 267 CURVE SMOOTH",
"714 405 LINE SMOOTH",
"714 466 OFFCURVE",
"720 575 OFFCURVE",
"723 586 CURVE",
"799 606 LINE",
"794 671 LINE",
"448 671 LINE",
"443 606 LINE",
"515 586 LINE",
"519 575 OFFCURVE",
"523 482 OFFCURVE",
"523 405 CURVE SMOOTH",
"523 267 LINE SMOOTH",
"523 191 OFFCURVE",
"519 99 OFFCURVE",
"515 87 CURVE",
"443 65 LINE",
"448 0 LINE"
);
},
{
closed = 1;
nodes = (
"385 0 LINE",
"389 65 LINE",
"318 87 LINE",
"313 99 OFFCURVE",
"310 191 OFFCURVE",
"310 267 CURVE SMOOTH",
"310 405 LINE SMOOTH",
"310 482 OFFCURVE",
"313 575 OFFCURVE",
"318 586 CURVE",
"389 606 LINE",
"385 671 LINE",
"39 671 LINE",
"35 606 LINE",
"110 586 LINE",
"114 579 OFFCURVE",
"119 493 OFFCURVE",
"119 405 CURVE SMOOTH",
"119 267 LINE SMOOTH",
"119 181 OFFCURVE",
"114 95 OFFCURVE",
"110 87 CURVE",
"35 65 LINE",
"39 0 LINE"
);
},
{
closed = 1;
nodes = (
"306 291 OFFCURVE",
"347 296 OFFCURVE",
"416 296 CURVE SMOOTH",
"485 296 OFFCURVE",
"528 291 OFFCURVE",
"558 291 CURVE",
"558 391 LINE",
"515 386 OFFCURVE",
"480 385 OFFCURVE",
"416 385 CURVE SMOOTH",
"352 385 OFFCURVE",
"317 386 OFFCURVE",
"274 391 CURVE",
"274 291 LINE"
);
}
);
};
color = -1;
layerId = "722FC537-28B1-4F35-B842-D78FAAB5B143";
paths = (
{
closed = 1;
nodes = (
"793 0 LINE",
"797 65 LINE",
"722 87 LINE",
"719 99 OFFCURVE",
"713 208 OFFCURVE",
"713 267 CURVE SMOOTH",
"713 405 LINE SMOOTH",
"713 466 OFFCURVE",
"719 575 OFFCURVE",
"722 586 CURVE",
"797 606 LINE",
"793 671 LINE",
"447 671 LINE",
"443 606 LINE",
"514 586 LINE",
"518 575 OFFCURVE",
"522 482 OFFCURVE",
"522 405 CURVE SMOOTH",
"522 267 LINE SMOOTH",
"522 191 OFFCURVE",
"518 99 OFFCURVE",
"514 87 CURVE",
"443 65 LINE",
"447 0 LINE"
);
},
{
closed = 1;
nodes = (
"384 0 LINE",
"387 65 LINE",
"317 87 LINE",
"312 99 OFFCURVE",
"309 191 OFFCURVE",
"309 267 CURVE SMOOTH",
"309 405 LINE SMOOTH",
"309 482 OFFCURVE",
"312 575 OFFCURVE",
"317 586 CURVE",
"387 606 LINE",
"384 671 LINE",
"38 671 LINE",
"34 606 LINE",
"109 586 LINE",
"113 579 OFFCURVE",
"118 493 OFFCURVE",
"118 405 CURVE SMOOTH",
"118 267 LINE SMOOTH",
"118 181 OFFCURVE",
"113 95 OFFCURVE",
"109 87 CURVE",
"34 65 LINE",
"38 0 LINE"
);
},
{
closed = 1;
nodes = (
"305 291 OFFCURVE",
"346 296 OFFCURVE",
"415 296 CURVE SMOOTH",
"483 296 OFFCURVE",
"527 291 OFFCURVE",
"557 291 CURVE",
"557 391 LINE",
"514 386 OFFCURVE",
"479 385 OFFCURVE",
"415 385 CURVE SMOOTH",
"351 385 OFFCURVE",
"315 386 OFFCURVE",
"273 391 CURVE",
"273 291 LINE"
);
}
);
width = 832;
},
{
anchors = (
{
name = bottom;
position = "{394, 0}";
},
{
name = center;
position = "{394, 496}";
},
{
name = top;
position = "{394, 671}";
},
{
name = topleft;
position = "{30, 671}";
}
);
color = -1;
layerId = "76B56D5A-2442-4808-93A9-707A1715678A";
paths = (
{
closed = 1;
nodes = (
"742 0 LINE",
"745 53 LINE",
"674 70 LINE",
"670 80 OFFCURVE",
"666 154 OFFCURVE",
"666 243 CURVE SMOOTH",
"666 426 LINE SMOOTH",
"666 519 OFFCURVE",
"670 592 OFFCURVE",
"674 601 CURVE",
"745 618 LINE",
"742 671 LINE",
"456 671 LINE",
"453 618 LINE",
"523 601 LINE",
"528 592 OFFCURVE",
"530 526 OFFCURVE",
"530 426 CURVE SMOOTH",
"530 243 LINE SMOOTH",
"530 147 OFFCURVE",
"528 80 OFFCURVE",
"523 70 CURVE",
"453 53 LINE",
"456 0 LINE"
);
},
{
closed = 1;
nodes = (
"330 0 LINE",
"334 53 LINE",
"263 70 LINE",
"258 80 OFFCURVE",
"256 147 OFFCURVE",
"256 243 CURVE SMOOTH",
"256 426 LINE SMOOTH",
"256 526 OFFCURVE",
"258 592 OFFCURVE",
"263 601 CURVE",
"334 618 LINE",
"330 671 LINE",
"46 671 LINE",
"42 618 LINE",
"114 601 LINE",
"118 593 OFFCURVE",
"121 525 OFFCURVE",
"121 426 CURVE SMOOTH",
"121 243 LINE SMOOTH",
"121 149 OFFCURVE",
"118 80 OFFCURVE",
"114 70 CURVE",
"42 53 LINE",
"46 0 LINE"
);
},
{
closed = 1;
nodes = (
"267 305 OFFCURVE",
"313 307 OFFCURVE",
"394 307 CURVE SMOOTH",
"473 307 OFFCURVE",
"519 305 OFFCURVE",
"551 303 CURVE",
"551 384 LINE",
"518 379 OFFCURVE",
"470 378 OFFCURVE",
"394 378 CURVE SMOOTH",
"318 378 OFFCURVE",
"269 379 OFFCURVE",
"235 384 CURVE",
"235 303 LINE"
);
}
);
width = 787;
}
);
leftKerningGroup = H;
note = H;
rightKerningGroup = H;
unicode = 0048;
},
{
glyphname = I;
lastChange = "2020-06-19 11:48:22 +0000";
layers = (
{
anchors = (
{
name = bottom;
position = "{169, 0}";
},
{
name = ogonek;
position = "{225, 0}";
},
{
name = top;
position = "{169, 671}";
},
{
name = topleft;
position = "{29, 671}";
}
);
background = {
anchors = (
{
name = bottom;
position = "{169, 0}";
},
{
name = ogonek;
position = "{225, 0}";
},
{
name = top;
position = "{169, 671}";
},
{
name = topleft;
position = "{29, 671}";
}
);
paths = (
{
closed = 1;
nodes = (
"278 0 LINE",
"280 37 LINE",
"211 51 LINE",
"205 60 OFFCURVE",
"203 96 OFFCURVE",
"203 216 CURVE SMOOTH",
"203 453 LINE SMOOTH",
"203 576 OFFCURVE",
"205 612 OFFCURVE",
"211 619 CURVE",
"280 634 LINE",
"278 671 LINE",
"61 671 LINE",
"59 634 LINE",
"128 619 LINE",
"132 609 OFFCURVE",
"134 561 OFFCURVE",
"134 453 CURVE SMOOTH",
"134 216 LINE SMOOTH",
"134 111 OFFCURVE",
"132 62 OFFCURVE",
"128 51 CURVE",
"59 37 LINE",
"61 0 LINE"
);
}
);
};
color = -1;
layerId = "1F9E295B-DEDB-4635-AE01-A776835412CD";
paths = (
{
closed = 1;
nodes = (
"275 0 LINE",
"278 37 LINE",
"209 51 LINE",
"206 59 OFFCURVE",
"203 96 OFFCURVE",
"203 216 CURVE SMOOTH",
"203 454 LINE SMOOTH",
"203 576 OFFCURVE",
"206 611 OFFCURVE",
"209 619 CURVE",
"278 634 LINE",
"275 671 LINE",
"64 671 LINE",
"62 634 LINE",
"130 619 LINE",
"133 609 OFFCURVE",
"134 560 OFFCURVE",
"134 454 CURVE SMOOTH",
"134 216 LINE SMOOTH",
"134 111 OFFCURVE",
"133 63 OFFCURVE",
"130 51 CURVE",
"62 37 LINE",
"64 0 LINE"
);
}
);
width = 337;
},
{
anchors = (
{
name = bottom;
position = "{214, 0}";
},
{
name = ogonek;
position = "{309, 0}";
},
{
name = top;
position = "{214, 671}";
},
{
name = topleft;
position = "{38, 671}";
}
);
background = {
anchors = (
{
name = bottom;
position = "{215, 0}";
},
{
name = ogonek;
position = "{310, 0}";
},
{
name = top;
position = "{215, 671}";
},
{
name = topleft;
position = "{39, 671}";
}
);
paths = (
{
closed = 1;
nodes = (
"389 0 LINE",
"392 65 LINE",
"318 87 LINE",
"313 99 OFFCURVE",
"310 191 OFFCURVE",
"310 267 CURVE SMOOTH",
"310 405 LINE SMOOTH",
"310 482 OFFCURVE",
"313 575 OFFCURVE",
"318 586 CURVE",
"392 606 LINE",
"389 671 LINE",
"39 671 LINE",
"35 606 LINE",
"110 586 LINE",
"114 579 OFFCURVE",
"119 493 OFFCURVE",
"119 405 CURVE SMOOTH",
"119 267 LINE SMOOTH",
"119 181 OFFCURVE",
"114 95 OFFCURVE",
"110 87 CURVE",
"35 65 LINE",
"39 0 LINE"
);
}
);
};
color = -1;
layerId = "722FC537-28B1-4F35-B842-D78FAAB5B143";
paths = (
{
closed = 1;
nodes = (
"387 0 LINE",
"391 65 LINE",
"317 87 LINE",
"312 99 OFFCURVE",
"309 191 OFFCURVE",
"309 267 CURVE SMOOTH",
"309 405 LINE SMOOTH",
"309 482 OFFCURVE",
"312 575 OFFCURVE",
"317 586 CURVE",
"391 606 LINE",
"387 671 LINE",
"38 671 LINE",
"34 606 LINE",
"109 586 LINE",
"113 579 OFFCURVE",
"118 493 OFFCURVE",
"118 405 CURVE SMOOTH",
"118 267 LINE SMOOTH",
"118 181 OFFCURVE",
"113 95 OFFCURVE",
"109 87 CURVE",
"34 65 LINE",
"38 0 LINE"
);
}
);
width = 427;
},
{
anchors = (
{
name = bottom;
position = "{189, 0}";
},
{
name = ogonek;
position = "{266, 0}";
},
{
name = top;
position = "{189, 671}";
},
{
name = topleft;
position = "{30, 671}";
}
);
color = -1;
layerId = "76B56D5A-2442-4808-93A9-707A1715678A";
paths = (
{
closed = 1;
nodes = (
"331 0 LINE",
"335 53 LINE",
"263 70 LINE",
"258 80 OFFCURVE",
"256 147 OFFCURVE",
"256 243 CURVE SMOOTH",
"256 426 LINE SMOOTH",
"256 526 OFFCURVE",
"258 592 OFFCURVE",
"263 601 CURVE",
"335 618 LINE",
"331 671 LINE",
"46 671 LINE",
"42 618 LINE",
"114 601 LINE",
"118 593 OFFCURVE",
"121 525 OFFCURVE",
"121 426 CURVE SMOOTH",
"121 243 LINE SMOOTH",
"121 149 OFFCURVE",
"118 80 OFFCURVE",
"114 70 CURVE",
"42 53 LINE",
"46 0 LINE"
);
}
);
width = 377;
}
);
leftKerningGroup = H;
note = I;
rightKerningGroup = H;
unicode = 0049;
},
{
glyphname = Iogonek;
lastChange = "2020-06-19 11:48:22 +0000";
layers = (
{
anchors = (
{
name = top;
position = "{169, 671}";
},
{
name = topleft;
position = "{29, 671}";
}
);
background = {
anchors = (
{
name = top;
position = "{169, 671}";
},
{
name = topleft;
position = "{29, 671}";
}
);
paths = (
{
closed = 1;
nodes = (
"661 454 LINE SMOOTH",
"661 574 OFFCURVE",
"662 610 OFFCURVE",
"669 618 CURVE",
"736 634 LINE",
"735 671 LINE",
"518 671 LINE",
"517 634 LINE",
"584 618 LINE",
"589 608 OFFCURVE",
"591 559 OFFCURVE",
"591 454 CURVE SMOOTH",
"591 216 LINE SMOOTH",
"591 112 OFFCURVE",
"589 63 OFFCURVE",
"584 51 CURVE",
"517 37 LINE",
"518 0 LINE",
"670 0 LINE",
"659 11 LINE",
"568 -6 OFFCURVE",
"506 -67 OFFCURVE",
"506 -144 CURVE SMOOTH",
"506 -207 OFFCURVE",
"559 -255 OFFCURVE",
"630 -255 CURVE SMOOTH",
"669 -255 OFFCURVE",
"709 -234 OFFCURVE",
"736 -198 CURVE",
"711 -175 LINE",
"686 -202 OFFCURVE",
"664 -214 OFFCURVE",
"639 -214 CURVE SMOOTH",
"594 -214 OFFCURVE",
"573 -186 OFFCURVE",
"573 -135 CURVE SMOOTH",
"573 -58 OFFCURVE",
"642 0 OFFCURVE",
"735 0 CURVE",
"736 37 LINE",
"669 51 LINE",
"662 59 OFFCURVE",
"661 98 OFFCURVE",
"661 216 CURVE SMOOTH"
);
},
{
closed = 1;
nodes = (
"275 0 LINE",
"278 37 LINE",
"209 51 LINE",
"206 59 OFFCURVE",
"203 96 OFFCURVE",
"203 216 CURVE SMOOTH",
"203 454 LINE SMOOTH",
"203 576 OFFCURVE",
"206 611 OFFCURVE",
"209 619 CURVE",
"278 634 LINE",
"275 671 LINE",
"64 671 LINE",
"62 634 LINE",
"130 619 LINE",
"133 609 OFFCURVE",
"134 560 OFFCURVE",
"134 454 CURVE SMOOTH",
"134 216 LINE SMOOTH",
"134 111 OFFCURVE",
"133 63 OFFCURVE",
"130 51 CURVE",
"62 37 LINE",
"64 0 LINE"
);
}
);
};
color = -1;
layerId = "1F9E295B-DEDB-4635-AE01-A776835412CD";
paths = (
{
closed = 1;
nodes = (
"203 454 LINE SMOOTH",
"203 574 OFFCURVE",
"206 611 OFFCURVE",
"209 619 CURVE",
"278 634 LINE",
"275 671 LINE",
"64 671 LINE",
"62 634 LINE",
"130 619 LINE",
"133 609 OFFCURVE",
"134 559 OFFCURVE",
"134 454 CURVE SMOOTH",
"134 216 LINE SMOOTH",
"134 112 OFFCURVE",
"133 63 OFFCURVE",
"130 51 CURVE",
"62 37 LINE",
"64 0 LINE",
"213 0 LINE",
"202 11 LINE",
"111 -6 OFFCURVE",
"49 -67 OFFCURVE",
"49 -144 CURVE SMOOTH",
"49 -207 OFFCURVE",
"102 -255 OFFCURVE",
"173 -255 CURVE SMOOTH",
"211 -255 OFFCURVE",
"251 -234 OFFCURVE",
"279 -198 CURVE",
"254 -175 LINE",
"229 -202 OFFCURVE",
"207 -214 OFFCURVE",
"182 -214 CURVE SMOOTH",
"137 -214 OFFCURVE",
"115 -186 OFFCURVE",
"115 -135 CURVE SMOOTH",
"115 -58 OFFCURVE",
"185 0 OFFCURVE",
"275 0 CURVE",
"278 37 LINE",
"211 51 LINE",
"205 59 OFFCURVE",
"203 98 OFFCURVE",
"203 216 CURVE SMOOTH"
);
}
);
width = 337;
},
{
anchors = (
{
name = top;
position = "{214, 671}";
},
{
name = topleft;
position = "{39, 671}";
}
);
background = {
anchors = (
{
name = top;
position = "{901, 671}";
},
{
name = topleft;
position = "{726, 671}";
}
);
paths = (
{
closed = 1;
nodes = (
"995 405 LINE SMOOTH",
"995 479 OFFCURVE",
"1000 574 OFFCURVE",
"1003 585 CURVE",
"1079 606 LINE",
"1074 671 LINE",
"726 671 LINE",
"721 606 LINE",
"797 585 LINE",
"801 578 OFFCURVE",
"805 494 OFFCURVE",
"805 405 CURVE SMOOTH",
"805 267 LINE SMOOTH",
"805 179 OFFCURVE",
"801 95 OFFCURVE",
"797 87 CURVE",
"721 65 LINE",
"726 0 LINE",
"944 0 LINE",
"958 18 LINE",
"821 -13 OFFCURVE",
"744 -67 OFFCURVE",
"744 -137 CURVE SMOOTH",
"744 -207 OFFCURVE",
"811 -255 OFFCURVE",
"903 -255 CURVE SMOOTH",
"960 -255 OFFCURVE",
"1007 -237 OFFCURVE",
"1043 -198 CURVE",
"1009 -145 LINE",
"986 -169 OFFCURVE",
"958 -184 OFFCURVE",
"933 -184 CURVE SMOOTH",
"897 -184 OFFCURVE",
"873 -158 OFFCURVE",
"873 -121 CURVE SMOOTH",
"873 -58 OFFCURVE",
"969 0 OFFCURVE",
"1074 0 CURVE",
"1079 65 LINE",
"1003 87 LINE",
"1000 99 OFFCURVE",
"995 195 OFFCURVE",
"995 267 CURVE SMOOTH"
);
},
{
closed = 1;
nodes = (
"389 0 LINE",
"392 65 LINE",
"318 87 LINE",
"313 99 OFFCURVE",
"310 191 OFFCURVE",
"310 267 CURVE SMOOTH",
"310 405 LINE SMOOTH",
"310 482 OFFCURVE",
"313 575 OFFCURVE",
"318 586 CURVE",
"392 606 LINE",
"389 671 LINE",
"39 671 LINE",
"35 606 LINE",
"110 586 LINE",
"114 579 OFFCURVE",
"119 493 OFFCURVE",
"119 405 CURVE SMOOTH",
"119 267 LINE SMOOTH",
"119 181 OFFCURVE",
"114 95 OFFCURVE",
"110 87 CURVE",
"35 65 LINE",
"39 0 LINE"
);
}
);
};
color = -1;
layerId = "722FC537-28B1-4F35-B842-D78FAAB5B143";
paths = (
{
closed = 1;
nodes = (
"309 405 LINE SMOOTH",
"309 479 OFFCURVE",
"313 575 OFFCURVE",
"317 586 CURVE",
"391 606 LINE",
"387 671 LINE",
"38 671 LINE",
"34 606 LINE",
"109 586 LINE",
"113 579 OFFCURVE",
"118 494 OFFCURVE",
"118 405 CURVE SMOOTH",
"118 267 LINE SMOOTH",
"118 179 OFFCURVE",
"113 95 OFFCURVE",
"109 87 CURVE",
"34 65 LINE",
"38 0 LINE",
"257 0 LINE",
"271 18 LINE",
"134 -13 OFFCURVE",
"57 -67 OFFCURVE",
"57 -137 CURVE SMOOTH",
"57 -207 OFFCURVE",
"125 -255 OFFCURVE",
"216 -255 CURVE SMOOTH",
"273 -255 OFFCURVE",
"320 -237 OFFCURVE",
"357 -198 CURVE",
"322 -145 LINE",
"299 -169 OFFCURVE",
"271 -184 OFFCURVE",
"246 -184 CURVE SMOOTH",
"210 -184 OFFCURVE",
"186 -158 OFFCURVE",
"186 -121 CURVE SMOOTH",
"186 -58 OFFCURVE",
"282 0 OFFCURVE",
"387 0 CURVE",
"391 65 LINE",
"317 87 LINE",
"313 99 OFFCURVE",
"309 195 OFFCURVE",
"309 267 CURVE SMOOTH"
);
}
);
width = 427;
},
{
anchors = (
{
name = top;
position = "{190, 671}";
},
{
name = topleft;
position = "{31, 671}";
}
);
background = {
paths = (
{
closed = 1;
nodes = (
"330 0 LINE",
"334 53 LINE",
"263 70 LINE",
"258 80 OFFCURVE",
"256 147 OFFCURVE",
"256 243 CURVE SMOOTH",
"256 426 LINE SMOOTH",
"256 526 OFFCURVE",
"258 592 OFFCURVE",
"263 601 CURVE",
"334 618 LINE",
"330 671 LINE",
"46 671 LINE",
"42 618 LINE",
"114 601 LINE",
"118 593 OFFCURVE",
"121 525 OFFCURVE",
"121 426 CURVE SMOOTH",
"121 243 LINE SMOOTH",
"121 149 OFFCURVE",
"118 80 OFFCURVE",
"114 70 CURVE",
"42 53 LINE",
"46 0 LINE"
);
}
);
};
color = -1;
layerId = "76B56D5A-2442-4808-93A9-707A1715678A";
paths = (
{
closed = 1;
nodes = (
"256 426 LINE SMOOTH",
"256 522 OFFCURVE",
"258 592 OFFCURVE",
"263 601 CURVE",
"335 618 LINE",
"331 671 LINE",
"46 671 LINE",
"42 618 LINE",
"114 601 LINE",
"118 593 OFFCURVE",
"121 525 OFFCURVE",
"121 426 CURVE SMOOTH",
"121 243 LINE SMOOTH",
"121 147 OFFCURVE",
"118 80 OFFCURVE",
"114 70 CURVE",
"42 53 LINE",
"46 0 LINE",
"233 0 LINE",
"237 15 LINE",
"119 -9 OFFCURVE",
"49 -67 OFFCURVE",
"49 -141 CURVE SMOOTH",
"49 -207 OFFCURVE",
"110 -255 OFFCURVE",
"192 -255 CURVE SMOOTH",
"241 -255 OFFCURVE",
"286 -235 OFFCURVE",
"318 -198 CURVE",
"288 -159 LINE",
"263 -184 OFFCURVE",
"237 -198 OFFCURVE",
"211 -198 CURVE SMOOTH",
"174 -198 OFFCURVE",
"150 -170 OFFCURVE",
"150 -128 CURVE SMOOTH",
"150 -58 OFFCURVE",
"233 0 OFFCURVE",
"331 0 CURVE",
"335 53 LINE",
"263 70 LINE",
"258 80 OFFCURVE",
"256 150 OFFCURVE",
"256 243 CURVE SMOOTH"
);
}
);
width = 377;
}
);
leftKerningGroup = H;
widthMetricsKey = I;
note = Iogonek;
rightKerningGroup = H;
unicode = 012E;
},
{
glyphname = J;
lastChange = "2020-06-19 11:48:22 +0000";
layers = (
{
anchors = (
{
name = top;
position = "{169, 671}";
}
);
background = {
anchors = (
{
name = top;
position = "{169, 671}";
}
);
paths = (
{
closed = 1;
nodes = (
"280 634 LINE",
"278 671 LINE",
"53 671 LINE",
"51 634 LINE",
"128 618 LINE",
"132 606 OFFCURVE",
"134 558 OFFCURVE",
"134 451 CURVE",
"132 -34 LINE",
"132 -149 OFFCURVE",
"97 -204 OFFCURVE",
"29 -191 CURVE",
"57 -201 LINE",
"8 -149 LINE SMOOTH",
"-9 -132 OFFCURVE",
"-25 -124 OFFCURVE",
"-42 -124 CURVE SMOOTH",
"-66 -124 OFFCURVE",
"-80 -138 OFFCURVE",
"-80 -158 CURVE SMOOTH",
"-80 -195 OFFCURVE",
"-25 -232 OFFCURVE",
"33 -232 CURVE SMOOTH",
"140 -232 OFFCURVE",
"204 -134 OFFCURVE",
"204 25 CURVE",
"203 452 LINE",
"203 570 OFFCURVE",
"205 611 OFFCURVE",
"211 619 CURVE"
);
}
);
};
color = -1;
layerId = "1F9E295B-DEDB-4635-AE01-A776835412CD";
paths = (
{
closed = 1;
nodes = (
"278 634 LINE",
"275 671 LINE",
"56 671 LINE",
"54 634 LINE",
"130 618 LINE",
"133 606 OFFCURVE",
"134 558 OFFCURVE",
"134 451 CURVE",
"133 -34 LINE",
"133 -149 OFFCURVE",
"97 -203 OFFCURVE",
"29 -192 CURVE",
"57 -201 LINE",
"8 -150 LINE SMOOTH",
"-9 -133 OFFCURVE",
"-25 -123 OFFCURVE",
"-42 -123 CURVE SMOOTH",
"-66 -123 OFFCURVE",
"-80 -138 OFFCURVE",
"-80 -158 CURVE SMOOTH",
"-80 -195 OFFCURVE",
"-25 -232 OFFCURVE",
"35 -232 CURVE SMOOTH",
"141 -232 OFFCURVE",
"205 -146 OFFCURVE",
"205 25 CURVE",
"203 453 LINE",
"203 570 OFFCURVE",
"206 611 OFFCURVE",
"209 619 CURVE"
);
}
);
width = 337;
},
{
anchors = (
{
name = top;
position = "{214, 671}";
}
);
background = {
anchors = (
{
name = top;
position = "{215, 671}";
}
);
paths = (
{
closed = 1;
nodes = (
"392 606 LINE",
"389 671 LINE",
"31 671 LINE",
"27 606 LINE",
"110 589 LINE",
"114 576 OFFCURVE",
"119 486 OFFCURVE",
"119 411 CURVE",
"121 -21 LINE",
"121 -153 OFFCURVE",
"119 -167 OFFCURVE",
"70 -159 CURVE",
"149 -187 LINE",
"54 -101 LINE SMOOTH",
"21 -70 OFFCURVE",
"-6 -56 OFFCURVE",
"-39 -56 CURVE SMOOTH",
"-77 -56 OFFCURVE",
"-103 -85 OFFCURVE",
"-103 -128 CURVE SMOOTH",
"-103 -191 OFFCURVE",
"-31 -232 OFFCURVE",
"79 -232 CURVE SMOOTH",
"218 -232 OFFCURVE",
"312 -142 OFFCURVE",
"312 -5 CURVE",
"310 408 LINE",
"310 491 OFFCURVE",
"313 576 OFFCURVE",
"318 586 CURVE"
);
}
);
};
color = -1;
layerId = "722FC537-28B1-4F35-B842-D78FAAB5B143";
paths = (
{
closed = 1;
nodes = (
"391 606 LINE",
"387 671 LINE",
"30 671 LINE",
"26 606 LINE",
"109 589 LINE",
"113 576 OFFCURVE",
"118 486 OFFCURVE",
"118 411 CURVE",
"120 -21 LINE",
"120 -153 OFFCURVE",
"118 -167 OFFCURVE",
"69 -159 CURVE",
"147 -187 LINE",
"53 -101 LINE SMOOTH",
"19 -70 OFFCURVE",
"-7 -56 OFFCURVE",
"-40 -56 CURVE SMOOTH",
"-75 -56 OFFCURVE",
"-106 -85 OFFCURVE",
"-106 -127 CURVE SMOOTH",
"-106 -191 OFFCURVE",
"-32 -232 OFFCURVE",
"78 -232 CURVE SMOOTH",
"217 -232 OFFCURVE",
"311 -142 OFFCURVE",
"311 -5 CURVE",
"309 408 LINE",
"309 491 OFFCURVE",
"312 576 OFFCURVE",
"317 586 CURVE"
);
}
);
width = 427;
},
{
anchors = (
{
name = top;
position = "{189, 671}";
}
);
color = -1;
layerId = "76B56D5A-2442-4808-93A9-707A1715678A";
paths = (
{
closed = 1;
nodes = (
"335 618 LINE",
"331 671 LINE",
"38 671 LINE",
"34 618 LINE",
"114 602 LINE",
"118 590 OFFCURVE",
"121 519 OFFCURVE",
"121 431 CURVE",
"121 -27 LINE",
"121 -151 OFFCURVE",
"104 -184 OFFCURVE",
"46 -174 CURVE",
"101 -194 LINE",
"27 -122 LINE SMOOTH",
"2 -98 OFFCURVE",
"-19 -88 OFFCURVE",
"-46 -88 CURVE SMOOTH",
"-77 -88 OFFCURVE",
"-98 -109 OFFCURVE",
"-98 -142 CURVE SMOOTH",
"-98 -193 OFFCURVE",
"-33 -232 OFFCURVE",
"53 -232 CURVE SMOOTH",
"177 -232 OFFCURVE",
"257 -138 OFFCURVE",
"257 9 CURVE",
"256 427 LINE",
"256 527 OFFCURVE",
"258 593 OFFCURVE",
"263 601 CURVE"
);
}
);
width = 377;
}
);
leftKerningGroup = J;
note = J;
rightKerningGroup = J;
unicode = 004A;
},
{
glyphname = K;
lastChange = "2020-06-19 11:48:22 +0000";
layers = (
{
anchors = (
{
name = bottom;
position = "{353, 0}";
},
{
name = top;
position = "{353, 671}";
}
);
background = {
anchors = (
{
name = bottom;
position = "{353, 0}";
},
{
name = top;
position = "{353, 671}";
}
);
paths = (
{
closed = 1;
nodes = (
"643 0 LINE",
"643 38 LINE",
"587 54 LINE",
"567 70 OFFCURVE",
"540 104 OFFCURVE",
"510 136 CURVE SMOOTH",
"293 369 LINE",
"286 343 LINE",
"573 621 LINE",
"634 632 LINE",
"633 671 LINE",
"431 671 LINE",
"429 634 LINE",
"498 618 LINE",
"262 374 LINE",
"195 355 LINE",
"195 318 LINE",
"244 318 LINE",
"435 106 LINE SMOOTH",
"453 87 OFFCURVE",
"471 64 OFFCURVE",
"484 48 CURVE",
"409 37 LINE",
"411 0 LINE"
);
},
{
closed = 1;
nodes = (
"283 0 LINE",
"285 37 LINE",
"210 51 LINE",
"207 62 OFFCURVE",
"205 113 OFFCURVE",
"205 216 CURVE SMOOTH",
"205 453 LINE SMOOTH",
"205 572 OFFCURVE",
"206 612 OFFCURVE",
"213 619 CURVE",
"281 634 LINE",
"279 671 LINE",
"62 671 LINE",
"61 634 LINE",
"129 619 LINE",
"133 610 OFFCURVE",
"135 561 OFFCURVE",
"135 453 CURVE SMOOTH",
"135 216 LINE SMOOTH",
"135 113 OFFCURVE",
"133 62 OFFCURVE",
"128 51 CURVE",
"60 37 LINE",
"61 0 LINE"
);
}
);
};
color = -1;
layerId = "1F9E295B-DEDB-4635-AE01-A776835412CD";
paths = (
{
closed = 1;
nodes = (
"643 0 LINE",
"643 38 LINE",
"587 54 LINE",
"567 72 OFFCURVE",
"541 103 OFFCURVE",
"510 136 CURVE SMOOTH",
"293 369 LINE",
"287 343 LINE",
"574 621 LINE",
"634 632 LINE",
"633 671 LINE",
"430 671 LINE",
"429 634 LINE",
"497 618 LINE",
"262 374 LINE",
"195 355 LINE",
"195 319 LINE",
"245 319 LINE",
"437 106 LINE SMOOTH",
"455 87 OFFCURVE",
"472 64 OFFCURVE",
"485 48 CURVE",
"410 37 LINE",
"413 0 LINE"
);
},
{
closed = 1;
nodes = (
"280 0 LINE",
"282 37 LINE",
"208 51 LINE",
"207 63 OFFCURVE",
"205 113 OFFCURVE",
"205 216 CURVE SMOOTH",
"205 454 LINE SMOOTH",
"205 573 OFFCURVE",
"207 613 OFFCURVE",
"210 619 CURVE",
"279 634 LINE",
"277 671 LINE",
"64 671 LINE",
"62 634 LINE",
"130 619 LINE",
"134 610 OFFCURVE",
"135 560 OFFCURVE",
"135 454 CURVE SMOOTH",
"135 216 LINE SMOOTH",
"135 113 OFFCURVE",
"133 63 OFFCURVE",
"130 51 CURVE",
"62 37 LINE",
"64 0 LINE"
);
}
);
width = 639;
},
{
anchors = (
{
name = bottom;
position = "{394, 0}";
},
{
name = top;
position = "{394, 671}";
}
);
background = {
anchors = (
{
name = bottom;
position = "{395, 0}";
},
{
name = top;
position = "{395, 671}";
}
);
paths = (
{
closed = 1;
nodes = (
"821 0 LINE",
"821 66 LINE",
"760 73 LINE",
"752 82 OFFCURVE",
"737 95 OFFCURVE",
"674 173 CURVE SMOOTH",
"453 448 LINE",
"462 389 LINE",
"696 591 LINE",
"779 603 LINE",
"776 671 LINE",
"490 671 LINE",
"487 606 LINE",
"561 593 LINE",
"326 353 LINE",
"287 346 LINE",
"287 286 LINE",
"328 286 LINE",
"448 131 LINE SMOOTH",
"471 101 OFFCURVE",
"474 94 OFFCURVE",
"482 77 CURVE",
"429 65 LINE",
"433 0 LINE"
);
},
{
closed = 1;
nodes = (
"366 0 LINE",
"369 65 LINE",
"317 87 LINE",
"313 95 OFFCURVE",
"311 174 OFFCURVE",
"311 267 CURVE SMOOTH",
"311 405 LINE SMOOTH",
"311 483 OFFCURVE",
"314 573 OFFCURVE",
"319 584 CURVE",
"393 606 LINE",
"390 671 LINE",
"40 671 LINE",
"37 606 LINE",
"111 584 LINE",
"115 577 OFFCURVE",
"120 493 OFFCURVE",
"120 405 CURVE SMOOTH",
"120 267 LINE SMOOTH",
"120 174 OFFCURVE",
"118 95 OFFCURVE",
"114 87 CURVE",
"40 65 LINE",
"43 0 LINE"
);
}
);
};
color = -1;
layerId = "722FC537-28B1-4F35-B842-D78FAAB5B143";
paths = (
{
closed = 1;
nodes = (
"819 0 LINE",
"819 66 LINE",
"759 73 LINE",
"751 82 OFFCURVE",
"736 95 OFFCURVE",
"673 173 CURVE SMOOTH",
"451 448 LINE",
"461 389 LINE",
"695 591 LINE",
"778 603 LINE",
"775 671 LINE",
"489 671 LINE",
"486 606 LINE",
"560 593 LINE",
"325 353 LINE",
"286 346 LINE",
"286 286 LINE",
"327 286 LINE",
"447 131 LINE SMOOTH",
"470 101 OFFCURVE",
"473 94 OFFCURVE",
"481 77 CURVE",
"427 65 LINE",
"433 0 LINE"
);
},
{
closed = 1;
nodes = (
"365 0 LINE",
"368 65 LINE",
"315 87 LINE",
"312 95 OFFCURVE",
"310 174 OFFCURVE",
"310 267 CURVE SMOOTH",
"310 405 LINE SMOOTH",
"310 483 OFFCURVE",
"313 573 OFFCURVE",
"318 584 CURVE",
"392 606 LINE",
"389 671 LINE",
"39 671 LINE",
"35 606 LINE",
"110 584 LINE",
"114 577 OFFCURVE",
"119 493 OFFCURVE",
"119 405 CURVE SMOOTH",
"119 267 LINE SMOOTH",
"119 174 OFFCURVE",
"117 95 OFFCURVE",
"113 87 CURVE",
"39 65 LINE",
"42 0 LINE"
);
}
);
width = 805;
},
{
anchors = (
{
name = bottom;
position = "{371, 0}";
},
{
name = top;
position = "{371, 671}";
}
);
color = -1;
layerId = "76B56D5A-2442-4808-93A9-707A1715678A";
paths = (
{
closed = 1;
nodes = (
"734 0 LINE",
"734 54 LINE",
"675 64 LINE",
"663 77 OFFCURVE",
"641 99 OFFCURVE",
"594 155 CURVE SMOOTH",
"375 413 LINE",
"375 368 LINE",
"634 605 LINE",
"706 616 LINE",
"703 671 LINE",
"458 671 LINE",
"455 618 LINE",
"527 605 LINE",
"291 362 LINE",
"239 351 LINE",
"239 301 LINE",
"285 301 LINE",
"438 120 LINE SMOOTH",
"458 94 OFFCURVE",
"467 80 OFFCURVE",
"478 64 CURVE",
"415 53 LINE",
"418 0 LINE"
);
},
{
closed = 1;
nodes = (
"321 0 LINE",
"325 53 LINE",
"262 70 LINE",
"259 80 OFFCURVE",
"257 145 OFFCURVE",
"257 243 CURVE SMOOTH",
"257 426 LINE SMOOTH",
"257 525 OFFCURVE",
"259 592 OFFCURVE",
"264 601 CURVE",
"336 618 LINE",
"333 671 LINE",
"47 671 LINE",
"43 618 LINE",
"115 601 LINE",
"119 592 OFFCURVE",
"122 525 OFFCURVE",
"122 426 CURVE SMOOTH",
"122 243 LINE SMOOTH",
"122 145 OFFCURVE",
"120 80 OFFCURVE",
"118 70 CURVE",
"46 53 LINE",
"49 0 LINE"
);
}
);
width = 718;
}
);
leftKerningGroup = H;
note = K;
rightKerningGroup = K;
unicode = 004B;
},
{
glyphname = L;
lastChange = "2020-06-19 11:48:22 +0000";
layers = (
{
anchors = (
{
name = bottom;
position = "{310, 0}";
},
{
name = center;
position = "{215, 346}";
},
{
name = dotacc;
position = "{374, 366}";
},
{
name = top;
position = "{170, 671}";
},
{
name = topright;
position = "{409, 671}";
}
);
background = {
anchors = (
{
name = bottom;
position = "{310, 0}";
},
{
name = center;
position = "{215, 346}";
},
{
name = dotacc;
position = "{374, 366}";
},
{
name = top;
position = "{170, 671}";
},
{
name = topright;
position = "{409, 671}";
}
);
paths = (
{
closed = 1;
nodes = (
"560 155 LINE",
"518 165 LINE",
"461 58 LINE",
"433 55 OFFCURVE",
"411 55 OFFCURVE",
"378 55 CURVE SMOOTH",
"269 55 LINE SMOOTH",
"246 55 OFFCURVE",
"226 56 OFFCURVE",
"208 57 CURVE",
"207 71 OFFCURVE",
"206 142 OFFCURVE",
"206 216 CURVE SMOOTH",
"206 454 LINE SMOOTH",
"206 570 OFFCURVE",
"207 610 OFFCURVE",
"214 618 CURVE",
"309 632 LINE",
"306 671 LINE",
"62 671 LINE",
"61 634 LINE",
"128 618 LINE",
"133 609 OFFCURVE",
"135 562 OFFCURVE",
"135 454 CURVE SMOOTH",
"135 216 LINE SMOOTH",
"135 107 OFFCURVE",
"133 62 OFFCURVE",
"128 51 CURVE",
"61 37 LINE",
"62 0 LINE",
"440 0 LINE",
"467 0 OFFCURVE",
"479 -2 OFFCURVE",
"518 -5 CURVE"
);
}
);
};
color = -1;
layerId = "1F9E295B-DEDB-4635-AE01-A776835412CD";
paths = (
{
closed = 1;
nodes = (
"560 155 LINE",
"518 165 LINE",
"461 58 LINE",
"433 55 OFFCURVE",
"411 55 OFFCURVE",
"378 55 CURVE SMOOTH",
"269 55 LINE SMOOTH",
"246 55 OFFCURVE",
"226 56 OFFCURVE",
"208 57 CURVE",
"207 71 OFFCURVE",
"206 142 OFFCURVE",
"206 216 CURVE SMOOTH",
"206 454 LINE SMOOTH",
"206 570 OFFCURVE",
"207 610 OFFCURVE",
"211 618 CURVE",
"306 632 LINE",
"304 671 LINE",
"64 671 LINE",
"62 634 LINE",
"130 618 LINE",
"135 609 OFFCURVE",
"135 562 OFFCURVE",
"135 454 CURVE SMOOTH",
"135 216 LINE SMOOTH",
"135 107 OFFCURVE",
"133 62 OFFCURVE",
"130 51 CURVE",
"62 37 LINE",
"64 0 LINE",
"440 0 LINE",
"467 0 OFFCURVE",
"499 -2 OFFCURVE",
"518 -5 CURVE"
);
}
);
width = 563;
},
{
anchors = (
{
name = bottom;
position = "{357, 0}";
},
{
name = center;
position = "{241, 346}";
},
{
name = dotacc;
position = "{474, 366}";
},
{
name = top;
position = "{213, 671}";
},
{
name = topright;
position = "{451, 671}";
}
);
background = {
anchors = (
{
name = bottom;
position = "{358, 0}";
},
{
name = center;
position = "{242, 346}";
},
{
name = dotacc;
position = "{475, 366}";
},
{
name = top;
position = "{214, 671}";
},
{
name = topright;
position = "{453, 671}";
}
);
paths = (
{
closed = 1;
nodes = (
"657 216 LINE",
"575 237 LINE",
"509 104 LINE",
"497 101 OFFCURVE",
"494 96 OFFCURVE",
"427 96 CURVE SMOOTH",
"427 96 LINE SMOOTH",
"373 96 OFFCURVE",
"345 97 OFFCURVE",
"317 102 CURVE",
"312 125 OFFCURVE",
"311 170 OFFCURVE",
"311 267 CURVE SMOOTH",
"311 405 LINE SMOOTH",
"311 489 OFFCURVE",
"315 575 OFFCURVE",
"319 583 CURVE",
"414 603 LINE",
"409 671 LINE",
"40 671 LINE",
"35 606 LINE",
"111 585 LINE",
"115 574 OFFCURVE",
"119 483 OFFCURVE",
"119 405 CURVE SMOOTH",
"119 267 LINE SMOOTH",
"119 192 OFFCURVE",
"115 98 OFFCURVE",
"111 87 CURVE",
"35 65 LINE",
"40 0 LINE",
"374 0 LINE",
"415 0 OFFCURVE",
"536 -5 OFFCURVE",
"595 -9 CURVE"
);
}
);
};
color = -1;
layerId = "722FC537-28B1-4F35-B842-D78FAAB5B143";
paths = (
{
closed = 1;
nodes = (
"656 216 LINE",
"574 237 LINE",
"507 104 LINE",
"496 101 OFFCURVE",
"464 96 OFFCURVE",
"438 96 CURVE SMOOTH",
"415 96 LINE SMOOTH",
"371 96 OFFCURVE",
"344 97 OFFCURVE",
"315 102 CURVE",
"311 125 OFFCURVE",
"310 170 OFFCURVE",
"310 267 CURVE SMOOTH",
"310 405 LINE SMOOTH",
"310 489 OFFCURVE",
"314 575 OFFCURVE",
"318 583 CURVE",
"413 603 LINE",
"409 671 LINE",
"39 671 LINE",
"35 606 LINE",
"110 585 LINE",
"114 574 OFFCURVE",
"118 483 OFFCURVE",
"118 405 CURVE SMOOTH",
"118 267 LINE SMOOTH",
"118 192 OFFCURVE",
"114 98 OFFCURVE",
"110 87 CURVE",
"35 65 LINE",
"39 0 LINE",
"373 0 LINE",
"414 0 OFFCURVE",
"523 -2 OFFCURVE",
"594 -9 CURVE"
);
}
);
width = 664;
},
{
anchors = (
{
name = bottom;
position = "{331, 0}";
},
{
name = center;
position = "{225, 346}";
},
{
name = dotacc;
position = "{425, 366}";
},
{
name = top;
position = "{190, 671}";
},
{
name = topright;
position = "{429, 671}";
}
);
color = -1;
layerId = "76B56D5A-2442-4808-93A9-707A1715678A";
paths = (
{
closed = 1;
nodes = (
"609 187 LINE",
"545 203 LINE",
"482 83 LINE",
"463 80 OFFCURVE",
"439 77 OFFCURVE",
"402 77 CURVE SMOOTH",
"349 77 LINE SMOOTH",
"310 77 OFFCURVE",
"286 78 OFFCURVE",
"262 82 CURVE",
"259 101 OFFCURVE",
"258 158 OFFCURVE",
"258 243 CURVE SMOOTH",
"258 426 LINE SMOOTH",
"258 527 OFFCURVE",
"262 592 OFFCURVE",
"265 600 CURVE",
"360 616 LINE",
"357 671 LINE",
"48 671 LINE",
"45 618 LINE",
"117 600 LINE",
"120 591 OFFCURVE",
"122 519 OFFCURVE",
"122 426 CURVE SMOOTH",
"122 243 LINE SMOOTH",
"122 153 OFFCURVE",
"120 81 OFFCURVE",
"117 70 CURVE",
"45 53 LINE",
"48 0 LINE",
"400 0 LINE",
"435 0 OFFCURVE",
"505 -3 OFFCURVE",
"557 -7 CURVE"
);
}
);
width = 611;
}
);
leftKerningGroup = H;
note = L;
rightKerningGroup = L;
unicode = 004C;
},
{
glyphname = M;
lastChange = "2020-06-19 11:48:22 +0000";
layers = (
{
anchors = (
{
name = bottom;
position = "{471, 0}";
},
{
name = top;
position = "{471, 671}";
}
);
background = {
paths = (
{
closed = 1;
nodes = (
"67 634 LINE",
"136 619 LINE",
"137 587 OFFCURVE",
"138 517 OFFCURVE",
"137 462 CURVE SMOOTH",
"134 232 LINE SMOOTH",
"133 118 OFFCURVE",
"131 69 OFFCURVE",
"129 51 CURVE",
"53 37 LINE",
"55 0 LINE",
"267 0 LINE",
"270 37 LINE",
"193 51 LINE",
"192 67 OFFCURVE",
"191 121 OFFCURVE",
"191 254 CURVE SMOOTH",
"191 638 LINE",
"181 638 LINE",
"454 -3 LINE",
"478 -3 LINE",
"757 638 LINE",
"738 638 LINE",
"741 223 LINE SMOOTH",
"742 105 OFFCURVE",
"742 88 OFFCURVE",
"741 50 CURVE",
"673 37 LINE",
"675 0 LINE",
"885 0 LINE",
"887 37 LINE",
"818 50 LINE",
"817 79 OFFCURVE",
"816 125 OFFCURVE",
"814 248 CURVE",
"811 461 LINE SMOOTH",
"810 519 OFFCURVE",
"809 593 OFFCURVE",
"811 621 CURVE",
"880 634 LINE",
"878 671 LINE",
"719 671 LINE",
"473 105 LINE",
"487 105 LINE",
"247 671 LINE",
"70 671 LINE"
);
}
);
};
color = -1;
layerId = "1F9E295B-DEDB-4635-AE01-A776835412CD";
paths = (
{
closed = 1;
nodes = (
"67 634 LINE",
"136 619 LINE",
"137 587 OFFCURVE",
"138 517 OFFCURVE",
"137 462 CURVE SMOOTH",
"134 232 LINE SMOOTH",
"133 118 OFFCURVE",
"131 69 OFFCURVE",
"129 51 CURVE",
"53 37 LINE",
"55 0 LINE",
"267 0 LINE",
"270 37 LINE",
"193 51 LINE",
"192 67 OFFCURVE",
"191 121 OFFCURVE",
"191 254 CURVE SMOOTH",
"191 640 LINE",
"181 640 LINE",
"454 -3 LINE",
"478 -3 LINE",
"757 638 LINE",
"738 638 LINE",
"741 223 LINE SMOOTH",
"742 105 OFFCURVE",
"742 88 OFFCURVE",
"741 50 CURVE",
"673 37 LINE",
"675 0 LINE",
"885 0 LINE",
"887 37 LINE",
"818 50 LINE",
"817 79 OFFCURVE",
"816 125 OFFCURVE",
"814 248 CURVE",
"811 461 LINE SMOOTH",
"810 519 OFFCURVE",
"809 593 OFFCURVE",
"811 621 CURVE",
"880 634 LINE",
"878 671 LINE",
"719 671 LINE",
"473 103 LINE",
"487 103 LINE",
"246 671 LINE",
"70 671 LINE"
);
}
);
width = 951;
},
{
anchors = (
{
name = bottom;
position = "{485, 0}";
},
{
name = top;
position = "{485, 671}";
}
);
background = {
anchors = (
{
name = bottom;
position = "{486, 0}";
},
{
name = top;
position = "{486, 671}";
}
);
paths = (
{
closed = 1;
nodes = (
"48 606 LINE",
"123 584 LINE",
"122 590 OFFCURVE",
"123 575 OFFCURVE",
"122 446 CURVE SMOOTH",
"121 232 LINE SMOOTH",
"120 183 OFFCURVE",
"115 97 OFFCURVE",
"113 87 CURVE",
"32 65 LINE",
"37 0 LINE",
"303 0 LINE",
"307 65 LINE",
"226 87 LINE",
"224 91 OFFCURVE",
"223 130 OFFCURVE",
"223 240 CURVE SMOOTH",
"222 638 LINE",
"122 638 LINE",
"442 -3 LINE",
"535 -3 LINE",
"805 638 LINE",
"737 638 LINE",
"742 264 LINE SMOOTH",
"743 177 OFFCURVE",
"742 94 OFFCURVE",
"737 87 CURVE",
"662 65 LINE",
"666 0 LINE",
"1022 0 LINE",
"1026 65 LINE",
"951 87 LINE",
"950 88 OFFCURVE",
"942 170 OFFCURVE",
"936 255 CURVE SMOOTH",
"928 449 LINE SMOOTH",
"923 559 OFFCURVE",
"923 577 OFFCURVE",
"926 585 CURVE",
"1001 606 LINE",
"999 671 LINE",
"720 671 LINE",
"517 190 LINE",
"558 190 LINE",
"319 671 LINE",
"53 671 LINE"
);
}
);
};
color = -1;
layerId = "722FC537-28B1-4F35-B842-D78FAAB5B143";
paths = (
{
closed = 1;
nodes = (
"48 606 LINE",
"122 584 LINE",
"122 567 OFFCURVE",
"122 518 OFFCURVE",
"121 446 CURVE SMOOTH",
"119 243 LINE SMOOTH",
"118 183 OFFCURVE",
"117 97 OFFCURVE",
"114 87 CURVE",
"33 65 LINE",
"37 0 LINE",
"303 0 LINE",
"306 65 LINE",
"225 87 LINE",
"223 91 OFFCURVE",
"222 130 OFFCURVE",
"222 240 CURVE SMOOTH",
"221 638 LINE",
"121 638 LINE",
"441 -3 LINE",
"534 -3 LINE",
"803 638 LINE",
"736 638 LINE",
"741 264 LINE SMOOTH",
"742 177 OFFCURVE",
"741 94 OFFCURVE",
"737 87 CURVE",
"663 65 LINE",
"666 0 LINE",
"1019 0 LINE",
"1023 65 LINE",
"949 87 LINE",
"946 91 OFFCURVE",
"938 170 OFFCURVE",
"935 255 CURVE SMOOTH",
"927 449 LINE SMOOTH",
"925 513 OFFCURVE",
"923 554 OFFCURVE",
"925 585 CURVE",
"999 606 LINE",
"995 671 LINE",
"719 671 LINE",
"515 190 LINE",
"557 190 LINE",
"318 671 LINE",
"51 671 LINE"
);
}
);
width = 1054;
},
{
anchors = (
{
name = bottom;
position = "{474, 0}";
},
{
name = top;
position = "{474, 671}";
}
);
color = -1;
layerId = "76B56D5A-2442-4808-93A9-707A1715678A";
paths = (
{
closed = 1;
nodes = (
"53 618 LINE",
"125 601 LINE",
"125 582 OFFCURVE",
"126 538 OFFCURVE",
"125 453 CURVE SMOOTH",
"121 233 LINE SMOOTH",
"120 153 OFFCURVE",
"118 85 OFFCURVE",
"115 70 CURVE",
"37 53 LINE",
"40 0 LINE",
"282 0 LINE",
"286 53 LINE",
"207 70 LINE",
"205 81 OFFCURVE",
"203 126 OFFCURVE",
"203 247 CURVE SMOOTH",
"202 638 LINE",
"146 638 LINE",
"443 -3 LINE",
"504 -3 LINE",
"777 638 LINE",
"733 638 LINE",
"736 245 LINE SMOOTH",
"737 134 OFFCURVE",
"737 81 OFFCURVE",
"735 70 CURVE",
"663 53 LINE",
"666 0 LINE",
"954 0 LINE",
"958 53 LINE",
"886 70 LINE",
"883 85 OFFCURVE",
"879 150 OFFCURVE",
"875 251 CURVE SMOOTH",
"869 455 LINE SMOOTH",
"866 536 OFFCURVE",
"865 587 OFFCURVE",
"866 602 CURVE",
"938 618 LINE",
"935 671 LINE",
"714 671 LINE",
"493 151 LINE",
"521 151 LINE",
"282 671 LINE",
"56 671 LINE"
);
}
);
width = 1000;
}
);
leftKerningGroup = H;
note = M;
rightKerningGroup = H;
unicode = 004D;
},
{
glyphname = N;
lastChange = "2020-06-19 11:48:22 +0000";
layers = (
{
anchors = (
{
name = bottom;
position = "{381, 0}";
},
{
name = top;
position = "{381, 671}";
}
);
background = {
paths = (
{
closed = 1;
nodes = (
"579 145 LINE",
"208 671 LINE",
"63 671 LINE",
"61 634 LINE",
"129 619 LINE",
"133 601 OFFCURVE",
"135 570 OFFCURVE",
"135 450 CURVE SMOOTH",
"135 233 LINE SMOOTH",
"135 87 OFFCURVE",
"130 57 OFFCURVE",
"129 51 CURVE",
"61 37 LINE",
"63 0 LINE",
"271 0 LINE",
"273 37 LINE",
"197 51 LINE",
"195 57 OFFCURVE",
"190 90 OFFCURVE",
"190 233 CURVE SMOOTH",
"190 573 LINE",
"182 573 LINE",
"585 -5 LINE",
"626 -5 LINE",
"625 49 OFFCURVE",
"625 99 OFFCURVE",
"625 137 CURVE SMOOTH",
"625 435 LINE SMOOTH",
"625 579 OFFCURVE",
"630 614 OFFCURVE",
"631 619 CURVE",
"699 634 LINE",
"697 671 LINE",
"491 671 LINE",
"489 634 LINE",
"566 619 LINE",
"567 614 OFFCURVE",
"571 581 OFFCURVE",
"571 435 CURVE SMOOTH",
"571 145 LINE"
);
}
);
};
color = 3;
layerId = "1F9E295B-DEDB-4635-AE01-A776835412CD";
paths = (
{
closed = 1;
nodes = (
"579 138 LINE",
"208 671 LINE",
"63 671 LINE",
"61 634 LINE",
"129 619 LINE",
"133 601 OFFCURVE",
"135 570 OFFCURVE",
"135 450 CURVE SMOOTH",
"135 233 LINE SMOOTH",
"135 87 OFFCURVE",
"130 57 OFFCURVE",
"129 51 CURVE",
"61 37 LINE",
"63 0 LINE",
"271 0 LINE",
"273 37 LINE",
"197 51 LINE",
"195 57 OFFCURVE",
"190 90 OFFCURVE",
"190 233 CURVE SMOOTH",
"190 579 LINE",
"182 579 LINE",
"585 -5 LINE",
"626 -5 LINE",
"625 49 OFFCURVE",
"625 99 OFFCURVE",
"625 137 CURVE SMOOTH",
"625 435 LINE SMOOTH",
"625 579 OFFCURVE",
"630 614 OFFCURVE",
"631 619 CURVE",
"699 634 LINE",
"697 671 LINE",
"491 671 LINE",
"489 634 LINE",
"566 619 LINE",
"567 614 OFFCURVE",
"571 581 OFFCURVE",
"571 435 CURVE SMOOTH",
"571 138 LINE"
);
}
);
width = 760;
},
{
anchors = (
{
name = bottom;
position = "{409, 0}";
},
{
name = top;
position = "{409, 671}";
}
);
background = {
anchors = (
{
name = bottom;
position = "{410, 0}";
},
{
name = top;
position = "{410, 671}";
}
);
paths = (
{
closed = 1;
nodes = (
"670 240 LINE",
"238 671 LINE",
"41 671 LINE",
"37 606 LINE",
"112 584 LINE",
"114 587 OFFCURVE",
"120 477 OFFCURVE",
"120 450 CURVE SMOOTH",
"120 327 LINE SMOOTH",
"120 224 OFFCURVE",
"117 102 OFFCURVE",
"112 87 CURVE",
"37 65 LINE",
"41 0 LINE",
"307 0 LINE",
"311 65 LINE",
"230 87 LINE",
"222 103 OFFCURVE",
"221 211 OFFCURVE",
"221 327 CURVE SMOOTH",
"221 505 LINE",
"136 505 LINE",
"621 -7 LINE",
"702 -7 LINE",
"702 47 OFFCURVE",
"703 97 OFFCURVE",
"703 182 CURVE SMOOTH",
"703 366 LINE SMOOTH",
"703 463 OFFCURVE",
"705 573 OFFCURVE",
"711 584 CURVE",
"785 606 LINE",
"782 671 LINE",
"522 671 LINE",
"518 606 LINE",
"599 584 LINE",
"605 573 OFFCURVE",
"607 462 OFFCURVE",
"607 366 CURVE SMOOTH",
"607 240 LINE"
);
}
);
};
color = -1;
layerId = "722FC537-28B1-4F35-B842-D78FAAB5B143";
paths = (
{
closed = 1;
nodes = (
"669 240 LINE",
"237 671 LINE",
"40 671 LINE",
"37 606 LINE",
"111 584 LINE",
"113 565 OFFCURVE",
"119 477 OFFCURVE",
"119 450 CURVE SMOOTH",
"119 327 LINE SMOOTH",
"119 224 OFFCURVE",
"115 102 OFFCURVE",
"111 87 CURVE",
"37 65 LINE",
"40 0 LINE",
"306 0 LINE",
"310 65 LINE",
"229 87 LINE",
"221 103 OFFCURVE",
"219 211 OFFCURVE",
"219 327 CURVE SMOOTH",
"219 505 LINE",
"135 505 LINE",
"619 -7 LINE",
"701 -7 LINE",
"701 47 OFFCURVE",
"702 97 OFFCURVE",
"702 182 CURVE SMOOTH",
"702 366 LINE SMOOTH",
"702 463 OFFCURVE",
"704 573 OFFCURVE",
"710 584 CURVE",
"784 606 LINE",
"781 671 LINE",
"520 671 LINE",
"517 606 LINE",
"598 584 LINE",
"603 573 OFFCURVE",
"606 462 OFFCURVE",
"606 366 CURVE SMOOTH",
"606 240 LINE"
);
}
);
width = 822;
},
{
anchors = (
{
name = bottom;
position = "{393, 0}";
},
{
name = top;
position = "{393, 671}";
}
);
color = -1;
layerId = "76B56D5A-2442-4808-93A9-707A1715678A";
paths = (
{
closed = 1;
nodes = (
"624 197 LINE",
"221 671 LINE",
"48 671 LINE",
"45 618 LINE",
"117 601 LINE",
"119 592 OFFCURVE",
"123 530 OFFCURVE",
"123 450 CURVE SMOOTH",
"123 283 LINE SMOOTH",
"123 161 OFFCURVE",
"120 82 OFFCURVE",
"117 70 CURVE",
"45 53 LINE",
"48 0 LINE",
"286 0 LINE",
"289 53 LINE",
"210 70 LINE",
"206 82 OFFCURVE",
"202 155 OFFCURVE",
"202 283 CURVE SMOOTH",
"202 537 LINE",
"154 536 LINE",
"600 -6 LINE",
"664 -6 LINE",
"664 48 OFFCURVE",
"663 98 OFFCURVE",
"663 162 CURVE SMOOTH",
"663 398 LINE SMOOTH",
"663 517 OFFCURVE",
"667 592 OFFCURVE",
"670 601 CURVE",
"742 618 LINE",
"738 671 LINE",
"504 671 LINE",
"501 618 LINE",
"579 601 LINE",
"584 592 OFFCURVE",
"586 517 OFFCURVE",
"586 398 CURVE SMOOTH",
"586 197 LINE"
);
}
);
width = 785;
}
);
leftKerningGroup = H;
note = N;
rightKerningGroup = N;
unicode = 004E;
},
{
glyphname = Eng;
lastChange = "2020-06-19 11:48:22 +0000";
layers = (
{
background = {
paths = (
{
closed = 1;
nodes = (
"1355 -232 OFFCURVE",
"1425 -137 OFFCURVE",
"1425 2 CURVE SMOOTH",
"1425 435 LINE SMOOTH",
"1425 579 OFFCURVE",
"1430 614 OFFCURVE",
"1431 619 CURVE",
"1499 634 LINE",
"1497 671 LINE",
"1291 671 LINE",
"1289 634 LINE",
"1366 619 LINE",
"1367 614 OFFCURVE",
"1371 581 OFFCURVE",
"1371 435 CURVE SMOOTH",
"1371 145 LINE",
"1379 145 LINE",
"1008 671 LINE",
"863 671 LINE",
"861 634 LINE",
"929 619 LINE",
"933 601 OFFCURVE",
"935 570 OFFCURVE",
"935 450 CURVE SMOOTH",
"935 233 LINE SMOOTH",
"935 87 OFFCURVE",
"930 57 OFFCURVE",
"929 51 CURVE",
"861 37 LINE",
"863 0 LINE",
"1071 0 LINE",
"1073 37 LINE",
"997 51 LINE",
"995 57 OFFCURVE",
"990 90 OFFCURVE",
"990 233 CURVE SMOOTH",
"990 573 LINE",
"982 573 LINE",
"1385 -5 LINE",
"1369 88 LINE",
"1369 -3 LINE SMOOTH",
"1369 -119 OFFCURVE",
"1313 -201 OFFCURVE",
"1239 -189 CURVE",
"1282 -199 LINE",
"1231 -146 LINE SMOOTH",
"1213 -127 OFFCURVE",
"1194 -119 OFFCURVE",
"1177 -119 CURVE SMOOTH",
"1152 -119 OFFCURVE",
"1136 -133 OFFCURVE",
"1136 -154 CURVE SMOOTH",
"1136 -192 OFFCURVE",
"1187 -232 OFFCURVE",
"1254 -232 CURVE SMOOTH"
);
},
{
closed = 1;
nodes = (
"579 138 LINE",
"208 671 LINE",
"63 671 LINE",
"61 634 LINE",
"129 619 LINE",
"133 601 OFFCURVE",
"135 570 OFFCURVE",
"135 450 CURVE SMOOTH",
"135 233 LINE SMOOTH",
"135 87 OFFCURVE",
"130 57 OFFCURVE",
"129 51 CURVE",
"61 37 LINE",
"63 0 LINE",
"271 0 LINE",
"273 37 LINE",
"197 51 LINE",
"195 57 OFFCURVE",
"190 90 OFFCURVE",
"190 233 CURVE SMOOTH",
"190 579 LINE",
"182 579 LINE",
"585 -5 LINE",
"626 -5 LINE",
"625 49 OFFCURVE",
"625 99 OFFCURVE",
"625 137 CURVE SMOOTH",
"625 435 LINE SMOOTH",
"625 579 OFFCURVE",
"630 614 OFFCURVE",
"631 619 CURVE",
"699 634 LINE",
"697 671 LINE",
"491 671 LINE",
"489 634 LINE",
"566 619 LINE",
"567 614 OFFCURVE",
"571 581 OFFCURVE",
"571 435 CURVE SMOOTH",
"571 138 LINE"
);
}
);
};
color = 3;
layerId = "1F9E295B-DEDB-4635-AE01-A776835412CD";
paths = (
{
closed = 1;
nodes = (
"555 -232 OFFCURVE",
"625 -137 OFFCURVE",
"625 2 CURVE SMOOTH",
"625 435 LINE SMOOTH",
"625 579 OFFCURVE",
"630 614 OFFCURVE",
"631 619 CURVE",
"699 634 LINE",
"697 671 LINE",
"491 671 LINE",
"489 634 LINE",
"566 619 LINE",
"567 614 OFFCURVE",
"571 581 OFFCURVE",
"571 435 CURVE SMOOTH",
"571 138 LINE",
"579 138 LINE",
"208 671 LINE",
"63 671 LINE",
"61 634 LINE",
"129 619 LINE",
"133 601 OFFCURVE",
"135 570 OFFCURVE",
"135 450 CURVE SMOOTH",
"135 233 LINE SMOOTH",
"135 87 OFFCURVE",
"130 57 OFFCURVE",
"129 51 CURVE",
"61 37 LINE",
"63 0 LINE",
"271 0 LINE",
"273 37 LINE",
"197 51 LINE",
"195 57 OFFCURVE",
"190 90 OFFCURVE",
"190 233 CURVE SMOOTH",
"190 579 LINE",
"182 579 LINE",
"585 -5 LINE",
"569 88 LINE",
"569 -3 LINE SMOOTH",
"569 -119 OFFCURVE",
"513 -201 OFFCURVE",
"439 -189 CURVE",
"482 -199 LINE",
"431 -146 LINE SMOOTH",
"413 -127 OFFCURVE",
"394 -119 OFFCURVE",
"377 -119 CURVE SMOOTH",
"352 -119 OFFCURVE",
"336 -133 OFFCURVE",
"336 -154 CURVE SMOOTH",
"336 -192 OFFCURVE",
"387 -232 OFFCURVE",
"454 -232 CURVE SMOOTH"
);
}
);
width = 760;
},
{
background = {
paths = (
{
closed = 1;
nodes = (
"670 240 LINE",
"238 671 LINE",
"41 671 LINE",
"38 606 LINE",
"112 584 LINE",
"114 565 OFFCURVE",
"120 477 OFFCURVE",
"120 450 CURVE SMOOTH",
"120 327 LINE SMOOTH",
"120 224 OFFCURVE",
"117 102 OFFCURVE",
"112 87 CURVE",
"38 65 LINE",
"41 0 LINE",
"307 0 LINE",
"311 65 LINE",
"230 87 LINE",
"222 103 OFFCURVE",
"221 211 OFFCURVE",
"221 327 CURVE SMOOTH",
"221 505 LINE",
"136 505 LINE",
"621 -7 LINE",
"702 -7 LINE",
"702 47 OFFCURVE",
"703 97 OFFCURVE",
"703 182 CURVE SMOOTH",
"703 366 LINE SMOOTH",
"703 463 OFFCURVE",
"705 573 OFFCURVE",
"711 584 CURVE",
"785 606 LINE",
"782 671 LINE",
"521 671 LINE",
"518 606 LINE",
"599 584 LINE",
"605 573 OFFCURVE",
"607 462 OFFCURVE",
"607 366 CURVE SMOOTH",
"607 240 LINE"
);
}
);
};
color = -1;
layerId = "722FC537-28B1-4F35-B842-D78FAAB5B143";
paths = (
{
closed = 1;
nodes = (
"637 -232 OFFCURVE",
"702 -138 OFFCURVE",
"702 74 CURVE SMOOTH",
"702 366 LINE SMOOTH",
"702 493 OFFCURVE",
"705 574 OFFCURVE",
"710 584 CURVE",
"784 606 LINE",
"781 671 LINE",
"521 671 LINE",
"517 606 LINE",
"598 584 LINE",
"602 574 OFFCURVE",
"606 480 OFFCURVE",
"606 366 CURVE SMOOTH",
"606 240 LINE",
"669 240 LINE",
"237 671 LINE",
"40 671 LINE",
"37 606 LINE",
"111 584 LINE",
"113 566 OFFCURVE",
"119 498 OFFCURVE",
"119 450 CURVE SMOOTH",
"119 327 LINE SMOOTH",
"119 199 OFFCURVE",
"115 99 OFFCURVE",
"111 87 CURVE",
"37 65 LINE",
"40 0 LINE",
"306 0 LINE",
"310 65 LINE",
"229 87 LINE",
"221 103 OFFCURVE",
"219 203 OFFCURVE",
"219 327 CURVE SMOOTH",
"219 505 LINE",
"135 505 LINE",
"619 -7 LINE",
"606 102 LINE",
"606 -11 LINE SMOOTH",
"606 -110 OFFCURVE",
"562 -165 OFFCURVE",
"493 -153 CURVE",
"566 -185 LINE",
"467 -97 LINE SMOOTH",
"431 -64 OFFCURVE",
"406 -51 OFFCURVE",
"373 -51 CURVE SMOOTH",
"333 -51 OFFCURVE",
"305 -79 OFFCURVE",
"305 -119 CURVE SMOOTH",
"305 -185 OFFCURVE",
"383 -232 OFFCURVE",
"475 -232 CURVE SMOOTH"
);
}
);
width = 822;
},
{
color = -1;
layerId = "76B56D5A-2442-4808-93A9-707A1715678A";
paths = (
{
closed = 1;
nodes = (
"595 -232 OFFCURVE",
"663 -135 OFFCURVE",
"663 41 CURVE SMOOTH",
"663 398 LINE SMOOTH",
"663 519 OFFCURVE",
"667 592 OFFCURVE",
"670 601 CURVE",
"741 618 LINE",
"737 671 LINE",
"504 671 LINE",
"501 618 LINE",
"579 601 LINE",
"583 592 OFFCURVE",
"586 518 OFFCURVE",
"586 398 CURVE SMOOTH",
"586 197 LINE",
"624 197 LINE",
"221 671 LINE",
"48 671 LINE",
"45 618 LINE",
"117 601 LINE",
"119 592 OFFCURVE",
"123 531 OFFCURVE",
"123 450 CURVE SMOOTH",
"123 283 LINE SMOOTH",
"123 173 OFFCURVE",
"120 82 OFFCURVE",
"117 70 CURVE",
"45 53 LINE",
"48 0 LINE",
"286 0 LINE",
"289 53 LINE",
"210 70 LINE",
"206 83 OFFCURVE",
"202 168 OFFCURVE",
"202 283 CURVE SMOOTH",
"202 537 LINE",
"154 537 LINE",
"600 -6 LINE",
"586 95 LINE",
"586 -2 LINE SMOOTH",
"586 -114 OFFCURVE",
"537 -182 OFFCURVE",
"465 -170 CURVE",
"525 -192 LINE",
"448 -119 LINE SMOOTH",
"418 -94 OFFCURVE",
"398 -83 OFFCURVE",
"371 -83 CURVE SMOOTH",
"338 -83 OFFCURVE",
"317 -103 OFFCURVE",
"317 -136 CURVE SMOOTH",
"317 -189 OFFCURVE",
"387 -232 OFFCURVE",
"463 -232 CURVE SMOOTH"
);
}
);
width = 785;
}
);
leftKerningGroup = H;
leftMetricsKey = N;
widthMetricsKey = N;
note = Eng;
rightKerningGroup = J;
unicode = 014A;
},
{
glyphname = O;
lastChange = "2020-06-19 11:48:22 +0000";
layers = (
{
anchors = (
{
name = bottom;
position = "{386, 0}";
},
{
name = center;
position = "{386, 336}";
},
{
name = ogonek;
position = "{471, 0}";
},
{
name = top;
position = "{386, 671}";
},
{
name = topleft;
position = "{22, 671}";
},
{
name = topright;
position = "{753, 671}";
}
);
background = {
anchors = (
{
name = bottom;
position = "{386, 0}";
},
{
name = center;
position = "{386, 336}";
},
{
name = ogonek;
position = "{471, 0}";
},
{
name = top;
position = "{386, 671}";
},
{
name = topleft;
position = "{22, 671}";
},
{
name = topright;
position = "{753, 671}";
}
);
paths = (
{
closed = 1;
nodes = (
"581 -10 OFFCURVE",
"712 150 OFFCURVE",
"712 338 CURVE SMOOTH",
"712 542 OFFCURVE",
"583 681 OFFCURVE",
"398 681 CURVE SMOOTH",
"206 681 OFFCURVE",
"63 533 OFFCURVE",
"63 335 CURVE SMOOTH",
"63 130 OFFCURVE",
"199 -10 OFFCURVE",
"393 -10 CURVE SMOOTH"
);
},
{
closed = 1;
nodes = (
"258 40 OFFCURVE",
"152 170 OFFCURVE",
"152 351 CURVE SMOOTH",
"152 525 OFFCURVE",
"240 633 OFFCURVE",
"384 633 CURVE SMOOTH",
"528 633 OFFCURVE",
"627 501 OFFCURVE",
"627 312 CURVE SMOOTH",
"627 149 OFFCURVE",
"537 40 OFFCURVE",
"406 40 CURVE SMOOTH"
);
}
);
};
color = -1;
layerId = "1F9E295B-DEDB-4635-AE01-A776835412CD";
paths = (
{
closed = 1;
nodes = (
"581 -10 OFFCURVE",
"712 150 OFFCURVE",
"712 338 CURVE SMOOTH",
"712 542 OFFCURVE",
"583 681 OFFCURVE",
"398 681 CURVE SMOOTH",
"206 681 OFFCURVE",
"63 534 OFFCURVE",
"63 335 CURVE SMOOTH",
"63 130 OFFCURVE",
"199 -10 OFFCURVE",
"393 -10 CURVE SMOOTH"
);
},
{
closed = 1;
nodes = (
"258 40 OFFCURVE",
"152 170 OFFCURVE",
"152 351 CURVE SMOOTH",
"152 525 OFFCURVE",
"240 633 OFFCURVE",
"384 633 CURVE SMOOTH",
"528 633 OFFCURVE",
"627 501 OFFCURVE",
"627 312 CURVE SMOOTH",
"627 149 OFFCURVE",
"537 40 OFFCURVE",
"406 40 CURVE SMOOTH"
);
}
);
width = 775;
},
{
anchors = (
{
name = bottom;
position = "{415, 0}";
},
{
name = center;
position = "{415, 336}";
},
{
name = ogonek;
position = "{501, 0}";
},
{
name = top;
position = "{415, 671}";
},
{
name = topleft;
position = "{19, 671}";
},
{
name = topright;
position = "{809, 671}";
}
);
background = {
anchors = (
{
name = bottom;
position = "{416, 0}";
},
{
name = center;
position = "{416, 336}";
},
{
name = ogonek;
position = "{502, 0}";
},
{
name = top;
position = "{416, 671}";
},
{
name = topleft;
position = "{21, 671}";
},
{
name = topright;
position = "{810, 671}";
}
);
paths = (
{
closed = 1;
nodes = (
"561 -10 OFFCURVE",
"783 91 OFFCURVE",
"783 347 CURVE SMOOTH",
"783 544 OFFCURVE",
"634 681 OFFCURVE",
"423 681 CURVE SMOOTH",
"205 681 OFFCURVE",
"48 530 OFFCURVE",
"48 323 CURVE SMOOTH",
"48 130 OFFCURVE",
"207 -10 OFFCURVE",
"424 -10 CURVE SMOOTH"
);
},
{
closed = 1;
nodes = (
"334 89 OFFCURVE",
"269 202 OFFCURVE",
"269 365 CURVE SMOOTH",
"269 509 OFFCURVE",
"322 593 OFFCURVE",
"409 593 CURVE SMOOTH",
"504 593 OFFCURVE",
"563 487 OFFCURVE",
"563 317 CURVE SMOOTH",
"563 168 OFFCURVE",
"523 89 OFFCURVE",
"431 89 CURVE SMOOTH"
);
}
);
};
color = -1;
layerId = "722FC537-28B1-4F35-B842-D78FAAB5B143";
paths = (
{
closed = 1;
nodes = (
"560 -10 OFFCURVE",
"782 91 OFFCURVE",
"782 347 CURVE SMOOTH",
"782 544 OFFCURVE",
"633 681 OFFCURVE",
"422 681 CURVE SMOOTH",
"203 681 OFFCURVE",
"47 530 OFFCURVE",
"47 323 CURVE SMOOTH",
"47 130 OFFCURVE",
"206 -10 OFFCURVE",
"423 -10 CURVE SMOOTH"
);
},
{
closed = 1;
nodes = (
"333 89 OFFCURVE",
"267 202 OFFCURVE",
"267 365 CURVE SMOOTH",
"267 509 OFFCURVE",
"321 593 OFFCURVE",
"408 593 CURVE SMOOTH",
"503 593 OFFCURVE",
"562 487 OFFCURVE",
"562 317 CURVE SMOOTH",
"562 168 OFFCURVE",
"522 89 OFFCURVE",
"430 89 CURVE SMOOTH"
);
}
);
width = 830;
},
{
anchors = (
{
name = bottom;
position = "{399, 0}";
},
{
name = center;
position = "{399, 336}";
},
{
name = ogonek;
position = "{483, 0}";
},
{
name = top;
position = "{399, 671}";
},
{
name = topleft;
position = "{17, 671}";
},
{
name = topright;
position = "{779, 671}";
}
);
color = -1;
layerId = "76B56D5A-2442-4808-93A9-707A1715678A";
paths = (
{
closed = 1;
nodes = (
"567 -10 OFFCURVE",
"746 118 OFFCURVE",
"746 343 CURVE SMOOTH",
"746 543 OFFCURVE",
"607 681 OFFCURVE",
"407 681 CURVE SMOOTH",
"201 681 OFFCURVE",
"51 531 OFFCURVE",
"51 329 CURVE SMOOTH",
"51 130 OFFCURVE",
"199 -10 OFFCURVE",
"406 -10 CURVE SMOOTH"
);
},
{
closed = 1;
nodes = (
"296 67 OFFCURVE",
"211 187 OFFCURVE",
"211 358 CURVE SMOOTH",
"211 515 OFFCURVE",
"280 613 OFFCURVE",
"393 613 CURVE SMOOTH",
"511 613 OFFCURVE",
"589 494 OFFCURVE",
"589 314 CURVE SMOOTH",
"589 159 OFFCURVE",
"527 67 OFFCURVE",
"415 67 CURVE SMOOTH"
);
}
);
width = 798;
}
);
leftKerningGroup = O;
note = O;
rightKerningGroup = O;
unicode = 004F;
},
{
glyphname = Ohorn;
lastChange = "2020-06-19 11:48:22 +0000";
layers = (
{
anchors = (
{
name = bottom;
position = "{386, 0}";
},
{
name = center;
position = "{386, 336}";
},
{
name = top;
position = "{386, 671}";
},
{
name = topleft;
position = "{22, 671}";
}
);
background = {
anchors = (
{
name = bottom;
position = "{387, 0}";
},
{
name = center;
position = "{387, 336}";
},
{
name = top;
position = "{387, 671}";
},
{
name = topleft;
position = "{22, 671}";
}
);
paths = (
{
closed = 1;
nodes = (
"1658 797 OFFCURVE",
"1619 818 OFFCURVE",
"1568 807 CURVE",
"1566 753 LINE SMOOTH",
"1562 679 OFFCURVE",
"1534 662 OFFCURVE",
"1483 662 CURVE SMOOTH",
"1437 662 OFFCURVE",
"1384 681 OFFCURVE",
"1313 681 CURVE SMOOTH",
"1120 681 OFFCURVE",
"977 533 OFFCURVE",
"977 335 CURVE SMOOTH",
"977 130 OFFCURVE",
"1113 -10 OFFCURVE",
"1307 -10 CURVE SMOOTH",
"1495 -10 OFFCURVE",
"1626 150 OFFCURVE",
"1626 338 CURVE SMOOTH",
"1626 472 OFFCURVE",
"1569 579 OFFCURVE",
"1475 639 CURVE",
"1459 611 LINE",
"1599 594 OFFCURVE",
"1658 687 OFFCURVE",
"1658 743 CURVE SMOOTH"
);
},
{
closed = 1;
nodes = (
"1173 40 OFFCURVE",
"1066 170 OFFCURVE",
"1066 351 CURVE SMOOTH",
"1066 525 OFFCURVE",
"1154 633 OFFCURVE",
"1298 633 CURVE SMOOTH",
"1442 633 OFFCURVE",
"1542 501 OFFCURVE",
"1542 312 CURVE SMOOTH",
"1542 150 OFFCURVE",
"1451 40 OFFCURVE",
"1320 40 CURVE SMOOTH"
);
},
{
closed = 1;
nodes = (
"581 -10 OFFCURVE",
"712 150 OFFCURVE",
"712 338 CURVE SMOOTH",
"712 542 OFFCURVE",
"583 681 OFFCURVE",
"398 681 CURVE SMOOTH",
"206 681 OFFCURVE",
"63 534 OFFCURVE",
"63 335 CURVE SMOOTH",
"63 130 OFFCURVE",
"199 -10 OFFCURVE",
"393 -10 CURVE SMOOTH"
);
},
{
closed = 1;
nodes = (
"258 40 OFFCURVE",
"152 170 OFFCURVE",
"152 351 CURVE SMOOTH",
"152 525 OFFCURVE",
"240 633 OFFCURVE",
"384 633 CURVE SMOOTH",
"528 633 OFFCURVE",
"627 501 OFFCURVE",
"627 312 CURVE SMOOTH",
"627 149 OFFCURVE",
"537 40 OFFCURVE",
"406 40 CURVE SMOOTH"
);
}
);
};
color = -1;
layerId = "1F9E295B-DEDB-4635-AE01-A776835412CD";
paths = (
{
closed = 1;
nodes = (
"744 797 OFFCURVE",
"705 818 OFFCURVE",
"654 807 CURVE",
"651 753 LINE SMOOTH",
"648 679 OFFCURVE",
"619 662 OFFCURVE",
"569 662 CURVE SMOOTH",
"522 662 OFFCURVE",
"470 681 OFFCURVE",
"399 681 CURVE SMOOTH",
"206 681 OFFCURVE",
"63 533 OFFCURVE",
"63 335 CURVE SMOOTH",
"63 130 OFFCURVE",
"199 -10 OFFCURVE",
"393 -10 CURVE SMOOTH",
"581 -10 OFFCURVE",
"712 150 OFFCURVE",
"712 338 CURVE SMOOTH",
"712 472 OFFCURVE",
"655 579 OFFCURVE",
"561 639 CURVE",
"545 611 LINE",
"685 594 OFFCURVE",
"744 687 OFFCURVE",
"744 743 CURVE SMOOTH"
);
},
{
closed = 1;
nodes = (
"258 40 OFFCURVE",
"152 170 OFFCURVE",
"152 351 CURVE SMOOTH",
"152 525 OFFCURVE",
"240 633 OFFCURVE",
"384 633 CURVE SMOOTH",
"528 633 OFFCURVE",
"627 501 OFFCURVE",
"627 312 CURVE SMOOTH",
"627 150 OFFCURVE",
"537 40 OFFCURVE",
"406 40 CURVE SMOOTH"
);
}
);
width = 775;
},
{
anchors = (
{
name = bottom;
position = "{415, 0}";
},
{
name = center;
position = "{415, 336}";
},
{
name = top;
position = "{415, 671}";
},
{
name = topleft;
position = "{19, 671}";
}
);
background = {
anchors = (
{
name = bottom;
position = "{416, 0}";
},
{
name = center;
position = "{416, 336}";
},
{
name = top;
position = "{416, 671}";
},
{
name = topleft;
position = "{21, 671}";
}
);
paths = (
{
closed = 1;
nodes = (
"826 829 OFFCURVE",
"757 834 OFFCURVE",
"679 826 CURVE",
"677 751 LINE SMOOTH",
"674 707 OFFCURVE",
"641 664 OFFCURVE",
"589 664 CURVE SMOOTH",
"557 664 OFFCURVE",
"501 681 OFFCURVE",
"434 681 CURVE SMOOTH",
"205 681 OFFCURVE",
"48 530 OFFCURVE",
"48 323 CURVE SMOOTH",
"48 130 OFFCURVE",
"207 -10 OFFCURVE",
"424 -10 CURVE SMOOTH",
"561 -10 OFFCURVE",
"783 91 OFFCURVE",
"783 347 CURVE SMOOTH",
"783 467 OFFCURVE",
"726 563 OFFCURVE",
"639 619 CURVE",
"537 605 LINE",
"702 559 OFFCURVE",
"826 647 OFFCURVE",
"826 750 CURVE SMOOTH"
);
},
{
closed = 1;
nodes = (
"334 89 OFFCURVE",
"269 202 OFFCURVE",
"269 365 CURVE SMOOTH",
"269 509 OFFCURVE",
"322 593 OFFCURVE",
"409 593 CURVE SMOOTH",
"504 593 OFFCURVE",
"563 487 OFFCURVE",
"563 317 CURVE SMOOTH",
"563 163 OFFCURVE",
"522 89 OFFCURVE",
"431 89 CURVE SMOOTH"
);
}
);
};
color = -1;
layerId = "722FC537-28B1-4F35-B842-D78FAAB5B143";
paths = (
{
closed = 1;
nodes = (
"825 829 OFFCURVE",
"755 834 OFFCURVE",
"678 826 CURVE",
"675 751 LINE SMOOTH",
"674 707 OFFCURVE",
"640 664 OFFCURVE",
"587 664 CURVE SMOOTH",
"555 664 OFFCURVE",
"499 681 OFFCURVE",
"433 681 CURVE SMOOTH",
"203 681 OFFCURVE",
"47 530 OFFCURVE",
"47 323 CURVE SMOOTH",
"47 130 OFFCURVE",
"206 -10 OFFCURVE",
"423 -10 CURVE SMOOTH",
"560 -10 OFFCURVE",
"782 91 OFFCURVE",
"782 347 CURVE SMOOTH",
"782 467 OFFCURVE",
"725 563 OFFCURVE",
"638 619 CURVE",
"536 605 LINE",
"701 559 OFFCURVE",
"825 647 OFFCURVE",
"825 750 CURVE SMOOTH"
);
},
{
closed = 1;
nodes = (
"333 89 OFFCURVE",
"267 202 OFFCURVE",
"267 365 CURVE SMOOTH",
"267 509 OFFCURVE",
"321 593 OFFCURVE",
"408 593 CURVE SMOOTH",
"503 593 OFFCURVE",
"562 487 OFFCURVE",
"562 317 CURVE SMOOTH",
"562 163 OFFCURVE",
"521 89 OFFCURVE",
"430 89 CURVE SMOOTH"
);
}
);
width = 830;
},
{
anchors = (
{
name = bottom;
position = "{399, 0}";
},
{
name = center;
position = "{399, 336}";
},
{
name = top;
position = "{399, 671}";
},
{
name = topleft;
position = "{17, 671}";
}
);
background = {
paths = (
{
closed = 1;
nodes = (
"567 -10 OFFCURVE",
"746 118 OFFCURVE",
"746 343 CURVE SMOOTH",
"746 543 OFFCURVE",
"607 681 OFFCURVE",
"407 681 CURVE SMOOTH",
"201 681 OFFCURVE",
"51 531 OFFCURVE",
"51 329 CURVE SMOOTH",
"51 130 OFFCURVE",
"199 -10 OFFCURVE",
"406 -10 CURVE SMOOTH"
);
},
{
closed = 1;
nodes = (
"296 67 OFFCURVE",
"211 187 OFFCURVE",
"211 358 CURVE SMOOTH",
"211 515 OFFCURVE",
"280 613 OFFCURVE",
"393 613 CURVE SMOOTH",
"511 613 OFFCURVE",
"589 494 OFFCURVE",
"589 314 CURVE SMOOTH",
"589 159 OFFCURVE",
"527 67 OFFCURVE",
"415 67 CURVE SMOOTH"
);
}
);
};
color = -1;
layerId = "76B56D5A-2442-4808-93A9-707A1715678A";
paths = (
{
closed = 1;
nodes = (
"784 814 OFFCURVE",
"729 827 OFFCURVE",
"663 817 CURVE",
"661 752 LINE SMOOTH",
"658 695 OFFCURVE",
"627 663 OFFCURVE",
"576 663 CURVE SMOOTH",
"537 663 OFFCURVE",
"482 681 OFFCURVE",
"414 681 CURVE SMOOTH",
"201 681 OFFCURVE",
"51 531 OFFCURVE",
"51 329 CURVE SMOOTH",
"51 130 OFFCURVE",
"199 -10 OFFCURVE",
"406 -10 CURVE SMOOTH",
"567 -10 OFFCURVE",
"746 118 OFFCURVE",
"746 343 CURVE SMOOTH",
"746 470 OFFCURVE",
"690 570 OFFCURVE",
"599 629 CURVE",
"537 608 LINE",
"690 576 OFFCURVE",
"784 666 OFFCURVE",
"784 746 CURVE SMOOTH"
);
},
{
closed = 1;
nodes = (
"296 67 OFFCURVE",
"211 187 OFFCURVE",
"211 358 CURVE SMOOTH",
"211 515 OFFCURVE",
"280 613 OFFCURVE",
"393 613 CURVE SMOOTH",
"511 613 OFFCURVE",
"589 494 OFFCURVE",
"589 314 CURVE SMOOTH",
"589 157 OFFCURVE",
"526 67 OFFCURVE",
"415 67 CURVE SMOOTH"
);
}
);
width = 798;
}
);
leftKerningGroup = O;
leftMetricsKey = O;
widthMetricsKey = O;
note = Ohorn;
rightKerningGroup = O;
unicode = 01A0;
},
{
glyphname = Oogonek;
lastChange = "2020-06-19 11:48:22 +0000";
layers = (
{
anchors = (
{
name = center;
position = "{386, 336}";
},
{
name = top;
position = "{386, 671}";
},
{
name = topleft;
position = "{22, 671}";
},
{
name = topright;
position = "{753, 671}";
}
);
background = {
anchors = (
{
name = center;
position = "{386, 336}";
},
{
name = top;
position = "{386, 671}";
},
{
name = topleft;
position = "{22, 671}";
},
{
name = topright;
position = "{753, 671}";
}
);
paths = (
{
closed = 1;
nodes = (
"1273 -255 OFFCURVE",
"1312 -230 OFFCURVE",
"1341 -198 CURVE",
"1318 -174 LINE",
"1296 -197 OFFCURVE",
"1271 -214 OFFCURVE",
"1239 -214 CURVE SMOOTH",
"1197 -214 OFFCURVE",
"1169 -186 OFFCURVE",
"1169 -144 CURVE SMOOTH",
"1169 -86 OFFCURVE",
"1218 -24 OFFCURVE",
"1306 11 CURVE SMOOTH",
"1426 59 OFFCURVE",
"1512 186 OFFCURVE",
"1512 338 CURVE SMOOTH",
"1512 542 OFFCURVE",
"1383 681 OFFCURVE",
"1198 681 CURVE SMOOTH",
"1006 681 OFFCURVE",
"863 533 OFFCURVE",
"863 335 CURVE SMOOTH",
"863 130 OFFCURVE",
"999 -10 OFFCURVE",
"1193 -10 CURVE SMOOTH",
"1230 -10 LINE",
"1270 19 LINE",
"1167 -22 OFFCURVE",
"1104 -85 OFFCURVE",
"1104 -157 CURVE SMOOTH",
"1104 -210 OFFCURVE",
"1146 -255 OFFCURVE",
"1225 -255 CURVE SMOOTH"
);
},
{
closed = 1;
nodes = (
"1058 40 OFFCURVE",
"952 170 OFFCURVE",
"952 351 CURVE SMOOTH",
"952 525 OFFCURVE",
"1040 633 OFFCURVE",
"1184 633 CURVE SMOOTH",
"1328 633 OFFCURVE",
"1427 501 OFFCURVE",
"1427 312 CURVE SMOOTH",
"1427 150 OFFCURVE",
"1337 40 OFFCURVE",
"1206 40 CURVE SMOOTH"
);
},
{
closed = 1;
nodes = (
"581 -10 OFFCURVE",
"712 150 OFFCURVE",
"712 338 CURVE SMOOTH",
"712 542 OFFCURVE",
"583 681 OFFCURVE",
"398 681 CURVE SMOOTH",
"206 681 OFFCURVE",
"63 534 OFFCURVE",
"63 335 CURVE SMOOTH",
"63 130 OFFCURVE",
"199 -10 OFFCURVE",
"393 -10 CURVE SMOOTH"
);
},
{
closed = 1;
nodes = (
"258 40 OFFCURVE",
"152 170 OFFCURVE",
"152 351 CURVE SMOOTH",
"152 525 OFFCURVE",
"240 633 OFFCURVE",
"384 633 CURVE SMOOTH",
"528 633 OFFCURVE",
"627 501 OFFCURVE",
"627 312 CURVE SMOOTH",
"627 149 OFFCURVE",
"537 40 OFFCURVE",
"406 40 CURVE SMOOTH"
);
}
);
};
color = -1;
layerId = "1F9E295B-DEDB-4635-AE01-A776835412CD";
paths = (
{
closed = 1;
nodes = (
"473 -255 OFFCURVE",
"512 -230 OFFCURVE",
"541 -198 CURVE",
"518 -174 LINE",
"496 -197 OFFCURVE",
"471 -214 OFFCURVE",
"439 -214 CURVE SMOOTH",
"397 -214 OFFCURVE",
"369 -186 OFFCURVE",
"369 -144 CURVE SMOOTH",
"369 -86 OFFCURVE",
"418 -23 OFFCURVE",
"506 11 CURVE SMOOTH",
"626 58 OFFCURVE",
"712 186 OFFCURVE",
"712 338 CURVE SMOOTH",
"712 542 OFFCURVE",
"583 681 OFFCURVE",
"398 681 CURVE SMOOTH",
"206 681 OFFCURVE",
"63 533 OFFCURVE",
"63 335 CURVE SMOOTH",
"63 130 OFFCURVE",
"199 -10 OFFCURVE",
"393 -10 CURVE SMOOTH",
"430 -10 LINE",
"470 19 LINE",
"367 -22 OFFCURVE",
"304 -85 OFFCURVE",
"304 -157 CURVE SMOOTH",
"304 -210 OFFCURVE",
"346 -255 OFFCURVE",
"425 -255 CURVE SMOOTH"
);
},
{
closed = 1;
nodes = (
"258 40 OFFCURVE",
"152 170 OFFCURVE",
"152 351 CURVE SMOOTH",
"152 525 OFFCURVE",
"240 633 OFFCURVE",
"384 633 CURVE SMOOTH",
"528 633 OFFCURVE",
"627 501 OFFCURVE",
"627 312 CURVE SMOOTH",
"627 150 OFFCURVE",
"537 40 OFFCURVE",
"406 40 CURVE SMOOTH"
);
}
);
width = 775;
},
{
anchors = (
{
name = center;
position = "{415, 336}";
},
{
name = top;
position = "{415, 671}";
},
{
name = topleft;
position = "{19, 671}";
},
{
name = topright;
position = "{809, 671}";
}
);
background = {
anchors = (
{
name = center;
position = "{416, 336}";
},
{
name = top;
position = "{416, 671}";
},
{
name = topleft;
position = "{21, 671}";
},
{
name = topright;
position = "{810, 671}";
}
);
paths = (
{
closed = 1;
nodes = (
"503 -255 OFFCURVE",
"553 -239 OFFCURVE",
"587 -198 CURVE",
"552 -145 LINE",
"522 -173 OFFCURVE",
"497 -184 OFFCURVE",
"474 -184 CURVE SMOOTH",
"443 -184 OFFCURVE",
"419 -162 OFFCURVE",
"419 -123 CURVE SMOOTH",
"419 -79 OFFCURVE",
"449 -24 OFFCURVE",
"557 18 CURVE SMOOTH",
"667 62 OFFCURVE",
"783 161 OFFCURVE",
"783 347 CURVE SMOOTH",
"783 544 OFFCURVE",
"634 681 OFFCURVE",
"423 681 CURVE SMOOTH",
"205 681 OFFCURVE",
"48 530 OFFCURVE",
"48 323 CURVE SMOOTH",
"48 130 OFFCURVE",
"207 -10 OFFCURVE",
"424 -10 CURVE SMOOTH",
"445 -10 LINE",
"480 31 LINE",
"359 -10 OFFCURVE",
"290 -71 OFFCURVE",
"290 -133 CURVE SMOOTH",
"290 -206 OFFCURVE",
"366 -255 OFFCURVE",
"450 -255 CURVE SMOOTH"
);
},
{
closed = 1;
nodes = (
"334 89 OFFCURVE",
"269 202 OFFCURVE",
"269 365 CURVE SMOOTH",
"269 509 OFFCURVE",
"322 593 OFFCURVE",
"409 593 CURVE SMOOTH",
"504 593 OFFCURVE",
"563 487 OFFCURVE",
"563 317 CURVE SMOOTH",
"563 163 OFFCURVE",
"522 89 OFFCURVE",
"431 89 CURVE SMOOTH"
);
}
);
};
color = -1;
layerId = "722FC537-28B1-4F35-B842-D78FAAB5B143";
paths = (
{
closed = 1;
nodes = (
"502 -255 OFFCURVE",
"552 -239 OFFCURVE",
"586 -198 CURVE",
"551 -145 LINE",
"521 -173 OFFCURVE",
"496 -184 OFFCURVE",
"473 -184 CURVE SMOOTH",
"442 -184 OFFCURVE",
"418 -162 OFFCURVE",
"418 -123 CURVE SMOOTH",
"418 -79 OFFCURVE",
"448 -24 OFFCURVE",
"555 18 CURVE SMOOTH",
"666 62 OFFCURVE",
"782 161 OFFCURVE",
"782 347 CURVE SMOOTH",
"782 544 OFFCURVE",
"633 681 OFFCURVE",
"422 681 CURVE SMOOTH",
"203 681 OFFCURVE",
"47 530 OFFCURVE",
"47 323 CURVE SMOOTH",
"47 130 OFFCURVE",
"206 -10 OFFCURVE",
"423 -10 CURVE SMOOTH",
"443 -10 LINE",
"479 31 LINE",
"358 -10 OFFCURVE",
"289 -71 OFFCURVE",
"289 -133 CURVE SMOOTH",
"289 -206 OFFCURVE",
"365 -255 OFFCURVE",
"449 -255 CURVE SMOOTH"
);
},
{
closed = 1;
nodes = (
"333 89 OFFCURVE",
"267 202 OFFCURVE",
"267 365 CURVE SMOOTH",
"267 509 OFFCURVE",
"321 593 OFFCURVE",
"408 593 CURVE SMOOTH",
"503 593 OFFCURVE",
"562 487 OFFCURVE",
"562 317 CURVE SMOOTH",
"562 163 OFFCURVE",
"521 89 OFFCURVE",
"430 89 CURVE SMOOTH"
);
}
);
width = 830;
},
{
anchors = (
{
name = center;
position = "{399, 336}";
},
{
name = top;
position = "{399, 671}";
},
{
name = topleft;
position = "{17, 671}";
},
{
name = topright;
position = "{779, 671}";
}
);
background = {
paths = (
{
closed = 1;
nodes = (
"567 -10 OFFCURVE",
"746 118 OFFCURVE",
"746 343 CURVE SMOOTH",
"746 543 OFFCURVE",
"607 681 OFFCURVE",
"407 681 CURVE SMOOTH",
"201 681 OFFCURVE",
"51 531 OFFCURVE",
"51 329 CURVE SMOOTH",
"51 130 OFFCURVE",
"199 -10 OFFCURVE",
"406 -10 CURVE SMOOTH"
);
},
{
closed = 1;
nodes = (
"296 67 OFFCURVE",
"211 187 OFFCURVE",
"211 358 CURVE SMOOTH",
"211 515 OFFCURVE",
"280 613 OFFCURVE",
"393 613 CURVE SMOOTH",
"511 613 OFFCURVE",
"589 494 OFFCURVE",
"589 314 CURVE SMOOTH",
"589 159 OFFCURVE",
"527 67 OFFCURVE",
"415 67 CURVE SMOOTH"
);
}
);
};
color = -1;
layerId = "76B56D5A-2442-4808-93A9-707A1715678A";
paths = (
{
closed = 1;
nodes = (
"486 -255 OFFCURVE",
"530 -234 OFFCURVE",
"562 -198 CURVE",
"533 -158 LINE",
"506 -183 OFFCURVE",
"481 -198 OFFCURVE",
"454 -198 CURVE SMOOTH",
"418 -198 OFFCURVE",
"393 -173 OFFCURVE",
"393 -133 CURVE SMOOTH",
"393 -82 OFFCURVE",
"431 -24 OFFCURVE",
"530 15 CURVE SMOOTH",
"645 59 OFFCURVE",
"746 173 OFFCURVE",
"746 343 CURVE SMOOTH",
"746 543 OFFCURVE",
"607 681 OFFCURVE",
"407 681 CURVE SMOOTH",
"201 681 OFFCURVE",
"51 531 OFFCURVE",
"51 329 CURVE SMOOTH",
"51 130 OFFCURVE",
"199 -10 OFFCURVE",
"406 -10 CURVE SMOOTH",
"434 -10 LINE",
"472 25 LINE",
"359 -16 OFFCURVE",
"294 -78 OFFCURVE",
"294 -143 CURVE SMOOTH",
"294 -208 OFFCURVE",
"353 -255 OFFCURVE",
"434 -255 CURVE SMOOTH"
);
},
{
closed = 1;
nodes = (
"296 67 OFFCURVE",
"211 187 OFFCURVE",
"211 358 CURVE SMOOTH",
"211 515 OFFCURVE",
"280 613 OFFCURVE",
"393 613 CURVE SMOOTH",
"511 613 OFFCURVE",
"589 494 OFFCURVE",
"589 314 CURVE SMOOTH",
"589 157 OFFCURVE",
"526 67 OFFCURVE",
"415 67 CURVE SMOOTH"
);
}
);
width = 798;
}
);
leftKerningGroup = O;
leftMetricsKey = O;
widthMetricsKey = O;
rightKerningGroup = O;
unicode = 01EA;
},
{
glyphname = OE;
lastChange = "2020-06-19 11:49:32 +0000";
layers = (
{
anchors = (
{
name = bottom;
position = "{595, 0}";
},
{
name = top;
position = "{595, 671}";
}
);
background = {
anchors = (
{
name = bottom;
position = "{596, 0}";
},
{
name = top;
position = "{596, 671}";
}
);
paths = (
{
closed = 1;
nodes = (
"511 -10 OFFCURVE",
"572 0 OFFCURVE",
"607 0 CURVE SMOOTH",
"877 0 LINE SMOOTH",
"898 0 OFFCURVE",
"911 0 OFFCURVE",
"960 -5 CURVE",
"1003 153 LINE",
"958 162 LINE",
"900 56 LINE",
"890 53 OFFCURVE",
"864 51 OFFCURVE",
"819 51 CURVE SMOOTH",
"692 51 LINE SMOOTH",
"675 51 OFFCURVE",
"657 53 OFFCURVE",
"632 55 CURVE",
"631 66 OFFCURVE",
"630 122 OFFCURVE",
"630 153 CURVE SMOOTH",
"630 495 LINE SMOOTH",
"630 538 OFFCURVE",
"631 610 OFFCURVE",
"632 617 CURVE",
"661 621 OFFCURVE",
"678 622 OFFCURVE",
"699 622 CURVE SMOOTH",
"844 622 LINE SMOOTH",
"861 622 OFFCURVE",
"876 621 OFFCURVE",
"883 619 CURVE",
"920 526 LINE",
"965 533 LINE",
"945 675 LINE",
"897 670 OFFCURVE",
"884 671 OFFCURVE",
"860 671 CURVE SMOOTH",
"584 671 LINE SMOOTH",
"536 671 OFFCURVE",
"493 679 OFFCURVE",
"433 679 CURVE SMOOTH",
"223 679 OFFCURVE",
"64 541 OFFCURVE",
"64 330 CURVE SMOOTH",
"64 113 OFFCURVE",
"205 -10 OFFCURVE",
"451 -10 CURVE SMOOTH"
);
},
{
closed = 1;
nodes = (
"269 41 OFFCURVE",
"154 153 OFFCURVE",
"154 341 CURVE SMOOTH",
"154 515 OFFCURVE",
"254 628 OFFCURVE",
"428 628 CURVE SMOOTH",
"476 628 OFFCURVE",
"513 623 OFFCURVE",
"556 611 CURVE",
"560 579 OFFCURVE",
"561 528 OFFCURVE",
"561 456 CURVE SMOOTH",
"561 220 LINE SMOOTH",
"561 112 OFFCURVE",
"561 79 OFFCURVE",
"558 56 CURVE",
"532 47 OFFCURVE",
"494 41 OFFCURVE",
"458 41 CURVE SMOOTH"
);
},
{
closed = 1;
nodes = (
"882 237 LINE",
"882 454 LINE",
"842 454 LINE",
"827 374 LINE",
"818 371 OFFCURVE",
"803 370 OFFCURVE",
"780 370 CURVE SMOOTH",
"687 370 LINE SMOOTH",
"670 370 OFFCURVE",
"647 371 OFFCURVE",
"616 372 CURVE",
"616 319 LINE",
"647 320 OFFCURVE",
"670 321 OFFCURVE",
"687 321 CURVE SMOOTH",
"780 321 LINE SMOOTH",
"803 321 OFFCURVE",
"818 320 OFFCURVE",
"827 317 CURVE",
"842 237 LINE"
);
}
);
};
color = -1;
layerId = "1F9E295B-DEDB-4635-AE01-A776835412CD";
paths = (
{
closed = 1;
nodes = (
"511 -10 OFFCURVE",
"571 0 OFFCURVE",
"607 0 CURVE SMOOTH",
"877 0 LINE SMOOTH",
"898 0 OFFCURVE",
"911 0 OFFCURVE",
"960 -6 CURVE",
"1002 153 LINE",
"958 162 LINE",
"899 56 LINE",
"890 53 OFFCURVE",
"864 51 OFFCURVE",
"818 51 CURVE SMOOTH",
"691 51 LINE SMOOTH",
"675 51 OFFCURVE",
"657 53 OFFCURVE",
"632 56 CURVE",
"631 66 OFFCURVE",
"630 122 OFFCURVE",
"630 153 CURVE SMOOTH",
"630 495 LINE SMOOTH",
"630 537 OFFCURVE",
"631 610 OFFCURVE",
"632 617 CURVE",
"650 621 OFFCURVE",
"678 622 OFFCURVE",
"699 622 CURVE SMOOTH",
"845 622 LINE SMOOTH",
"861 622 OFFCURVE",
"877 621 OFFCURVE",
"883 619 CURVE",
"920 526 LINE",
"965 533 LINE",
"945 675 LINE",
"897 671 OFFCURVE",
"885 671 OFFCURVE",
"859 671 CURVE SMOOTH",
"584 671 LINE SMOOTH",
"536 671 OFFCURVE",
"493 679 OFFCURVE",
"433 679 CURVE SMOOTH",
"223 679 OFFCURVE",
"64 542 OFFCURVE",
"64 329 CURVE SMOOTH",
"64 113 OFFCURVE",
"205 -10 OFFCURVE",
"451 -10 CURVE SMOOTH"
);
},
{
closed = 1;
nodes = (
"269 41 OFFCURVE",
"154 153 OFFCURVE",
"154 342 CURVE SMOOTH",
"154 514 OFFCURVE",
"254 627 OFFCURVE",
"429 627 CURVE SMOOTH",
"475 627 OFFCURVE",
"513 623 OFFCURVE",
"557 611 CURVE",
"560 578 OFFCURVE",
"561 528 OFFCURVE",
"561 456 CURVE SMOOTH",
"561 221 LINE SMOOTH",
"561 112 OFFCURVE",
"561 79 OFFCURVE",
"559 56 CURVE",
"531 47 OFFCURVE",
"494 41 OFFCURVE",
"458 41 CURVE SMOOTH"
);
},
{
closed = 1;
nodes = (
"882 237 LINE",
"882 455 LINE",
"841 455 LINE",
"827 374 LINE",
"818 370 OFFCURVE",
"803 370 OFFCURVE",
"781 370 CURVE SMOOTH",
"687 370 LINE SMOOTH",
"670 370 OFFCURVE",
"647 370 OFFCURVE",
"616 371 CURVE",
"616 318 LINE",
"647 319 OFFCURVE",
"670 320 OFFCURVE",
"687 320 CURVE SMOOTH",
"781 320 LINE SMOOTH",
"803 320 OFFCURVE",
"818 319 OFFCURVE",
"827 315 CURVE",
"841 237 LINE"
);
}
);
width = 1044;
},
{
anchors = (
{
name = bottom;
position = "{609, 0}";
},
{
name = top;
position = "{609, 671}";
}
);
background = {
anchors = (
{
name = bottom;
position = "{610, 0}";
},
{
name = top;
position = "{610, 671}";
}
);
paths = (
{
closed = 1;
nodes = (
"480 -10 OFFCURVE",
"521 0 OFFCURVE",
"593 0 CURVE SMOOTH",
"810 0 LINE SMOOTH",
"869 0 OFFCURVE",
"966 -7 OFFCURVE",
"1002 -8 CURVE",
"1057 190 LINE",
"984 203 LINE",
"919 86 LINE",
"896 81 OFFCURVE",
"899 81 OFFCURVE",
"838 81 CURVE SMOOTH",
"825 81 LINE SMOOTH",
"771 81 OFFCURVE",
"742 82 OFFCURVE",
"710 88 CURVE",
"706 111 OFFCURVE",
"705 154 OFFCURVE",
"705 248 CURVE SMOOTH",
"705 446 LINE SMOOTH",
"705 535 OFFCURVE",
"706 570 OFFCURVE",
"710 592 CURVE",
"719 595 OFFCURVE",
"746 597 OFFCURVE",
"786 597 CURVE SMOOTH",
"826 597 LINE SMOOTH",
"846 597 OFFCURVE",
"858 595 OFFCURVE",
"885 591 CURVE",
"930 486 LINE",
"1006 496 LINE",
"970 678 LINE",
"933 678 OFFCURVE",
"816 671 OFFCURVE",
"759 671 CURVE SMOOTH",
"606 671 LINE SMOOTH",
"546 671 OFFCURVE",
"498 677 OFFCURVE",
"464 677 CURVE SMOOTH",
"154 677 OFFCURVE",
"49 493 OFFCURVE",
"49 327 CURVE SMOOTH",
"49 127 OFFCURVE",
"203 -10 OFFCURVE",
"429 -10 CURVE SMOOTH"
);
},
{
closed = 1;
nodes = (
"339 87 OFFCURVE",
"271 190 OFFCURVE",
"271 353 CURVE SMOOTH",
"271 498 OFFCURVE",
"345 591 OFFCURVE",
"455 591 CURVE SMOOTH",
"474 591 OFFCURVE",
"499 586 OFFCURVE",
"509 582 CURVE",
"512 567 OFFCURVE",
"515 477 OFFCURVE",
"515 415 CURVE SMOOTH",
"515 272 LINE SMOOTH",
"515 229 OFFCURVE",
"513 125 OFFCURVE",
"511 96 CURVE",
"486 91 OFFCURVE",
"459 87 OFFCURVE",
"450 87 CURVE SMOOTH"
);
},
{
closed = 1;
nodes = (
"918 224 LINE",
"918 462 LINE",
"845 462 LINE",
"835 387 LINE",
"824 390 OFFCURVE",
"795 386 OFFCURVE",
"762 386 CURVE SMOOTH",
"737 386 LINE SMOOTH",
"705 386 OFFCURVE",
"681 390 OFFCURVE",
"675 391 CURVE",
"675 298 LINE",
"681 299 OFFCURVE",
"705 302 OFFCURVE",
"737 302 CURVE SMOOTH",
"762 302 LINE SMOOTH",
"795 302 OFFCURVE",
"824 299 OFFCURVE",
"835 301 CURVE",
"845 224 LINE"
);
}
);
};
color = -1;
layerId = "722FC537-28B1-4F35-B842-D78FAAB5B143";
paths = (
{
closed = 1;
nodes = (
"479 -10 OFFCURVE",
"520 0 OFFCURVE",
"592 0 CURVE SMOOTH",
"809 0 LINE SMOOTH",
"867 0 OFFCURVE",
"965 -5 OFFCURVE",
"1001 -8 CURVE",
"1056 190 LINE",
"983 203 LINE",
"918 86 LINE",
"895 81 OFFCURVE",
"898 81 OFFCURVE",
"837 81 CURVE SMOOTH",
"824 81 LINE SMOOTH",
"770 81 OFFCURVE",
"741 82 OFFCURVE",
"709 88 CURVE",
"705 111 OFFCURVE",
"704 154 OFFCURVE",
"704 248 CURVE SMOOTH",
"704 446 LINE SMOOTH",
"704 535 OFFCURVE",
"705 570 OFFCURVE",
"709 592 CURVE",
"718 595 OFFCURVE",
"745 597 OFFCURVE",
"785 597 CURVE SMOOTH",
"825 597 LINE SMOOTH",
"845 597 OFFCURVE",
"857 595 OFFCURVE",
"883 591 CURVE",
"929 486 LINE",
"1005 496 LINE",
"969 678 LINE",
"931 675 OFFCURVE",
"815 671 OFFCURVE",
"758 671 CURVE SMOOTH",
"605 671 LINE SMOOTH",
"545 671 OFFCURVE",
"497 677 OFFCURVE",
"463 677 CURVE SMOOTH",
"153 677 OFFCURVE",
"48 493 OFFCURVE",
"48 327 CURVE SMOOTH",
"48 127 OFFCURVE",
"202 -10 OFFCURVE",
"427 -10 CURVE SMOOTH"
);
},
{
closed = 1;
nodes = (
"338 87 OFFCURVE",
"270 190 OFFCURVE",
"270 353 CURVE SMOOTH",
"270 498 OFFCURVE",
"344 591 OFFCURVE",
"454 591 CURVE SMOOTH",
"473 591 OFFCURVE",
"498 589 OFFCURVE",
"507 585 CURVE",
"511 569 OFFCURVE",
"514 477 OFFCURVE",
"514 415 CURVE SMOOTH",
"514 272 LINE SMOOTH",
"514 229 OFFCURVE",
"512 125 OFFCURVE",
"510 96 CURVE",
"488 89 OFFCURVE",
"466 87 OFFCURVE",
"449 87 CURVE SMOOTH"
);
},
{
closed = 1;
nodes = (
"917 224 LINE",
"917 462 LINE",
"843 462 LINE",
"834 387 LINE",
"823 390 OFFCURVE",
"794 386 OFFCURVE",
"761 386 CURVE SMOOTH",
"736 386 LINE SMOOTH",
"704 386 OFFCURVE",
"680 390 OFFCURVE",
"674 391 CURVE",
"674 298 LINE",
"680 299 OFFCURVE",
"704 302 OFFCURVE",
"736 302 CURVE SMOOTH",
"761 302 LINE SMOOTH",
"794 302 OFFCURVE",
"823 299 OFFCURVE",
"834 301 CURVE",
"843 224 LINE"
);
}
);
width = 1067;
},
{
anchors = (
{
name = bottom;
position = "{600, 0}";
},
{
name = top;
position = "{600, 671}";
}
);
color = -1;
layerId = "76B56D5A-2442-4808-93A9-707A1715678A";
paths = (
{
closed = 1;
nodes = (
"490 -10 OFFCURVE",
"541 0 OFFCURVE",
"597 0 CURVE SMOOTH",
"838 0 LINE SMOOTH",
"879 0 OFFCURVE",
"928 -1 OFFCURVE",
"980 -7 CURVE",
"1029 173 LINE",
"968 184 LINE",
"906 72 LINE",
"889 69 OFFCURVE",
"879 67 OFFCURVE",
"825 67 CURVE SMOOTH",
"760 67 LINE SMOOTH",
"725 67 OFFCURVE",
"700 69 OFFCURVE",
"670 73 CURVE",
"669 91 OFFCURVE",
"668 139 OFFCURVE",
"668 205 CURVE SMOOTH",
"668 467 LINE SMOOTH",
"668 536 OFFCURVE",
"669 590 OFFCURVE",
"670 603 CURVE",
"688 607 OFFCURVE",
"712 608 OFFCURVE",
"742 608 CURVE SMOOTH",
"831 608 LINE SMOOTH",
"849 608 OFFCURVE",
"863 607 OFFCURVE",
"880 603 CURVE",
"922 505 LINE",
"983 513 LINE",
"954 677 LINE",
"901 672 OFFCURVE",
"844 671 OFFCURVE",
"802 671 CURVE SMOOTH",
"592 671 LINE SMOOTH",
"538 671 OFFCURVE",
"492 678 OFFCURVE",
"446 678 CURVE SMOOTH",
"182 678 OFFCURVE",
"52 514 OFFCURVE",
"52 328 CURVE SMOOTH",
"52 120 OFFCURVE",
"200 -10 OFFCURVE",
"434 -10 CURVE SMOOTH"
);
},
{
closed = 1;
nodes = (
"304 66 OFFCURVE",
"213 173 OFFCURVE",
"213 347 CURVE SMOOTH",
"213 505 OFFCURVE",
"298 608 OFFCURVE",
"439 608 CURVE SMOOTH",
"471 608 OFFCURVE",
"503 603 OFFCURVE",
"527 595 CURVE",
"530 573 OFFCURVE",
"534 501 OFFCURVE",
"534 434 CURVE SMOOTH",
"534 248 LINE SMOOTH",
"534 175 OFFCURVE",
"532 104 OFFCURVE",
"529 77 CURVE",
"504 71 OFFCURVE",
"473 66 OFFCURVE",
"450 66 CURVE SMOOTH"
);
},
{
closed = 1;
nodes = (
"897 231 LINE",
"897 458 LINE",
"839 458 LINE",
"828 381 LINE",
"817 381 OFFCURVE",
"796 379 OFFCURVE",
"767 379 CURVE SMOOTH",
"711 379 LINE SMOOTH",
"685 379 OFFCURVE",
"662 381 OFFCURVE",
"645 382 CURVE",
"645 307 LINE",
"662 309 OFFCURVE",
"685 311 OFFCURVE",
"711 311 CURVE SMOOTH",
"767 311 LINE SMOOTH",
"796 311 OFFCURVE",
"817 309 OFFCURVE",
"828 307 CURVE",
"839 231 LINE"
);
}
);
width = 1054;
}
);
leftKerningGroup = O;
leftMetricsKey = "=O+1";
note = OE;
rightKerningGroup = E;
rightMetricsKey = "=E+1";
unicode = 0152;
},
{
glyphname = P;
lastChange = "2020-06-19 11:48:22 +0000";
layers = (
{
anchors = (
{
name = bottom;
position = "{170, 0}";
},
{
name = top;
position = "{273, 671}";
}
);
background = {
anchors = (
{
name = bottom;
position = "{170, 0}";
},
{
name = top;
position = "{273, 671}";
}
);
paths = (
{
closed = 1;
nodes = (
"303 0 LINE",
"305 39 LINE",
"212 53 LINE",
"207 59 OFFCURVE",
"204 80 OFFCURVE",
"204 210 CURVE",
"203 465 LINE",
"203 532 OFFCURVE",
"205 614 OFFCURVE",
"206 627 CURVE",
"278 627 LINE SMOOTH",
"361 627 OFFCURVE",
"432 576 OFFCURVE",
"432 465 CURVE SMOOTH",
"432 368 OFFCURVE",
"373 324 OFFCURVE",
"276 324 CURVE SMOOTH",
"251 324 OFFCURVE",
"226 329 OFFCURVE",
"185 338 CURVE",
"185 286 LINE",
"211 282 OFFCURVE",
"241 277 OFFCURVE",
"279 277 CURVE SMOOTH",
"394 277 OFFCURVE",
"506 351 OFFCURVE",
"506 479 CURVE SMOOTH",
"506 603 OFFCURVE",
"418 671 OFFCURVE",
"285 671 CURVE SMOOTH",
"62 671 LINE",
"61 634 LINE",
"129 616 LINE",
"132 610 OFFCURVE",
"135 591 OFFCURVE",
"135 465 CURVE",
"134 210 LINE",
"134 80 OFFCURVE",
"130 59 OFFCURVE",
"128 51 CURVE",
"64 37 LINE",
"66 0 LINE"
);
}
);
};
color = -1;
layerId = "1F9E295B-DEDB-4635-AE01-A776835412CD";
paths = (
{
closed = 1;
nodes = (
"301 0 LINE",
"303 39 LINE",
"207 54 LINE",
"206 64 OFFCURVE",
"203 80 OFFCURVE",
"203 210 CURVE",
"202 465 LINE",
"202 533 OFFCURVE",
"203 614 OFFCURVE",
"205 627 CURVE",
"279 627 LINE SMOOTH",
"365 627 OFFCURVE",
"432 576 OFFCURVE",
"432 465 CURVE SMOOTH",
"432 366 OFFCURVE",
"373 325 OFFCURVE",
"275 325 CURVE SMOOTH",
"251 325 OFFCURVE",
"226 327 OFFCURVE",
"185 338 CURVE",
"185 286 LINE",
"211 281 OFFCURVE",
"241 277 OFFCURVE",
"280 277 CURVE SMOOTH",
"394 277 OFFCURVE",
"505 351 OFFCURVE",
"505 479 CURVE SMOOTH",
"505 602 OFFCURVE",
"418 671 OFFCURVE",
"285 671 CURVE SMOOTH",
"64 671 LINE",
"62 634 LINE",
"130 616 LINE",
"131 610 OFFCURVE",
"135 591 OFFCURVE",
"135 465 CURVE",
"134 210 LINE",
"134 80 OFFCURVE",
"131 59 OFFCURVE",
"130 51 CURVE",
"65 37 LINE",
"67 0 LINE"
);
}
);
width = 560;
},
{
anchors = (
{
name = bottom;
position = "{215, 0}";
},
{
name = top;
position = "{357, 671}";
}
);
background = {
anchors = (
{
name = bottom;
position = "{216, 0}";
},
{
name = top;
position = "{358, 671}";
}
);
paths = (
{
closed = 1;
nodes = (
"409 0 LINE",
"413 67 LINE",
"320 86 LINE",
"318 96 OFFCURVE",
"312 186 OFFCURVE",
"312 262 CURVE",
"311 414 LINE",
"311 535 OFFCURVE",
"311 578 OFFCURVE",
"312 599 CURVE",
"326 599 LINE SMOOTH",
"416 599 OFFCURVE",
"462 555 OFFCURVE",
"462 456 CURVE SMOOTH",
"462 375 OFFCURVE",
"427 327 OFFCURVE",
"366 327 CURVE SMOOTH",
"329 327 OFFCURVE",
"304 334 OFFCURVE",
"296 343 CURVE",
"296 249 LINE",
"318 245 OFFCURVE",
"344 241 OFFCURVE",
"363 241 CURVE SMOOTH",
"566 241 OFFCURVE",
"665 346 OFFCURVE",
"665 472 CURVE SMOOTH",
"665 600 OFFCURVE",
"570 671 OFFCURVE",
"360 671 CURVE SMOOTH",
"40 671 LINE",
"37 606 LINE",
"111 591 LINE",
"117 582 OFFCURVE",
"120 486 OFFCURVE",
"120 414 CURVE",
"119 262 LINE",
"119 186 OFFCURVE",
"115 96 OFFCURVE",
"110 87 CURVE",
"40 65 LINE",
"43 0 LINE"
);
}
);
};
color = -1;
layerId = "722FC537-28B1-4F35-B842-D78FAAB5B143";
paths = (
{
closed = 1;
nodes = (
"408 0 LINE",
"411 67 LINE",
"319 86 LINE",
"317 96 OFFCURVE",
"311 186 OFFCURVE",
"311 262 CURVE",
"310 414 LINE",
"310 535 OFFCURVE",
"310 578 OFFCURVE",
"311 599 CURVE",
"325 599 LINE SMOOTH",
"415 599 OFFCURVE",
"461 555 OFFCURVE",
"461 456 CURVE SMOOTH",
"461 375 OFFCURVE",
"426 327 OFFCURVE",
"365 327 CURVE SMOOTH",
"328 327 OFFCURVE",
"303 334 OFFCURVE",
"295 338 CURVE",
"295 249 LINE",
"317 245 OFFCURVE",
"343 241 OFFCURVE",
"362 241 CURVE SMOOTH",
"565 241 OFFCURVE",
"664 346 OFFCURVE",
"664 472 CURVE SMOOTH",
"664 600 OFFCURVE",
"569 671 OFFCURVE",
"359 671 CURVE SMOOTH",
"39 671 LINE",
"35 606 LINE",
"110 591 LINE",
"115 582 OFFCURVE",
"119 486 OFFCURVE",
"119 414 CURVE",
"118 262 LINE",
"118 186 OFFCURVE",
"114 96 OFFCURVE",
"109 87 CURVE",
"39 65 LINE",
"42 0 LINE"
);
}
);
width = 698;
},
{
anchors = (
{
name = bottom;
position = "{190, 0}";
},
{
name = top;
position = "{314, 671}";
}
);
color = -1;
layerId = "76B56D5A-2442-4808-93A9-707A1715678A";
paths = (
{
closed = 1;
nodes = (
"353 0 LINE",
"357 55 LINE",
"264 71 LINE",
"262 79 OFFCURVE",
"257 137 OFFCURVE",
"257 238 CURVE",
"256 438 LINE",
"256 534 OFFCURVE",
"257 595 OFFCURVE",
"258 611 CURVE",
"299 611 LINE SMOOTH",
"386 611 OFFCURVE",
"443 565 OFFCURVE",
"443 461 CURVE SMOOTH",
"443 371 OFFCURVE",
"398 326 OFFCURVE",
"319 326 CURVE SMOOTH",
"288 326 OFFCURVE",
"263 331 OFFCURVE",
"240 341 CURVE",
"240 266 LINE",
"264 262 OFFCURVE",
"291 258 OFFCURVE",
"320 258 CURVE SMOOTH",
"481 258 OFFCURVE",
"587 349 OFFCURVE",
"587 475 CURVE SMOOTH",
"587 601 OFFCURVE",
"496 671 OFFCURVE",
"321 671 CURVE SMOOTH",
"47 671 LINE",
"43 618 LINE",
"115 602 LINE",
"119 594 OFFCURVE",
"122 534 OFFCURVE",
"122 438 CURVE",
"121 238 LINE",
"121 137 OFFCURVE",
"118 79 OFFCURVE",
"114 70 CURVE",
"47 53 LINE",
"50 0 LINE"
);
}
);
width = 624;
}
);
leftKerningGroup = H;
note = P;
rightKerningGroup = P;
unicode = 0050;
},
{
glyphname = Thorn;
lastChange = "2020-06-19 11:48:22 +0000";
layers = (
{
background = {
paths = (
{
closed = 1;
nodes = (
"300 0 LINE",
"302 39 LINE",
"209 51 LINE",
"206 64 OFFCURVE",
"203 96 OFFCURVE",
"203 127 CURVE SMOOTH",
"203 501 LINE",
"277 501 LINE SMOOTH",
"360 501 OFFCURVE",
"431 450 OFFCURVE",
"431 339 CURVE SMOOTH",
"431 242 OFFCURVE",
"372 195 OFFCURVE",
"275 195 CURVE SMOOTH",
"250 195 OFFCURVE",
"225 200 OFFCURVE",
"184 209 CURVE",
"184 160 LINE",
"210 155 OFFCURVE",
"239 150 OFFCURVE",
"278 150 CURVE SMOOTH",
"393 150 OFFCURVE",
"504 225 OFFCURVE",
"504 353 CURVE SMOOTH",
"504 477 OFFCURVE",
"417 545 OFFCURVE",
"284 545 CURVE SMOOTH",
"195 545 LINE",
"205 514 LINE",
"205 567 LINE SMOOTH",
"205 594 OFFCURVE",
"206 609 OFFCURVE",
"207 617 CURVE",
"276 634 LINE",
"274 671 LINE",
"61 671 LINE",
"59 634 LINE",
"128 617 LINE",
"132 608 OFFCURVE",
"134 557 OFFCURVE",
"134 453 CURVE SMOOTH",
"134 216 LINE SMOOTH",
"134 113 OFFCURVE",
"132 62 OFFCURVE",
"131 51 CURVE",
"67 37 LINE",
"69 0 LINE"
);
}
);
};
color = -1;
layerId = "1F9E295B-DEDB-4635-AE01-A776835412CD";
paths = (
{
closed = 1;
nodes = (
"298 0 LINE",
"301 39 LINE",
"206 51 LINE",
"205 64 OFFCURVE",
"202 96 OFFCURVE",
"202 127 CURVE SMOOTH",
"202 501 LINE",
"278 501 LINE SMOOTH",
"360 501 OFFCURVE",
"431 450 OFFCURVE",
"431 339 CURVE SMOOTH",
"431 241 OFFCURVE",
"371 194 OFFCURVE",
"274 194 CURVE SMOOTH",
"250 194 OFFCURVE",
"223 198 OFFCURVE",
"184 209 CURVE",
"184 160 LINE",
"210 155 OFFCURVE",
"240 150 OFFCURVE",
"278 150 CURVE SMOOTH",
"393 150 OFFCURVE",
"504 225 OFFCURVE",
"504 353 CURVE SMOOTH",
"504 477 OFFCURVE",
"417 545 OFFCURVE",
"283 545 CURVE SMOOTH",
"194 545 LINE",
"202 514 LINE",
"202 567 LINE SMOOTH",
"202 594 OFFCURVE",
"203 609 OFFCURVE",
"203 617 CURVE",
"272 634 LINE",
"270 671 LINE",
"63 671 LINE",
"61 634 LINE",
"129 617 LINE",
"133 608 OFFCURVE",
"134 558 OFFCURVE",
"134 454 CURVE SMOOTH",
"134 216 LINE SMOOTH",
"134 113 OFFCURVE",
"133 63 OFFCURVE",
"131 51 CURVE",
"67 37 LINE",
"70 0 LINE"
);
}
);
width = 559;
},
{
background = {
paths = (
{
closed = 1;
nodes = (
"399 0 LINE",
"402 67 LINE",
"310 87 LINE",
"312 94 OFFCURVE",
"310 120 OFFCURVE",
"310 157 CURVE SMOOTH",
"310 494 LINE",
"325 494 LINE SMOOTH",
"415 494 OFFCURVE",
"461 450 OFFCURVE",
"461 351 CURVE SMOOTH",
"461 270 OFFCURVE",
"426 218 OFFCURVE",
"365 218 CURVE SMOOTH",
"328 218 OFFCURVE",
"303 225 OFFCURVE",
"295 234 CURVE",
"295 146 LINE",
"317 142 OFFCURVE",
"343 138 OFFCURVE",
"362 138 CURVE SMOOTH",
"565 138 OFFCURVE",
"664 241 OFFCURVE",
"664 367 CURVE SMOOTH",
"664 496 OFFCURVE",
"569 566 OFFCURVE",
"359 566 CURVE SMOOTH",
"258 566 LINE",
"309 521 LINE",
"309 547 LINE SMOOTH",
"309 561 OFFCURVE",
"310 581 OFFCURVE",
"311 587 CURVE",
"386 606 LINE",
"382 671 LINE",
"39 671 LINE",
"35 606 LINE",
"110 587 LINE",
"114 579 OFFCURVE",
"119 499 OFFCURVE",
"119 405 CURVE SMOOTH",
"119 267 LINE SMOOTH",
"119 174 OFFCURVE",
"114 95 OFFCURVE",
"109 87 CURVE",
"38 65 LINE",
"42 0 LINE"
);
}
);
};
color = -1;
layerId = "722FC537-28B1-4F35-B842-D78FAAB5B143";
paths = (
{
closed = 1;
nodes = (
"398 0 LINE",
"401 67 LINE",
"309 87 LINE",
"309 94 OFFCURVE",
"309 120 OFFCURVE",
"309 157 CURVE SMOOTH",
"309 494 LINE",
"323 494 LINE SMOOTH",
"414 494 OFFCURVE",
"459 450 OFFCURVE",
"459 351 CURVE SMOOTH",
"459 270 OFFCURVE",
"425 218 OFFCURVE",
"352 218 CURVE SMOOTH",
"327 218 OFFCURVE",
"302 225 OFFCURVE",
"294 234 CURVE",
"294 146 LINE",
"315 142 OFFCURVE",
"342 138 OFFCURVE",
"361 138 CURVE SMOOTH",
"563 138 OFFCURVE",
"663 241 OFFCURVE",
"663 367 CURVE SMOOTH",
"663 496 OFFCURVE",
"568 566 OFFCURVE",
"358 566 CURVE SMOOTH",
"257 566 LINE",
"307 521 LINE",
"307 547 LINE SMOOTH",
"307 561 OFFCURVE",
"309 581 OFFCURVE",
"310 587 CURVE",
"384 606 LINE",
"381 671 LINE",
"38 671 LINE",
"34 606 LINE",
"109 587 LINE",
"113 579 OFFCURVE",
"118 499 OFFCURVE",
"118 405 CURVE SMOOTH",
"118 267 LINE SMOOTH",
"118 174 OFFCURVE",
"113 95 OFFCURVE",
"107 87 CURVE",
"37 65 LINE",
"40 0 LINE"
);
}
);
width = 699;
},
{
color = -1;
layerId = "76B56D5A-2442-4808-93A9-707A1715678A";
paths = (
{
closed = 1;
nodes = (
"349 0 LINE",
"352 55 LINE",
"259 70 LINE",
"258 80 OFFCURVE",
"256 110 OFFCURVE",
"256 143 CURVE SMOOTH",
"256 497 LINE",
"298 497 LINE SMOOTH",
"385 497 OFFCURVE",
"442 450 OFFCURVE",
"442 345 CURVE SMOOTH",
"442 257 OFFCURVE",
"397 208 OFFCURVE",
"318 208 CURVE SMOOTH",
"287 208 OFFCURVE",
"262 214 OFFCURVE",
"239 223 CURVE",
"239 153 LINE",
"263 149 OFFCURVE",
"290 144 OFFCURVE",
"319 144 CURVE SMOOTH",
"480 144 OFFCURVE",
"586 234 OFFCURVE",
"586 360 CURVE SMOOTH",
"586 487 OFFCURVE",
"495 557 OFFCURVE",
"320 557 CURVE SMOOTH",
"224 557 LINE",
"256 518 LINE",
"256 557 LINE SMOOTH",
"256 576 OFFCURVE",
"257 593 OFFCURVE",
"257 601 CURVE",
"328 618 LINE",
"325 671 LINE",
"46 671 LINE",
"42 618 LINE",
"114 601 LINE",
"118 592 OFFCURVE",
"121 526 OFFCURVE",
"121 426 CURVE SMOOTH",
"121 243 LINE SMOOTH",
"121 145 OFFCURVE",
"118 80 OFFCURVE",
"114 70 CURVE",
"48 53 LINE",
"51 0 LINE"
);
}
);
width = 623;
}
);
leftKerningGroup = H;
note = Thorn;
rightKerningGroup = Thorn;
unicode = 00DE;
},
{
glyphname = Q;
lastChange = "2020-06-19 11:48:22 +0000";
layers = (
{
anchors = (
{
name = top;
position = "{386, 671}";
}
);
background = {
anchors = (
{
name = top;
position = "{387, 671}";
}
);
paths = (
{
closed = 1;
nodes = (
"403 -8 LINE",
"583 -8 OFFCURVE",
"712 149 OFFCURVE",
"712 338 CURVE SMOOTH",
"712 541 OFFCURVE",
"583 681 OFFCURVE",
"398 681 CURVE SMOOTH",
"206 681 OFFCURVE",
"63 533 OFFCURVE",
"63 335 CURVE SMOOTH",
"63 130 OFFCURVE",
"198 -10 OFFCURVE",
"393 -10 CURVE"
);
},
{
closed = 1;
nodes = (
"730 -147 OFFCURVE",
"780 -136 OFFCURVE",
"819 -115 CURVE",
"811 -77 LINE",
"789 -83 OFFCURVE",
"766 -87 OFFCURVE",
"742 -87 CURVE SMOOTH",
"693 -87 OFFCURVE",
"642 -73 OFFCURVE",
"587 -43 CURVE SMOOTH",
"542 -19 OFFCURVE",
"510 -3 OFFCURVE",
"459 4 CURVE",
"325 4 LINE",
"376 -6 OFFCURVE",
"479 -85 OFFCURVE",
"525 -104 CURVE SMOOTH",
"614 -147 OFFCURVE",
"648 -147 OFFCURVE",
"681 -147 CURVE SMOOTH"
);
},
{
closed = 1;
nodes = (
"258 40 OFFCURVE",
"152 170 OFFCURVE",
"152 351 CURVE SMOOTH",
"152 525 OFFCURVE",
"240 633 OFFCURVE",
"384 633 CURVE SMOOTH",
"528 633 OFFCURVE",
"627 500 OFFCURVE",
"627 312 CURVE SMOOTH",
"627 150 OFFCURVE",
"537 40 OFFCURVE",
"406 40 CURVE SMOOTH"
);
}
);
};
color = -1;
layerId = "1F9E295B-DEDB-4635-AE01-A776835412CD";
paths = (
{
closed = 1;
nodes = (
"403 -8 LINE",
"583 -8 OFFCURVE",
"712 149 OFFCURVE",
"712 338 CURVE SMOOTH",
"712 542 OFFCURVE",
"583 681 OFFCURVE",
"398 681 CURVE SMOOTH",
"206 681 OFFCURVE",
"63 533 OFFCURVE",
"63 335 CURVE SMOOTH",
"63 130 OFFCURVE",
"199 -9 OFFCURVE",
"393 -9 CURVE"
);
},
{
closed = 1;
nodes = (
"730 -147 OFFCURVE",
"781 -136 OFFCURVE",
"821 -112 CURVE",
"811 -77 LINE",
"790 -83 OFFCURVE",
"767 -87 OFFCURVE",
"742 -87 CURVE SMOOTH",
"693 -87 OFFCURVE",
"638 -73 OFFCURVE",
"583 -43 CURVE SMOOTH",
"537 -19 OFFCURVE",
"505 -3 OFFCURVE",
"432 5 CURVE",
"326 5 LINE",
"376 -6 OFFCURVE",
"480 -83 OFFCURVE",
"525 -104 CURVE SMOOTH",
"592 -136 OFFCURVE",
"632 -147 OFFCURVE",
"681 -147 CURVE SMOOTH"
);
},
{
closed = 1;
nodes = (
"258 40 OFFCURVE",
"152 170 OFFCURVE",
"152 351 CURVE SMOOTH",
"152 525 OFFCURVE",
"240 633 OFFCURVE",
"384 633 CURVE SMOOTH",
"528 633 OFFCURVE",
"627 501 OFFCURVE",
"627 312 CURVE SMOOTH",
"627 150 OFFCURVE",
"537 40 OFFCURVE",
"406 40 CURVE SMOOTH"
);
}
);
width = 775;
},
{
anchors = (
{
name = top;
position = "{415, 671}";
}
);
background = {
paths = (
{
closed = 1;
nodes = (
"441 -3 LINE",
"569 -3 OFFCURVE",
"783 93 OFFCURVE",
"783 347 CURVE SMOOTH",
"783 544 OFFCURVE",
"634 681 OFFCURVE",
"423 681 CURVE SMOOTH",
"205 681 OFFCURVE",
"48 530 OFFCURVE",
"48 323 CURVE SMOOTH",
"48 130 OFFCURVE",
"207 -7 OFFCURVE",
"424 -7 CURVE"
);
},
{
closed = 1;
nodes = (
"781 -177 OFFCURVE",
"842 -155 OFFCURVE",
"882 -127 CURVE",
"863 -56 LINE",
"832 -64 OFFCURVE",
"805 -66 OFFCURVE",
"787 -66 CURVE SMOOTH",
"743 -66 OFFCURVE",
"722 -57 OFFCURVE",
"665 -19 CURVE SMOOTH",
"622 9 OFFCURVE",
"560 21 OFFCURVE",
"502 21 CURVE",
"285 21 LINE",
"333 -3 OFFCURVE",
"335 -3 OFFCURVE",
"398 -64 CURVE SMOOTH",
"451 -117 OFFCURVE",
"543 -177 OFFCURVE",
"707 -177 CURVE SMOOTH"
);
},
{
closed = 1;
nodes = (
"334 89 OFFCURVE",
"269 202 OFFCURVE",
"269 365 CURVE SMOOTH",
"269 509 OFFCURVE",
"322 593 OFFCURVE",
"409 593 CURVE SMOOTH",
"504 593 OFFCURVE",
"563 487 OFFCURVE",
"563 317 CURVE SMOOTH",
"563 163 OFFCURVE",
"522 89 OFFCURVE",
"431 89 CURVE SMOOTH"
);
}
);
};
color = -1;
layerId = "722FC537-28B1-4F35-B842-D78FAAB5B143";
paths = (
{
closed = 1;
nodes = (
"440 -3 LINE",
"568 -3 OFFCURVE",
"782 93 OFFCURVE",
"782 347 CURVE SMOOTH",
"782 544 OFFCURVE",
"633 681 OFFCURVE",
"422 681 CURVE SMOOTH",
"203 681 OFFCURVE",
"47 530 OFFCURVE",
"47 323 CURVE SMOOTH",
"47 130 OFFCURVE",
"206 -7 OFFCURVE",
"423 -7 CURVE"
);
},
{
closed = 1;
nodes = (
"779 -177 OFFCURVE",
"841 -155 OFFCURVE",
"881 -127 CURVE",
"862 -56 LINE",
"831 -64 OFFCURVE",
"806 -66 OFFCURVE",
"790 -66 CURVE SMOOTH",
"753 -66 OFFCURVE",
"729 -57 OFFCURVE",
"662 -19 CURVE SMOOTH",
"623 2 OFFCURVE",
"559 17 OFFCURVE",
"501 17 CURVE",
"295 17 LINE",
"331 -3 OFFCURVE",
"345 -13 OFFCURVE",
"397 -64 CURVE SMOOTH",
"450 -118 OFFCURVE",
"542 -177 OFFCURVE",
"706 -177 CURVE SMOOTH"
);
},
{
closed = 1;
nodes = (
"333 89 OFFCURVE",
"267 202 OFFCURVE",
"267 365 CURVE SMOOTH",
"267 509 OFFCURVE",
"321 593 OFFCURVE",
"408 593 CURVE SMOOTH",
"503 593 OFFCURVE",
"562 487 OFFCURVE",
"562 317 CURVE SMOOTH",
"562 163 OFFCURVE",
"521 89 OFFCURVE",
"430 89 CURVE SMOOTH"
);
}
);
width = 830;
},
{
anchors = (
{
name = top;
position = "{399, 671}";
}
);
background = {
paths = (
{
closed = 1;
nodes = (
"567 -10 OFFCURVE",
"746 118 OFFCURVE",
"746 343 CURVE SMOOTH",
"746 543 OFFCURVE",
"607 681 OFFCURVE",
"407 681 CURVE SMOOTH",
"201 681 OFFCURVE",
"51 531 OFFCURVE",
"51 329 CURVE SMOOTH",
"51 130 OFFCURVE",
"199 -10 OFFCURVE",
"406 -10 CURVE SMOOTH"
);
},
{
closed = 1;
nodes = (
"296 67 OFFCURVE",
"211 187 OFFCURVE",
"211 358 CURVE SMOOTH",
"211 515 OFFCURVE",
"280 613 OFFCURVE",
"393 613 CURVE SMOOTH",
"511 613 OFFCURVE",
"589 494 OFFCURVE",
"589 314 CURVE SMOOTH",
"589 159 OFFCURVE",
"527 67 OFFCURVE",
"415 67 CURVE SMOOTH"
);
}
);
};
color = -1;
layerId = "76B56D5A-2442-4808-93A9-707A1715678A";
paths = (
{
closed = 1;
nodes = (
"421 -6 LINE",
"573 -6 OFFCURVE",
"746 122 OFFCURVE",
"746 343 CURVE SMOOTH",
"746 543 OFFCURVE",
"607 681 OFFCURVE",
"407 681 CURVE SMOOTH",
"201 681 OFFCURVE",
"51 531 OFFCURVE",
"51 329 CURVE SMOOTH",
"51 130 OFFCURVE",
"199 -8 OFFCURVE",
"406 -8 CURVE"
);
},
{
closed = 1;
nodes = (
"754 -163 OFFCURVE",
"809 -146 OFFCURVE",
"849 -121 CURVE",
"835 -65 LINE",
"809 -73 OFFCURVE",
"784 -75 OFFCURVE",
"762 -75 CURVE SMOOTH",
"718 -75 OFFCURVE",
"683 -64 OFFCURVE",
"640 -39 CURVE SMOOTH",
"582 -5 OFFCURVE",
"513 10 OFFCURVE",
"457 10 CURVE",
"304 10 LINE",
"349 -5 OFFCURVE",
"399 -42 OFFCURVE",
"453 -83 CURVE SMOOTH",
"520 -135 OFFCURVE",
"587 -163 OFFCURVE",
"691 -163 CURVE SMOOTH"
);
},
{
closed = 1;
nodes = (
"296 67 OFFCURVE",
"211 187 OFFCURVE",
"211 358 CURVE SMOOTH",
"211 515 OFFCURVE",
"280 613 OFFCURVE",
"393 613 CURVE SMOOTH",
"511 613 OFFCURVE",
"589 494 OFFCURVE",
"589 314 CURVE SMOOTH",
"589 157 OFFCURVE",
"526 67 OFFCURVE",
"415 67 CURVE SMOOTH"
);
}
);
width = 798;
}
);
leftKerningGroup = O;
leftMetricsKey = O;
widthMetricsKey = O;
note = Q;
rightKerningGroup = O;
unicode = 0051;
},
{
glyphname = R;
lastChange = "2020-06-19 11:48:22 +0000";
layers = (
{
anchors = (
{
name = bottom;
position = "{344, 0}";
},
{
name = top;
position = "{289, 671}";
}
);
background = {
anchors = (
{
name = bottom;
position = "{344, 0}";
},
{
name = top;
position = "{289, 671}";
}
);
paths = (
{
closed = 1;
nodes = (
"282 0 LINE",
"284 37 LINE",
"211 53 LINE",
"206 54 OFFCURVE",
"203 97 OFFCURVE",
"203 216 CURVE SMOOTH",
"203 475 LINE SMOOTH",
"203 637 OFFCURVE",
"203 620 OFFCURVE",
"206 627 CURVE",
"283 627 LINE SMOOTH",
"374 627 OFFCURVE",
"423 583 OFFCURVE",
"423 497 CURVE SMOOTH",
"423 411 OFFCURVE",
"366 361 OFFCURVE",
"263 361 CURVE SMOOTH",
"188 361 LINE",
"188 316 LINE",
"263 316 LINE SMOOTH",
"400 316 OFFCURVE",
"497 397 OFFCURVE",
"497 512 CURVE SMOOTH",
"497 614 OFFCURVE",
"425 671 OFFCURVE",
"293 671 CURVE SMOOTH",
"62 671 LINE",
"61 634 LINE",
"129 619 LINE",
"133 610 OFFCURVE",
"135 562 OFFCURVE",
"135 453 CURVE SMOOTH",
"135 216 LINE SMOOTH",
"135 138 OFFCURVE",
"133 75 OFFCURVE",
"130 53 CURVE",
"62 37 LINE",
"64 0 LINE"
);
},
{
closed = 1;
nodes = (
"594 -10 OFFCURVE",
"610 -10 OFFCURVE",
"620 -7 CURVE",
"621 28 LINE",
"562 37 OFFCURVE",
"531 64 OFFCURVE",
"453 173 CURVE SMOOTH",
"335 351 LINE",
"269 336 LINE",
"353 194 LINE SMOOTH",
"447 34 OFFCURVE",
"493 -10 OFFCURVE",
"582 -10 CURVE SMOOTH"
);
}
);
};
color = -1;
layerId = "1F9E295B-DEDB-4635-AE01-A776835412CD";
paths = (
{
closed = 1;
nodes = (
"274 0 LINE",
"277 37 LINE",
"208 54 LINE",
"206 74 OFFCURVE",
"203 97 OFFCURVE",
"203 216 CURVE SMOOTH",
"203 474 LINE SMOOTH",
"203 637 OFFCURVE",
"203 621 OFFCURVE",
"206 627 CURVE",
"282 627 LINE SMOOTH",
"374 627 OFFCURVE",
"423 583 OFFCURVE",
"423 497 CURVE SMOOTH",
"423 410 OFFCURVE",
"366 361 OFFCURVE",
"263 361 CURVE SMOOTH",
"187 361 LINE",
"187 317 LINE",
"263 317 LINE SMOOTH",
"400 317 OFFCURVE",
"497 397 OFFCURVE",
"497 510 CURVE SMOOTH",
"497 613 OFFCURVE",
"421 671 OFFCURVE",
"293 671 CURVE SMOOTH",
"65 671 LINE",
"63 634 LINE",
"131 619 LINE",
"134 610 OFFCURVE",
"135 562 OFFCURVE",
"135 454 CURVE SMOOTH",
"135 216 LINE SMOOTH",
"135 138 OFFCURVE",
"133 74 OFFCURVE",
"133 54 CURVE",
"64 37 LINE",
"66 0 LINE"
);
},
{
closed = 1;
nodes = (
"594 -10 OFFCURVE",
"610 -10 OFFCURVE",
"621 -7 CURVE",
"622 27 LINE",
"562 37 OFFCURVE",
"523 65 OFFCURVE",
"453 173 CURVE SMOOTH",
"335 351 LINE",
"269 336 LINE",
"353 194 LINE SMOOTH",
"448 35 OFFCURVE",
"494 -10 OFFCURVE",
"582 -10 CURVE SMOOTH"
);
}
);
width = 618;
},
{
anchors = (
{
name = bottom;
position = "{405, 0}";
},
{
name = top;
position = "{373, 671}";
}
);
background = {
anchors = (
{
name = bottom;
position = "{406, 0}";
},
{
name = top;
position = "{374, 671}";
}
);
paths = (
{
closed = 1;
nodes = (
"369 0 LINE",
"374 65 LINE",
"312 86 LINE",
"312 127 OFFCURVE",
"310 230 OFFCURVE",
"310 267 CURVE SMOOTH",
"310 407 LINE SMOOTH",
"310 465 OFFCURVE",
"311 587 OFFCURVE",
"312 599 CURVE",
"342 599 LINE SMOOTH",
"408 599 OFFCURVE",
"445 562 OFFCURVE",
"445 497 CURVE SMOOTH",
"445 424 OFFCURVE",
"397 373 OFFCURVE",
"331 373 CURVE SMOOTH",
"303 373 LINE",
"303 297 LINE",
"363 297 LINE SMOOTH",
"527 297 OFFCURVE",
"645 378 OFFCURVE",
"645 491 CURVE SMOOTH",
"645 617 OFFCURVE",
"558 671 OFFCURVE",
"363 671 CURVE SMOOTH",
"40 671 LINE",
"37 606 LINE",
"111 584 LINE",
"115 577 OFFCURVE",
"120 493 OFFCURVE",
"120 405 CURVE SMOOTH",
"120 267 LINE SMOOTH",
"120 215 OFFCURVE",
"118 103 OFFCURVE",
"117 86 CURVE",
"42 65 LINE",
"46 0 LINE"
);
},
{
closed = 1;
nodes = (
"705 -15 OFFCURVE",
"733 -13 OFFCURVE",
"763 -7 CURVE",
"765 54 LINE",
"707 72 OFFCURVE",
"658 109 OFFCURVE",
"624 157 CURVE SMOOTH",
"480 351 LINE",
"328 315 LINE",
"384 175 LINE SMOOTH",
"433 50 OFFCURVE",
"531 -15 OFFCURVE",
"677 -15 CURVE SMOOTH"
);
}
);
};
color = -1;
layerId = "722FC537-28B1-4F35-B842-D78FAAB5B143";
paths = (
{
closed = 1;
nodes = (
"369 0 LINE",
"373 65 LINE",
"311 86 LINE",
"311 127 OFFCURVE",
"309 230 OFFCURVE",
"309 267 CURVE SMOOTH",
"309 407 LINE SMOOTH",
"309 465 OFFCURVE",
"310 587 OFFCURVE",
"311 599 CURVE",
"341 599 LINE SMOOTH",
"407 599 OFFCURVE",
"443 562 OFFCURVE",
"443 497 CURVE SMOOTH",
"443 424 OFFCURVE",
"395 373 OFFCURVE",
"330 373 CURVE SMOOTH",
"279 373 LINE",
"279 297 LINE",
"362 297 LINE SMOOTH",
"526 297 OFFCURVE",
"643 378 OFFCURVE",
"643 491 CURVE SMOOTH",
"643 617 OFFCURVE",
"557 671 OFFCURVE",
"362 671 CURVE SMOOTH",
"39 671 LINE",
"35 606 LINE",
"110 584 LINE",
"114 577 OFFCURVE",
"119 493 OFFCURVE",
"119 405 CURVE SMOOTH",
"119 267 LINE SMOOTH",
"119 215 OFFCURVE",
"117 103 OFFCURVE",
"115 86 CURVE",
"41 65 LINE",
"45 0 LINE"
);
},
{
closed = 1;
nodes = (
"704 -15 OFFCURVE",
"731 -13 OFFCURVE",
"762 -7 CURVE",
"763 54 LINE",
"706 72 OFFCURVE",
"658 110 OFFCURVE",
"623 157 CURVE SMOOTH",
"479 351 LINE",
"327 315 LINE",
"383 175 LINE SMOOTH",
"432 50 OFFCURVE",
"530 -15 OFFCURVE",
"675 -15 CURVE SMOOTH"
);
}
);
width = 763;
},
{
anchors = (
{
name = bottom;
position = "{371, 0}";
},
{
name = top;
position = "{330, 671}";
}
);
color = -1;
layerId = "76B56D5A-2442-4808-93A9-707A1715678A";
paths = (
{
closed = 1;
nodes = (
"323 0 LINE",
"327 53 LINE",
"262 71 LINE",
"258 94 OFFCURVE",
"256 169 OFFCURVE",
"256 243 CURVE SMOOTH",
"256 439 LINE SMOOTH",
"256 544 OFFCURVE",
"256 602 OFFCURVE",
"258 611 CURVE",
"310 611 LINE SMOOTH",
"387 611 OFFCURVE",
"430 571 OFFCURVE",
"430 497 CURVE SMOOTH",
"430 417 OFFCURVE",
"377 367 OFFCURVE",
"296 367 CURVE SMOOTH",
"243 367 LINE",
"243 306 LINE",
"313 306 LINE SMOOTH",
"464 306 OFFCURVE",
"571 387 OFFCURVE",
"571 501 CURVE SMOOTH",
"571 616 OFFCURVE",
"491 671 OFFCURVE",
"327 671 CURVE SMOOTH",
"46 671 LINE",
"42 618 LINE",
"114 601 LINE",
"119 592 OFFCURVE",
"122 525 OFFCURVE",
"122 426 CURVE SMOOTH",
"122 243 LINE SMOOTH",
"122 179 OFFCURVE",
"120 90 OFFCURVE",
"119 71 CURVE",
"47 53 LINE",
"50 0 LINE"
);
},
{
closed = 1;
nodes = (
"649 -13 OFFCURVE",
"671 -11 OFFCURVE",
"693 -7 CURVE",
"694 42 LINE",
"635 55 OFFCURVE",
"593 88 OFFCURVE",
"539 163 CURVE SMOOTH",
"408 351 LINE",
"296 325 LINE",
"365 184 LINE SMOOTH",
"434 43 OFFCURVE",
"510 -13 OFFCURVE",
"629 -13 CURVE SMOOTH"
);
}
);
width = 688;
}
);
leftKerningGroup = H;
note = R;
rightKerningGroup = R;
unicode = 0052;
},
{
glyphname = S;
lastChange = "2020-06-19 11:48:22 +0000";
layers = (
{
anchors = (
{
name = bottom;
position = "{269, 0}";
},
{
name = top;
position = "{269, 671}";
}
);
background = {
anchors = (
{
name = bottom;
position = "{269, 0}";
},
{
name = top;
position = "{269, 671}";
}
);
paths = (
{
closed = 1;
nodes = (
"384 -10 OFFCURVE",
"481 67 OFFCURVE",
"481 173 CURVE SMOOTH",
"481 374 OFFCURVE",
"144 353 OFFCURVE",
"144 526 CURVE SMOOTH",
"144 590 OFFCURVE",
"197 635 OFFCURVE",
"281 635 CURVE SMOOTH",
"326 635 OFFCURVE",
"357 627 OFFCURVE",
"381 610 CURVE",
"410 522 LINE",
"448 527 LINE",
"441 657 LINE",
"403 674 OFFCURVE",
"357 682 OFFCURVE",
"293 682 CURVE SMOOTH",
"163 682 OFFCURVE",
"69 608 OFFCURVE",
"69 503 CURVE SMOOTH",
"69 293 OFFCURVE",
"406 315 OFFCURVE",
"406 151 CURVE SMOOTH",
"406 81 OFFCURVE",
"350 39 OFFCURVE",
"272 39 CURVE SMOOTH",
"215 39 OFFCURVE",
"170 54 OFFCURVE",
"131 79 CURVE",
"103 173 LINE",
"65 168 LINE",
"72 31 LINE",
"111 8 OFFCURVE",
"186 -10 OFFCURVE",
"255 -10 CURVE SMOOTH"
);
}
);
};
color = -1;
layerId = "1F9E295B-DEDB-4635-AE01-A776835412CD";
paths = (
{
closed = 1;
nodes = (
"384 -10 OFFCURVE",
"481 67 OFFCURVE",
"481 173 CURVE SMOOTH",
"481 374 OFFCURVE",
"143 354 OFFCURVE",
"143 526 CURVE SMOOTH",
"143 590 OFFCURVE",
"197 635 OFFCURVE",
"281 635 CURVE SMOOTH",
"326 635 OFFCURVE",
"357 627 OFFCURVE",
"381 610 CURVE",
"410 522 LINE",
"448 527 LINE",
"441 657 LINE",
"403 673 OFFCURVE",
"357 682 OFFCURVE",
"294 682 CURVE SMOOTH",
"163 682 OFFCURVE",
"69 608 OFFCURVE",
"69 503 CURVE SMOOTH",
"69 293 OFFCURVE",
"406 314 OFFCURVE",
"406 151 CURVE SMOOTH",
"406 81 OFFCURVE",
"350 39 OFFCURVE",
"272 39 CURVE SMOOTH",
"215 39 OFFCURVE",
"170 54 OFFCURVE",
"131 79 CURVE",
"103 173 LINE",
"65 168 LINE",
"72 31 LINE",
"112 8 OFFCURVE",
"186 -10 OFFCURVE",
"254 -10 CURVE SMOOTH"
);
}
);
width = 533;
},
{
anchors = (
{
name = bottom;
position = "{319, 0}";
},
{
name = top;
position = "{319, 671}";
}
);
background = {
anchors = (
{
name = bottom;
position = "{320, 0}";
},
{
name = top;
position = "{320, 671}";
}
);
paths = (
{
closed = 1;
nodes = (
"470 -10 OFFCURVE",
"593 79 OFFCURVE",
"593 202 CURVE SMOOTH",
"593 427 OFFCURVE",
"261 378 OFFCURVE",
"261 521 CURVE SMOOTH",
"261 574 OFFCURVE",
"305 600 OFFCURVE",
"355 600 CURVE SMOOTH",
"374 600 OFFCURVE",
"399 599 OFFCURVE",
"429 586 CURVE",
"469 464 LINE",
"555 469 LINE",
"538 650 LINE",
"495 670 OFFCURVE",
"415 685 OFFCURVE",
"367 685 CURVE SMOOTH",
"182 685 OFFCURVE",
"62 597 OFFCURVE",
"62 466 CURVE SMOOTH",
"62 225 OFFCURVE",
"389 295 OFFCURVE",
"389 139 CURVE SMOOTH",
"389 101 OFFCURVE",
"359 75 OFFCURVE",
"295 75 CURVE SMOOTH",
"271 75 OFFCURVE",
"223 82 OFFCURVE",
"192 103 CURVE",
"150 231 LINE",
"61 226 LINE",
"65 45 LINE",
"127 10 OFFCURVE",
"217 -10 OFFCURVE",
"281 -10 CURVE SMOOTH"
);
}
);
};
color = -1;
layerId = "722FC537-28B1-4F35-B842-D78FAAB5B143";
paths = (
{
closed = 1;
nodes = (
"469 -10 OFFCURVE",
"592 79 OFFCURVE",
"592 202 CURVE SMOOTH",
"592 427 OFFCURVE",
"259 378 OFFCURVE",
"259 519 CURVE SMOOTH",
"259 574 OFFCURVE",
"304 600 OFFCURVE",
"354 600 CURVE SMOOTH",
"382 600 OFFCURVE",
"406 595 OFFCURVE",
"427 586 CURVE",
"467 464 LINE",
"554 469 LINE",
"537 650 LINE",
"494 670 OFFCURVE",
"414 685 OFFCURVE",
"366 685 CURVE SMOOTH",
"181 685 OFFCURVE",
"61 597 OFFCURVE",
"61 466 CURVE SMOOTH",
"61 225 OFFCURVE",
"387 295 OFFCURVE",
"387 143 CURVE SMOOTH",
"387 101 OFFCURVE",
"357 75 OFFCURVE",
"294 75 CURVE SMOOTH",
"258 75 OFFCURVE",
"215 87 OFFCURVE",
"191 103 CURVE",
"149 231 LINE",
"59 226 LINE",
"64 45 LINE",
"126 10 OFFCURVE",
"216 -10 OFFCURVE",
"280 -10 CURVE SMOOTH"
);
}
);
width = 619;
},
{
anchors = (
{
name = bottom;
position = "{290, 0}";
},
{
name = top;
position = "{290, 671}";
}
);
color = -1;
layerId = "76B56D5A-2442-4808-93A9-707A1715678A";
paths = (
{
closed = 1;
nodes = (
"424 -10 OFFCURVE",
"535 73 OFFCURVE",
"535 189 CURVE SMOOTH",
"535 403 OFFCURVE",
"200 367 OFFCURVE",
"200 523 CURVE SMOOTH",
"200 581 OFFCURVE",
"246 617 OFFCURVE",
"314 617 CURVE SMOOTH",
"346 617 OFFCURVE",
"373 611 OFFCURVE",
"400 597 CURVE",
"434 490 LINE",
"499 495 LINE",
"488 654 LINE",
"447 672 OFFCURVE",
"381 683 OFFCURVE",
"326 683 CURVE SMOOTH",
"167 683 OFFCURVE",
"58 602 OFFCURVE",
"58 483 CURVE SMOOTH",
"58 257 OFFCURVE",
"390 304 OFFCURVE",
"390 145 CURVE SMOOTH",
"390 91 OFFCURVE",
"350 58 OFFCURVE",
"278 58 CURVE SMOOTH",
"238 58 OFFCURVE",
"192 70 OFFCURVE",
"158 93 CURVE",
"121 205 LINE",
"56 200 LINE",
"62 38 LINE",
"113 9 OFFCURVE",
"197 -10 OFFCURVE",
"262 -10 CURVE SMOOTH"
);
}
);
width = 568;
}
);
leftKerningGroup = S;
note = S;
rightKerningGroup = S;
unicode = 0053;
},
{
glyphname = Germandbls;
lastChange = "2020-06-19 11:48:22 +0000";
layers = (
{
background = {
paths = (
{
closed = 1;
nodes = (
"265 0 LINE",
"267 37 LINE",
"197 51 LINE",
"191 61 OFFCURVE",
"189 105 OFFCURVE",
"190 216 CURVE",
"189 439 LINE",
"190 564 OFFCURVE",
"252 636 OFFCURVE",
"356 636 CURVE SMOOTH",
"429 636 OFFCURVE",
"482 600 OFFCURVE",
"502 536 CURVE",
"559 536 LINE",
"524 633 OFFCURVE",
"454 682 OFFCURVE",
"359 682 CURVE SMOOTH",
"210 682 OFFCURVE",
"119 582 OFFCURVE",
"119 410 CURVE",
"120 216 LINE",
"120 128 OFFCURVE",
"117 66 OFFCURVE",
"112 51 CURVE",
"44 37 LINE",
"46 0 LINE"
);
},
{
closed = 1;
nodes = (
"637 -10 OFFCURVE",
"715 49 OFFCURVE",
"715 147 CURVE SMOOTH",
"715 322 OFFCURVE",
"422 288 OFFCURVE",
"422 428 CURVE SMOOTH",
"422 475 OFFCURVE",
"462 516 OFFCURVE",
"545 516 CURVE SMOOTH",
"576 516 OFFCURVE",
"599 513 OFFCURVE",
"623 503 CURVE",
"646 423 LINE",
"684 428 LINE",
"677 541 LINE",
"646 552 OFFCURVE",
"599 559 OFFCURVE",
"551 559 CURVE SMOOTH",
"417 559 OFFCURVE",
"346 492 OFFCURVE",
"346 408 CURVE SMOOTH",
"346 232 OFFCURVE",
"639 266 OFFCURVE",
"639 127 CURVE SMOOTH",
"639 75 OFFCURVE",
"600 37 OFFCURVE",
"530 37 CURVE SMOOTH",
"486 37 OFFCURVE",
"440 52 OFFCURVE",
"404 76 CURVE",
"383 175 LINE",
"341 170 LINE",
"343 31 LINE",
"383 9 OFFCURVE",
"448 -10 OFFCURVE",
"517 -10 CURVE SMOOTH"
);
}
);
};
color = -1;
layerId = "1F9E295B-DEDB-4635-AE01-A776835412CD";
paths = (
{
closed = 1;
nodes = (
"262 0 LINE",
"264 37 LINE",
"195 51 LINE",
"191 61 OFFCURVE",
"190 105 OFFCURVE",
"190 216 CURVE",
"189 439 LINE",
"189 571 OFFCURVE",
"251 635 OFFCURVE",
"357 635 CURVE SMOOTH",
"429 635 OFFCURVE",
"482 600 OFFCURVE",
"502 536 CURVE",
"559 536 LINE",
"526 633 OFFCURVE",
"455 682 OFFCURVE",
"357 682 CURVE SMOOTH",
"210 682 OFFCURVE",
"119 583 OFFCURVE",
"119 409 CURVE",
"120 216 LINE",
"120 128 OFFCURVE",
"117 65 OFFCURVE",
"114 51 CURVE",
"46 37 LINE",
"48 0 LINE"
);
},
{
closed = 1;
nodes = (
"638 -10 OFFCURVE",
"714 49 OFFCURVE",
"714 147 CURVE SMOOTH",
"714 322 OFFCURVE",
"421 288 OFFCURVE",
"421 429 CURVE SMOOTH",
"421 475 OFFCURVE",
"462 515 OFFCURVE",
"545 515 CURVE SMOOTH",
"576 515 OFFCURVE",
"600 513 OFFCURVE",
"623 503 CURVE",
"646 423 LINE",
"683 427 LINE",
"678 542 LINE",
"643 552 OFFCURVE",
"600 559 OFFCURVE",
"551 559 CURVE SMOOTH",
"417 559 OFFCURVE",
"346 493 OFFCURVE",
"346 408 CURVE SMOOTH",
"346 232 OFFCURVE",
"639 266 OFFCURVE",
"639 127 CURVE SMOOTH",
"639 75 OFFCURVE",
"600 38 OFFCURVE",
"530 38 CURVE SMOOTH",
"487 38 OFFCURVE",
"440 51 OFFCURVE",
"403 75 CURVE",
"383 175 LINE",
"342 170 LINE",
"343 31 LINE",
"384 8 OFFCURVE",
"448 -10 OFFCURVE",
"517 -10 CURVE SMOOTH"
);
}
);
width = 768;
},
{
background = {
paths = (
{
closed = 1;
nodes = (
"375 0 LINE",
"378 65 LINE",
"309 87 LINE",
"305 96 OFFCURVE",
"301 170 OFFCURVE",
"299 267 CURVE",
"296 409 LINE",
"295 531 OFFCURVE",
"350 599 OFFCURVE",
"451 599 CURVE SMOOTH",
"512 599 OFFCURVE",
"557 576 OFFCURVE",
"581 531 CURVE",
"694 531 LINE",
"651 629 OFFCURVE",
"561 685 OFFCURVE",
"438 685 CURVE SMOOTH",
"235 685 OFFCURVE",
"107 559 OFFCURVE",
"107 368 CURVE",
"109 267 LINE",
"109 173 OFFCURVE",
"105 94 OFFCURVE",
"101 87 CURVE",
"25 65 LINE",
"30 0 LINE"
);
},
{
closed = 1;
nodes = (
"723 -10 OFFCURVE",
"842 69 OFFCURVE",
"842 173 CURVE SMOOTH",
"842 359 OFFCURVE",
"570 337 OFFCURVE",
"570 431 CURVE SMOOTH",
"570 475 OFFCURVE",
"610 490 OFFCURVE",
"647 490 CURVE SMOOTH",
"655 490 OFFCURVE",
"672 489 OFFCURVE",
"683 487 CURVE",
"720 377 LINE",
"802 382 LINE",
"789 544 LINE",
"751 559 OFFCURVE",
"672 568 OFFCURVE",
"637 568 CURVE SMOOTH",
"512 568 OFFCURVE",
"395 483 OFFCURVE",
"395 373 CURVE SMOOTH",
"395 178 OFFCURVE",
"664 237 OFFCURVE",
"664 115 CURVE SMOOTH",
"664 78 OFFCURVE",
"618 70 OFFCURVE",
"579 70 CURVE SMOOTH",
"563 70 OFFCURVE",
"539 71 OFFCURVE",
"518 85 CURVE",
"481 179 LINE",
"398 175 LINE",
"401 24 LINE",
"450 0 OFFCURVE",
"534 -10 OFFCURVE",
"579 -10 CURVE SMOOTH"
);
}
);
};
color = -1;
layerId = "722FC537-28B1-4F35-B842-D78FAAB5B143";
paths = (
{
closed = 1;
nodes = (
"369 0 LINE",
"373 65 LINE",
"307 87 LINE",
"304 96 OFFCURVE",
"299 170 OFFCURVE",
"298 267 CURVE",
"295 409 LINE",
"294 531 OFFCURVE",
"349 599 OFFCURVE",
"450 599 CURVE SMOOTH",
"511 599 OFFCURVE",
"555 576 OFFCURVE",
"579 531 CURVE",
"693 531 LINE",
"650 629 OFFCURVE",
"560 685 OFFCURVE",
"437 685 CURVE SMOOTH",
"234 685 OFFCURVE",
"106 559 OFFCURVE",
"106 368 CURVE",
"107 267 LINE",
"107 173 OFFCURVE",
"104 94 OFFCURVE",
"99 87 CURVE",
"25 65 LINE",
"29 0 LINE"
);
},
{
closed = 1;
nodes = (
"722 -10 OFFCURVE",
"841 69 OFFCURVE",
"841 173 CURVE SMOOTH",
"841 359 OFFCURVE",
"569 337 OFFCURVE",
"569 431 CURVE SMOOTH",
"569 475 OFFCURVE",
"609 491 OFFCURVE",
"646 491 CURVE SMOOTH",
"654 491 OFFCURVE",
"671 490 OFFCURVE",
"682 488 CURVE",
"719 378 LINE",
"801 383 LINE",
"787 544 LINE",
"750 559 OFFCURVE",
"671 568 OFFCURVE",
"635 568 CURVE SMOOTH",
"511 568 OFFCURVE",
"394 483 OFFCURVE",
"394 373 CURVE SMOOTH",
"394 178 OFFCURVE",
"663 237 OFFCURVE",
"663 122 CURVE SMOOTH",
"663 78 OFFCURVE",
"617 70 OFFCURVE",
"583 70 CURVE SMOOTH",
"557 70 OFFCURVE",
"533 77 OFFCURVE",
"517 85 CURVE",
"480 179 LINE",
"397 175 LINE",
"400 24 LINE",
"449 0 OFFCURVE",
"533 -10 OFFCURVE",
"578 -10 CURVE SMOOTH"
);
}
);
width = 873;
},
{
color = -1;
layerId = "76B56D5A-2442-4808-93A9-707A1715678A";
paths = (
{
closed = 1;
nodes = (
"317 0 LINE",
"320 53 LINE",
"250 70 LINE",
"248 79 OFFCURVE",
"245 141 OFFCURVE",
"245 243 CURVE",
"242 423 LINE",
"242 546 OFFCURVE",
"301 616 OFFCURVE",
"403 616 CURVE SMOOTH",
"470 616 OFFCURVE",
"519 586 OFFCURVE",
"541 534 CURVE",
"627 534 LINE",
"589 631 OFFCURVE",
"507 683 OFFCURVE",
"398 683 CURVE SMOOTH",
"219 683 OFFCURVE",
"109 569 OFFCURVE",
"109 387 CURVE",
"110 243 LINE",
"110 153 OFFCURVE",
"106 81 OFFCURVE",
"104 70 CURVE",
"32 53 LINE",
"35 0 LINE"
);
},
{
closed = 1;
nodes = (
"679 -10 OFFCURVE",
"779 59 OFFCURVE",
"779 161 CURVE SMOOTH",
"779 342 OFFCURVE",
"497 315 OFFCURVE",
"497 430 CURVE SMOOTH",
"497 475 OFFCURVE",
"537 502 OFFCURVE",
"595 502 CURVE SMOOTH",
"615 502 OFFCURVE",
"634 499 OFFCURVE",
"650 495 CURVE",
"682 398 LINE",
"743 402 LINE",
"733 543 LINE",
"698 555 OFFCURVE",
"634 563 OFFCURVE",
"592 563 CURVE SMOOTH",
"464 563 OFFCURVE",
"369 488 OFFCURVE",
"369 390 CURVE SMOOTH",
"369 202 OFFCURVE",
"648 250 OFFCURVE",
"648 121 CURVE SMOOTH",
"648 77 OFFCURVE",
"606 55 OFFCURVE",
"553 55 CURVE SMOOTH",
"522 55 OFFCURVE",
"489 62 OFFCURVE",
"461 80 CURVE",
"432 177 LINE",
"367 173 LINE",
"370 27 LINE",
"415 5 OFFCURVE",
"489 -10 OFFCURVE",
"546 -10 CURVE SMOOTH"
);
}
);
width = 815;
}
);
leftKerningGroup = Germandbls;
rightKerningGroup = S;
unicode = 1E9E;
},
{
glyphname = Schwa;
lastChange = "2020-06-19 11:48:22 +0000";
layers = (
{
anchors = (
{
name = bottom;
position = "{370, 0}";
},
{
name = top;
position = "{370, 671}";
}
);
background = {
anchors = (
{
name = bottom;
position = "{370, 0}";
},
{
name = top;
position = "{370, 671}";
}
);
paths = (
{
closed = 1;
nodes = (
"238 681 OFFCURVE",
"127 618 OFFCURVE",
"72 516 CURVE",
"111 489 LINE",
"162 552 OFFCURVE",
"238 591 OFFCURVE",
"324 591 CURVE SMOOTH",
"485 591 OFFCURVE",
"589 480 OFFCURVE",
"589 301 CURVE SMOOTH",
"589 284 LINE SMOOTH",
"589 134 OFFCURVE",
"506 40 OFFCURVE",
"378 40 CURVE SMOOTH",
"244 40 OFFCURVE",
"167 120 OFFCURVE",
"167 245 CURVE SMOOTH",
"167 275 LINE",
"147 265 LINE",
"601 265 LINE",
"601 322 LINE",
"68 322 LINE",
"68 299 LINE SMOOTH",
"68 110 OFFCURVE",
"180 -9 OFFCURVE",
"364 -10 CURVE SMOOTH",
"547 -11 OFFCURVE",
"674 135 OFFCURVE",
"674 352 CURVE SMOOTH",
"674 549 OFFCURVE",
"547 681 OFFCURVE",
"358 681 CURVE SMOOTH"
);
}
);
};
color = -1;
layerId = "1F9E295B-DEDB-4635-AE01-A776835412CD";
paths = (
{
closed = 1;
nodes = (
"238 681 OFFCURVE",
"122 609 OFFCURVE",
"72 517 CURVE",
"109 490 LINE",
"163 559 OFFCURVE",
"239 598 OFFCURVE",
"333 598 CURVE SMOOTH",
"488 598 OFFCURVE",
"589 486 OFFCURVE",
"589 301 CURVE SMOOTH",
"589 283 LINE SMOOTH",
"589 134 OFFCURVE",
"505 40 OFFCURVE",
"371 40 CURVE SMOOTH",
"243 40 OFFCURVE",
"168 120 OFFCURVE",
"168 245 CURVE SMOOTH",
"168 275 LINE",
"146 265 LINE",
"601 265 LINE",
"601 322 LINE",
"67 322 LINE",
"67 298 LINE SMOOTH",
"67 110 OFFCURVE",
"179 -9 OFFCURVE",
"365 -10 CURVE SMOOTH",
"547 -10 OFFCURVE",
"674 135 OFFCURVE",
"674 352 CURVE SMOOTH",
"674 549 OFFCURVE",
"547 681 OFFCURVE",
"358 681 CURVE SMOOTH"
);
}
);
width = 737;
},
{
anchors = (
{
name = bottom;
position = "{384, 0}";
},
{
name = top;
position = "{384, 671}";
}
);
background = {
anchors = (
{
name = bottom;
position = "{385, 0}";
},
{
name = top;
position = "{385, 671}";
}
);
paths = (
{
closed = 1;
nodes = (
"227 681 OFFCURVE",
"107 605 OFFCURVE",
"53 477 CURVE",
"87 440 LINE",
"144 496 OFFCURVE",
"211 526 OFFCURVE",
"304 526 CURVE SMOOTH",
"429 526 OFFCURVE",
"504 443 OFFCURVE",
"504 320 CURVE SMOOTH",
"504 272 LINE SMOOTH",
"504 153 OFFCURVE",
"470 86 OFFCURVE",
"391 86 CURVE SMOOTH",
"323 86 OFFCURVE",
"271 144 OFFCURVE",
"271 233 CURVE SMOOTH",
"271 291 LINE",
"246 240 LINE",
"627 240 LINE",
"627 329 LINE",
"48 329 LINE",
"48 282 LINE SMOOTH",
"48 105 OFFCURVE",
"190 -11 OFFCURVE",
"395 -10 CURVE SMOOTH",
"574 -8 OFFCURVE",
"721 155 OFFCURVE",
"721 343 CURVE SMOOTH",
"721 533 OFFCURVE",
"569 681 OFFCURVE",
"373 681 CURVE SMOOTH"
);
}
);
};
color = -1;
layerId = "722FC537-28B1-4F35-B842-D78FAAB5B143";
paths = (
{
closed = 1;
nodes = (
"226 681 OFFCURVE",
"106 605 OFFCURVE",
"51 477 CURVE",
"86 440 LINE",
"143 496 OFFCURVE",
"210 526 OFFCURVE",
"303 526 CURVE SMOOTH",
"427 526 OFFCURVE",
"503 443 OFFCURVE",
"503 320 CURVE SMOOTH",
"503 272 LINE SMOOTH",
"503 153 OFFCURVE",
"469 86 OFFCURVE",
"386 86 CURVE SMOOTH",
"315 86 OFFCURVE",
"270 144 OFFCURVE",
"270 233 CURVE SMOOTH",
"270 291 LINE",
"245 240 LINE",
"626 240 LINE",
"626 329 LINE",
"47 329 LINE",
"47 282 LINE SMOOTH",
"47 105 OFFCURVE",
"189 -11 OFFCURVE",
"387 -9 CURVE SMOOTH",
"573 -8 OFFCURVE",
"720 155 OFFCURVE",
"720 343 CURVE SMOOTH",
"720 533 OFFCURVE",
"568 681 OFFCURVE",
"371 681 CURVE SMOOTH"
);
}
);
width = 768;
},
{
anchors = (
{
name = bottom;
position = "{375, 0}";
},
{
name = top;
position = "{375, 671}";
}
);
color = -1;
layerId = "76B56D5A-2442-4808-93A9-707A1715678A";
paths = (
{
closed = 1;
nodes = (
"229 681 OFFCURVE",
"113 611 OFFCURVE",
"58 496 CURVE",
"94 462 LINE",
"149 522 OFFCURVE",
"219 557 OFFCURVE",
"310 557 CURVE SMOOTH",
"450 557 OFFCURVE",
"538 461 OFFCURVE",
"538 311 CURVE SMOOTH",
"538 278 LINE SMOOTH",
"538 144 OFFCURVE",
"482 65 OFFCURVE",
"381 65 CURVE SMOOTH",
"282 65 OFFCURVE",
"219 134 OFFCURVE",
"219 239 CURVE SMOOTH",
"219 285 LINE",
"197 251 LINE",
"611 251 LINE",
"611 326 LINE",
"54 326 LINE",
"54 289 LINE SMOOTH",
"54 107 OFFCURVE",
"182 -10 OFFCURVE",
"377 -10 CURVE SMOOTH",
"558 -9 OFFCURVE",
"696 146 OFFCURVE",
"696 347 CURVE SMOOTH",
"696 539 OFFCURVE",
"555 681 OFFCURVE",
"362 681 CURVE SMOOTH"
);
}
);
width = 747;
}
);
leftKerningGroup = O;
rightKerningGroup = O;
unicode = 018F;
},
{
glyphname = T;
lastChange = "2020-06-19 11:48:22 +0000";
layers = (
{
anchors = (
{
name = bottom;
position = "{305, 0}";
},
{
name = stroke;
position = "{304, 346}";
},
{
name = top;
position = "{304, 671}";
}
);
background = {
anchors = (
{
name = bottom;
position = "{306, 0}";
},
{
name = stroke;
position = "{304, 346}";
},
{
name = top;
position = "{304, 671}";
}
);
paths = (
{
closed = 1;
nodes = (
"524 672 OFFCURVE",
"508 671 OFFCURVE",
"475 671 CURVE SMOOTH",
"131 671 LINE SMOOTH",
"99 671 OFFCURVE",
"83 672 OFFCURVE",
"44 675 CURVE",
"20 499 LINE",
"61 492 LINE",
"111 620 LINE",
"120 622 OFFCURVE",
"135 624 OFFCURVE",
"146 624 CURVE SMOOTH",
"191 624 LINE SMOOTH",
"208 624 OFFCURVE",
"243 624 OFFCURVE",
"267 621 CURVE",
"268 603 OFFCURVE",
"269 499 OFFCURVE",
"269 426 CURVE SMOOTH",
"269 248 LINE SMOOTH",
"269 146 OFFCURVE",
"266 67 OFFCURVE",
"266 51 CURVE",
"171 39 LINE",
"173 0 LINE",
"435 0 LINE",
"437 39 LINE",
"342 51 LINE",
"342 67 OFFCURVE",
"339 146 OFFCURVE",
"339 248 CURVE SMOOTH",
"339 426 LINE SMOOTH",
"339 499 OFFCURVE",
"340 603 OFFCURVE",
"341 621 CURVE",
"365 624 OFFCURVE",
"401 624 OFFCURVE",
"417 624 CURVE SMOOTH",
"460 624 LINE SMOOTH",
"470 624 OFFCURVE",
"488 622 OFFCURVE",
"497 620 CURVE",
"546 493 LINE",
"587 498 LINE",
"562 675 LINE"
);
}
);
};
color = -1;
layerId = "1F9E295B-DEDB-4635-AE01-A776835412CD";
paths = (
{
closed = 1;
nodes = (
"523 672 OFFCURVE",
"509 671 OFFCURVE",
"475 671 CURVE SMOOTH",
"131 671 LINE SMOOTH",
"98 671 OFFCURVE",
"82 672 OFFCURVE",
"45 675 CURVE",
"19 498 LINE",
"61 491 LINE",
"111 621 LINE",
"120 623 OFFCURVE",
"135 624 OFFCURVE",
"145 624 CURVE SMOOTH",
"191 624 LINE SMOOTH",
"208 624 OFFCURVE",
"242 624 OFFCURVE",
"267 623 CURVE",
"269 603 OFFCURVE",
"269 499 OFFCURVE",
"269 425 CURVE SMOOTH",
"269 248 LINE SMOOTH",
"269 145 OFFCURVE",
"266 67 OFFCURVE",
"266 51 CURVE",
"171 39 LINE",
"174 0 LINE",
"434 0 LINE",
"437 39 LINE",
"342 51 LINE",
"342 67 OFFCURVE",
"339 145 OFFCURVE",
"339 248 CURVE SMOOTH",
"339 425 LINE SMOOTH",
"339 499 OFFCURVE",
"339 603 OFFCURVE",
"341 623 CURVE",
"366 624 OFFCURVE",
"401 624 OFFCURVE",
"417 624 CURVE SMOOTH",
"459 624 LINE SMOOTH",
"470 624 OFFCURVE",
"488 623 OFFCURVE",
"497 621 CURVE",
"546 493 LINE",
"587 498 LINE",
"562 675 LINE"
);
}
);
width = 608;
},
{
anchors = (
{
name = bottom;
position = "{371, 0}";
},
{
name = stroke;
position = "{373, 346}";
},
{
name = top;
position = "{373, 671}";
}
);
background = {
anchors = (
{
name = bottom;
position = "{373, 0}";
},
{
name = stroke;
position = "{374, 346}";
},
{
name = top;
position = "{374, 671}";
}
);
paths = (
{
closed = 1;
nodes = (
"667 677 OFFCURVE",
"550 671 OFFCURVE",
"505 671 CURVE SMOOTH",
"238 671 LINE SMOOTH",
"192 671 OFFCURVE",
"75 677 OFFCURVE",
"45 678 CURVE",
"22 462 LINE",
"105 455 LINE",
"145 592 LINE",
"170 594 OFFCURVE",
"184 595 OFFCURVE",
"208 595 CURVE SMOOTH",
"245 595 LINE SMOOTH",
"257 595 OFFCURVE",
"271 594 OFFCURVE",
"274 593 CURVE",
"275 579 OFFCURVE",
"278 464 OFFCURVE",
"278 353 CURVE SMOOTH",
"278 277 LINE SMOOTH",
"278 199 OFFCURVE",
"275 128 OFFCURVE",
"273 87 CURVE",
"171 67 LINE",
"175 0 LINE",
"573 0 LINE",
"576 67 LINE",
"474 87 LINE",
"472 128 OFFCURVE",
"470 199 OFFCURVE",
"470 277 CURVE SMOOTH",
"470 353 LINE SMOOTH",
"470 464 OFFCURVE",
"472 579 OFFCURVE",
"473 593 CURVE",
"477 594 OFFCURVE",
"490 595 OFFCURVE",
"503 595 CURVE SMOOTH",
"538 595 LINE SMOOTH",
"563 595 OFFCURVE",
"571 594 OFFCURVE",
"597 592 CURVE",
"641 457 LINE",
"725 463 LINE",
"697 678 LINE"
);
}
);
};
color = -1;
layerId = "722FC537-28B1-4F35-B842-D78FAAB5B143";
paths = (
{
closed = 1;
nodes = (
"666 677 OFFCURVE",
"549 671 OFFCURVE",
"504 671 CURVE SMOOTH",
"237 671 LINE SMOOTH",
"191 671 OFFCURVE",
"74 677 OFFCURVE",
"43 678 CURVE",
"21 462 LINE",
"104 455 LINE",
"144 592 LINE",
"158 594 OFFCURVE",
"183 595 OFFCURVE",
"207 595 CURVE SMOOTH",
"243 595 LINE SMOOTH",
"255 595 OFFCURVE",
"270 594 OFFCURVE",
"273 593 CURVE",
"274 579 OFFCURVE",
"277 464 OFFCURVE",
"277 353 CURVE SMOOTH",
"277 277 LINE SMOOTH",
"277 199 OFFCURVE",
"274 128 OFFCURVE",
"272 87 CURVE",
"170 67 LINE",
"174 0 LINE",
"571 0 LINE",
"575 67 LINE",
"473 87 LINE",
"471 128 OFFCURVE",
"469 199 OFFCURVE",
"469 277 CURVE SMOOTH",
"469 353 LINE SMOOTH",
"469 464 OFFCURVE",
"471 579 OFFCURVE",
"472 593 CURVE",
"475 594 OFFCURVE",
"489 595 OFFCURVE",
"502 595 CURVE SMOOTH",
"537 595 LINE SMOOTH",
"562 595 OFFCURVE",
"582 594 OFFCURVE",
"595 592 CURVE",
"640 457 LINE",
"723 463 LINE",
"696 678 LINE"
);
}
);
width = 746;
},
{
anchors = (
{
name = bottom;
position = "{338, 0}";
},
{
name = stroke;
position = "{338, 346}";
},
{
name = top;
position = "{338, 671}";
}
);
color = -1;
layerId = "76B56D5A-2442-4808-93A9-707A1715678A";
paths = (
{
closed = 1;
nodes = (
"598 674 OFFCURVE",
"528 671 OFFCURVE",
"488 671 CURVE SMOOTH",
"185 671 LINE SMOOTH",
"145 671 OFFCURVE",
"75 674 OFFCURVE",
"41 677 CURVE",
"17 479 LINE",
"81 472 LINE",
"126 605 LINE",
"143 607 OFFCURVE",
"159 608 OFFCURVE",
"176 608 CURVE SMOOTH",
"217 608 LINE SMOOTH",
"232 608 OFFCURVE",
"255 608 OFFCURVE",
"267 606 CURVE",
"269 590 OFFCURVE",
"270 481 OFFCURVE",
"270 386 CURVE SMOOTH",
"270 264 LINE SMOOTH",
"270 175 OFFCURVE",
"267 99 OFFCURVE",
"266 70 CURVE",
"168 55 LINE",
"171 0 LINE",
"505 0 LINE",
"509 55 LINE",
"410 70 LINE",
"409 99 OFFCURVE",
"407 175 OFFCURVE",
"407 264 CURVE SMOOTH",
"407 386 LINE SMOOTH",
"407 481 OFFCURVE",
"408 590 OFFCURVE",
"409 606 CURVE",
"422 608 OFFCURVE",
"446 608 OFFCURVE",
"459 608 CURVE SMOOTH",
"499 608 LINE SMOOTH",
"517 608 OFFCURVE",
"531 607 OFFCURVE",
"549 605 CURVE",
"594 474 LINE",
"658 480 LINE",
"632 677 LINE"
);
}
);
width = 675;
}
);
leftKerningGroup = T;
note = T;
rightKerningGroup = T;
unicode = 0054;
},
{
glyphname = U;
lastChange = "2020-06-19 11:48:22 +0000";
layers = (
{
anchors = (
{
name = bottom;
position = "{379, 0}";
},
{
name = ogonek;
position = "{458, 0}";
},
{
name = top;
position = "{381, 671}";
},
{
name = topright;
position = "{719, 671}";
}
);
background = {
anchors = (
{
name = bottom;
position = "{379, 0}";
},
{
name = ogonek;
position = "{458, 0}";
},
{
name = top;
position = "{381, 671}";
},
{
name = topright;
position = "{719, 671}";
}
);
paths = (
{
closed = 1;
nodes = (
"56 634 LINE",
"123 618 LINE",
"127 611 OFFCURVE",
"130 592 OFFCURVE",
"130 454 CURVE SMOOTH",
"130 239 LINE SMOOTH",
"130 81 OFFCURVE",
"225 -10 OFFCURVE",
"379 -10 CURVE SMOOTH",
"507 -10 OFFCURVE",
"613 65 OFFCURVE",
"613 262 CURVE SMOOTH",
"613 433 LINE SMOOTH",
"613 589 OFFCURVE",
"616 611 OFFCURVE",
"617 618 CURVE",
"686 634 LINE",
"683 671 LINE",
"470 671 LINE",
"469 634 LINE",
"549 618 LINE",
"551 611 OFFCURVE",
"557 589 OFFCURVE",
"557 433 CURVE SMOOTH",
"557 261 LINE SMOOTH",
"557 104 OFFCURVE",
"483 50 OFFCURVE",
"386 50 CURVE SMOOTH",
"282 50 OFFCURVE",
"205 101 OFFCURVE",
"202 250 CURVE",
"202 454 LINE",
"201 594 OFFCURVE",
"205 615 OFFCURVE",
"208 618 CURVE",
"275 634 LINE",
"274 671 LINE",
"57 671 LINE"
);
}
);
};
color = -1;
layerId = "1F9E295B-DEDB-4635-AE01-A776835412CD";
paths = (
{
closed = 1;
nodes = (
"57 634 LINE",
"126 618 LINE",
"127 611 OFFCURVE",
"130 592 OFFCURVE",
"130 454 CURVE SMOOTH",
"130 239 LINE SMOOTH",
"130 81 OFFCURVE",
"225 -10 OFFCURVE",
"379 -10 CURVE SMOOTH",
"507 -10 OFFCURVE",
"613 65 OFFCURVE",
"613 262 CURVE SMOOTH",
"613 433 LINE SMOOTH",
"613 589 OFFCURVE",
"615 611 OFFCURVE",
"615 618 CURVE",
"683 634 LINE",
"680 671 LINE",
"473 671 LINE",
"471 634 LINE",
"551 618 LINE",
"554 598 OFFCURVE",
"557 526 OFFCURVE",
"557 433 CURVE SMOOTH",
"557 261 LINE SMOOTH",
"557 104 OFFCURVE",
"483 50 OFFCURVE",
"386 50 CURVE SMOOTH",
"282 50 OFFCURVE",
"205 101 OFFCURVE",
"202 250 CURVE",
"202 454 LINE",
"201 594 OFFCURVE",
"205 615 OFFCURVE",
"206 618 CURVE",
"274 634 LINE",
"272 671 LINE",
"59 671 LINE"
);
}
);
width = 742;
},
{
anchors = (
{
name = bottom;
position = "{461, 0}";
},
{
name = ogonek;
position = "{519, 0}";
},
{
name = top;
position = "{459, 671}";
},
{
name = topright;
position = "{789, 671}";
}
);
background = {
anchors = (
{
name = bottom;
position = "{462, 0}";
},
{
name = ogonek;
position = "{520, 0}";
},
{
name = top;
position = "{461, 671}";
},
{
name = topright;
position = "{790, 671}";
}
);
paths = (
{
closed = 1;
nodes = (
"33 606 LINE",
"109 585 LINE",
"113 576 OFFCURVE",
"117 481 OFFCURVE",
"117 405 CURVE SMOOTH",
"117 299 LINE SMOOTH",
"117 101 OFFCURVE",
"229 -10 OFFCURVE",
"434 -10 CURVE SMOOTH",
"619 -10 OFFCURVE",
"723 117 OFFCURVE",
"723 291 CURVE SMOOTH",
"723 384 LINE SMOOTH",
"723 463 OFFCURVE",
"727 578 OFFCURVE",
"733 585 CURVE",
"808 606 LINE",
"803 671 LINE",
"529 671 LINE",
"526 606 LINE",
"606 585 LINE",
"610 578 OFFCURVE",
"614 463 OFFCURVE",
"614 384 CURVE SMOOTH",
"614 319 LINE SMOOTH",
"614 190 OFFCURVE",
"570 118 OFFCURVE",
"462 118 CURVE SMOOTH",
"353 118 OFFCURVE",
"307 194 OFFCURVE",
"309 322 CURVE",
"309 405 LINE",
"309 473 OFFCURVE",
"312 552 OFFCURVE",
"315 585 CURVE",
"391 606 LINE",
"386 671 LINE",
"38 671 LINE"
);
}
);
};
color = -1;
layerId = "722FC537-28B1-4F35-B842-D78FAAB5B143";
paths = (
{
closed = 1;
nodes = (
"33 606 LINE",
"107 585 LINE",
"112 576 OFFCURVE",
"115 481 OFFCURVE",
"115 405 CURVE SMOOTH",
"115 299 LINE SMOOTH",
"115 101 OFFCURVE",
"227 -10 OFFCURVE",
"433 -10 CURVE SMOOTH",
"618 -10 OFFCURVE",
"722 117 OFFCURVE",
"722 291 CURVE SMOOTH",
"722 384 LINE SMOOTH",
"722 463 OFFCURVE",
"726 578 OFFCURVE",
"731 585 CURVE",
"806 606 LINE",
"802 671 LINE",
"528 671 LINE",
"525 606 LINE",
"605 585 LINE",
"609 578 OFFCURVE",
"613 463 OFFCURVE",
"613 384 CURVE SMOOTH",
"613 319 LINE SMOOTH",
"613 190 OFFCURVE",
"569 118 OFFCURVE",
"461 118 CURVE SMOOTH",
"352 118 OFFCURVE",
"306 194 OFFCURVE",
"307 322 CURVE",
"307 405 LINE",
"307 473 OFFCURVE",
"311 552 OFFCURVE",
"314 585 CURVE",
"389 606 LINE",
"385 671 LINE",
"37 671 LINE"
);
}
);
width = 838;
},
{
anchors = (
{
name = bottom;
position = "{417, 0}";
},
{
name = ogonek;
position = "{485, 0}";
},
{
name = top;
position = "{418, 671}";
},
{
name = topright;
position = "{752, 671}";
}
);
color = -1;
layerId = "76B56D5A-2442-4808-93A9-707A1715678A";
paths = (
{
closed = 1;
nodes = (
"40 618 LINE",
"112 600 LINE",
"114 593 OFFCURVE",
"118 531 OFFCURVE",
"118 426 CURVE SMOOTH",
"118 271 LINE SMOOTH",
"118 91 OFFCURVE",
"221 -10 OFFCURVE",
"403 -10 CURVE SMOOTH",
"561 -10 OFFCURVE",
"666 93 OFFCURVE",
"666 278 CURVE SMOOTH",
"666 406 LINE SMOOTH",
"666 521 OFFCURVE",
"670 593 OFFCURVE",
"672 600 CURVE",
"744 618 LINE",
"741 671 LINE",
"497 671 LINE",
"494 618 LINE",
"574 600 LINE",
"577 593 OFFCURVE",
"581 521 OFFCURVE",
"581 406 CURVE SMOOTH",
"581 293 LINE SMOOTH",
"581 150 OFFCURVE",
"523 86 OFFCURVE",
"422 86 CURVE SMOOTH",
"315 86 OFFCURVE",
"254 151 OFFCURVE",
"254 289 CURVE",
"254 426 LINE",
"253 529 OFFCURVE",
"256 581 OFFCURVE",
"258 600 CURVE",
"330 618 LINE",
"327 671 LINE",
"43 671 LINE"
);
}
);
width = 783;
}
);
leftKerningGroup = U;
note = U;
rightKerningGroup = U;
unicode = 0055;
},
{
glyphname = Uhorn;
lastChange = "2020-06-19 11:48:22 +0000";
layers = (
{
anchors = (
{
name = bottom;
position = "{379, 0}";
},
{
name = top;
position = "{381, 671}";
}
);
background = {
anchors = (
{
name = bottom;
position = "{379, 0}";
},
{
name = top;
position = "{381, 671}";
}
);
paths = (
{
closed = 1;
nodes = (
"1329 -10 OFFCURVE",
"1413 88 OFFCURVE",
"1413 262 CURVE SMOOTH",
"1413 433 LINE SMOOTH",
"1413 521 OFFCURVE",
"1415 577 OFFCURVE",
"1423 640 CURVE",
"1410 619 LINE",
"1509 623 OFFCURVE",
"1579 675 OFFCURVE",
"1579 745 CURVE SMOOTH",
"1579 795 OFFCURVE",
"1543 821 OFFCURVE",
"1490 809 CURVE",
"1488 755 LINE SMOOTH",
"1485 681 OFFCURVE",
"1471 671 OFFCURVE",
"1383 671 CURVE SMOOTH",
"1270 671 LINE",
"1269 634 LINE",
"1349 618 LINE",
"1353 606 OFFCURVE",
"1357 535 OFFCURVE",
"1357 433 CURVE SMOOTH",
"1357 261 LINE SMOOTH",
"1357 122 OFFCURVE",
"1298 50 OFFCURVE",
"1186 50 CURVE SMOOTH",
"1067 50 OFFCURVE",
"1005 118 OFFCURVE",
"1002 250 CURVE",
"1002 454 LINE",
"1001 550 OFFCURVE",
"1002 608 OFFCURVE",
"1008 618 CURVE",
"1075 634 LINE",
"1074 671 LINE",
"857 671 LINE",
"856 634 LINE",
"923 618 LINE",
"928 608 OFFCURVE",
"930 559 OFFCURVE",
"930 454 CURVE SMOOTH",
"930 239 LINE SMOOTH",
"930 83 OFFCURVE",
"1024 -10 OFFCURVE",
"1179 -10 CURVE SMOOTH"
);
},
{
closed = 1;
nodes = (
"57 634 LINE",
"126 618 LINE",
"127 611 OFFCURVE",
"130 592 OFFCURVE",
"130 454 CURVE SMOOTH",
"130 239 LINE SMOOTH",
"130 81 OFFCURVE",
"225 -10 OFFCURVE",
"379 -10 CURVE SMOOTH",
"507 -10 OFFCURVE",
"613 65 OFFCURVE",
"613 262 CURVE SMOOTH",
"613 433 LINE SMOOTH",
"613 589 OFFCURVE",
"615 611 OFFCURVE",
"615 618 CURVE",
"685 634 LINE",
"681 671 LINE",
"473 671 LINE",
"471 634 LINE",
"551 618 LINE",
"554 598 OFFCURVE",
"557 526 OFFCURVE",
"557 433 CURVE SMOOTH",
"557 261 LINE SMOOTH",
"557 104 OFFCURVE",
"483 50 OFFCURVE",
"386 50 CURVE SMOOTH",
"282 50 OFFCURVE",
"205 101 OFFCURVE",
"202 250 CURVE",
"202 454 LINE",
"201 594 OFFCURVE",
"205 615 OFFCURVE",
"206 618 CURVE",
"274 634 LINE",
"272 671 LINE",
"59 671 LINE"
);
}
);
};
color = -1;
layerId = "1F9E295B-DEDB-4635-AE01-A776835412CD";
paths = (
{
closed = 1;
nodes = (
"529 -10 OFFCURVE",
"613 88 OFFCURVE",
"613 262 CURVE SMOOTH",
"613 433 LINE SMOOTH",
"613 521 OFFCURVE",
"613 577 OFFCURVE",
"619 640 CURVE",
"610 619 LINE",
"709 623 OFFCURVE",
"779 675 OFFCURVE",
"779 745 CURVE SMOOTH",
"779 795 OFFCURVE",
"743 821 OFFCURVE",
"690 809 CURVE",
"688 755 LINE SMOOTH",
"686 681 OFFCURVE",
"671 671 OFFCURVE",
"583 671 CURVE SMOOTH",
"473 671 LINE",
"471 634 LINE",
"551 618 LINE",
"554 598 OFFCURVE",
"557 535 OFFCURVE",
"557 433 CURVE SMOOTH",
"557 261 LINE SMOOTH",
"557 122 OFFCURVE",
"498 50 OFFCURVE",
"386 50 CURVE SMOOTH",
"267 50 OFFCURVE",
"205 118 OFFCURVE",
"202 250 CURVE",
"202 454 LINE",
"201 594 OFFCURVE",
"205 615 OFFCURVE",
"206 618 CURVE",
"274 634 LINE",
"272 671 LINE",
"59 671 LINE",
"57 634 LINE",
"126 618 LINE",
"127 611 OFFCURVE",
"130 592 OFFCURVE",
"130 454 CURVE SMOOTH",
"130 239 LINE SMOOTH",
"130 83 OFFCURVE",
"224 -10 OFFCURVE",
"379 -10 CURVE SMOOTH"
);
}
);
width = 742;
},
{
anchors = (
{
name = bottom;
position = "{461, 0}";
},
{
name = top;
position = "{459, 671}";
}
);
background = {
anchors = (
{
name = bottom;
position = "{462, 0}";
},
{
name = top;
position = "{461, 671}";
}
);
paths = (
{
closed = 1;
nodes = (
"611 -10 OFFCURVE",
"723 107 OFFCURVE",
"723 291 CURVE SMOOTH",
"723 384 LINE SMOOTH",
"723 514 OFFCURVE",
"726 591 OFFCURVE",
"729 615 CURVE",
"710 600 LINE",
"808 611 OFFCURVE",
"870 671 OFFCURVE",
"870 752 CURVE SMOOTH",
"870 816 OFFCURVE",
"823 840 OFFCURVE",
"721 829 CURVE",
"719 753 LINE SMOOTH",
"717 713 OFFCURVE",
"681 671 OFFCURVE",
"656 671 CURVE SMOOTH",
"529 671 LINE",
"526 606 LINE",
"606 585 LINE",
"610 581 OFFCURVE",
"614 483 OFFCURVE",
"614 384 CURVE SMOOTH",
"614 319 LINE SMOOTH",
"614 183 OFFCURVE",
"565 118 OFFCURVE",
"462 118 CURVE SMOOTH",
"359 118 OFFCURVE",
"307 187 OFFCURVE",
"309 322 CURVE",
"309 405 LINE",
"309 491 OFFCURVE",
"313 554 OFFCURVE",
"315 585 CURVE",
"391 606 LINE",
"386 671 LINE",
"38 671 LINE",
"33 606 LINE",
"109 585 LINE",
"113 578 OFFCURVE",
"117 494 OFFCURVE",
"117 405 CURVE SMOOTH",
"117 299 LINE SMOOTH",
"117 99 OFFCURVE",
"230 -10 OFFCURVE",
"434 -10 CURVE SMOOTH"
);
}
);
};
color = -1;
layerId = "722FC537-28B1-4F35-B842-D78FAAB5B143";
paths = (
{
closed = 1;
nodes = (
"610 -10 OFFCURVE",
"722 107 OFFCURVE",
"722 291 CURVE SMOOTH",
"722 384 LINE SMOOTH",
"722 514 OFFCURVE",
"725 591 OFFCURVE",
"728 615 CURVE",
"709 600 LINE",
"807 611 OFFCURVE",
"869 671 OFFCURVE",
"869 752 CURVE SMOOTH",
"869 816 OFFCURVE",
"822 840 OFFCURVE",
"720 829 CURVE",
"718 753 LINE SMOOTH",
"715 713 OFFCURVE",
"680 671 OFFCURVE",
"655 671 CURVE SMOOTH",
"528 671 LINE",
"525 606 LINE",
"605 585 LINE",
"609 581 OFFCURVE",
"613 483 OFFCURVE",
"613 384 CURVE SMOOTH",
"613 319 LINE SMOOTH",
"613 183 OFFCURVE",
"563 118 OFFCURVE",
"461 118 CURVE SMOOTH",
"358 118 OFFCURVE",
"306 187 OFFCURVE",
"307 322 CURVE",
"307 405 LINE",
"307 491 OFFCURVE",
"312 554 OFFCURVE",
"314 585 CURVE",
"389 606 LINE",
"385 671 LINE",
"37 671 LINE",
"33 606 LINE",
"107 585 LINE",
"112 578 OFFCURVE",
"115 494 OFFCURVE",
"115 405 CURVE SMOOTH",
"115 299 LINE SMOOTH",
"115 99 OFFCURVE",
"229 -10 OFFCURVE",
"433 -10 CURVE SMOOTH"
);
}
);
width = 838;
},
{
anchors = (
{
name = bottom;
position = "{417, 0}";
},
{
name = top;
position = "{418, 671}";
}
);
color = -1;
layerId = "76B56D5A-2442-4808-93A9-707A1715678A";
paths = (
{
closed = 1;
nodes = (
"567 -10 OFFCURVE",
"666 98 OFFCURVE",
"666 278 CURVE SMOOTH",
"666 406 LINE SMOOTH",
"666 518 OFFCURVE",
"669 584 OFFCURVE",
"674 626 CURVE",
"658 609 LINE",
"757 617 OFFCURVE",
"822 673 OFFCURVE",
"822 749 CURVE SMOOTH",
"822 807 OFFCURVE",
"781 831 OFFCURVE",
"701 819 CURVE",
"698 754 LINE SMOOTH",
"696 698 OFFCURVE",
"671 671 OFFCURVE",
"616 671 CURVE SMOOTH",
"497 671 LINE",
"494 618 LINE",
"574 600 LINE",
"577 592 OFFCURVE",
"581 507 OFFCURVE",
"581 406 CURVE SMOOTH",
"581 293 LINE SMOOTH",
"581 154 OFFCURVE",
"528 86 OFFCURVE",
"422 86 CURVE SMOOTH",
"311 86 OFFCURVE",
"254 155 OFFCURVE",
"254 289 CURVE",
"254 426 LINE",
"253 518 OFFCURVE",
"256 578 OFFCURVE",
"258 600 CURVE",
"329 618 LINE",
"326 671 LINE",
"43 671 LINE",
"40 618 LINE",
"111 600 LINE",
"114 592 OFFCURVE",
"118 525 OFFCURVE",
"118 426 CURVE SMOOTH",
"118 271 LINE SMOOTH",
"118 93 OFFCURVE",
"221 -10 OFFCURVE",
"403 -10 CURVE SMOOTH"
);
}
);
width = 783;
}
);
leftKerningGroup = U;
leftMetricsKey = U;
widthMetricsKey = U;
note = Uhorn;
rightKerningGroup = Uhorn;
unicode = 01AF;
},
